<svg width="22" height="21" viewBox="0 0 22 21" fill="none" xmlns="http://www.w3.org/2000/svg">
<path fill-rule="evenodd" clip-rule="evenodd" d="M20.8845 0.357766C21.0775 0.555312 21.0775 0.875596 20.8845 1.07314L2.04837 20.3578C1.85542 20.5553 1.54258 20.5553 1.34963 20.3578C1.15668 20.1602 1.15668 19.8399 1.34963 19.6424L20.1858 0.357766C20.3787 0.16022 20.6916 0.16022 20.8845 0.357766Z" fill="white"/>
<path fill-rule="evenodd" clip-rule="evenodd" d="M1.11597 0.357766C0.92302 0.555312 0.92302 0.875596 1.11597 1.07314L19.9521 20.3578C20.1451 20.5553 20.4579 20.5553 20.6509 20.3578C20.8438 20.1602 20.8438 19.8399 20.6509 19.6424L1.81471 0.357766C1.62176 0.16022 1.30892 0.16022 1.11597 0.357766Z" fill="white"/>
</svg>
