<svg width="130" height="130" viewBox="0 0 130 130" fill="none" xmlns="http://www.w3.org/2000/svg">
<g filter="url(#filter0_d_737_4581)">
<path d="M87.2531 32.2282C80.8617 28.8078 73.1734 27 65.0207 27H64.986C56.8332 27 49.145 28.8078 42.7523 32.2295C36.6297 35.5057 32.1867 40.0986 30.242 45.1602C30.0383 45.6866 29.9616 46.2538 30.018 46.8156C30.0744 47.3774 30.2623 47.9179 30.5665 48.3929C30.9382 48.9709 31.4501 49.4445 32.0541 49.7695C32.6582 50.0944 33.3346 50.2599 34.0199 50.2504H44.7688C48.4996 50.2504 51.5739 53.1822 51.6222 56.7854C51.6594 59.5133 50.0219 61.9503 47.4517 62.9947C44.6044 64.1288 42.1217 66.0254 40.2738 68.4778C38.597 70.7293 37.5536 73.3917 37.2527 76.1865C36.9724 78.7878 37.3733 81.4175 38.4158 83.8156C39.538 86.3819 41.3303 88.5552 43.742 90.2735C49.929 94.6725 57.2742 97 64.986 97H65.0194C72.7312 97 80.0776 94.6725 86.2609 90.2686C88.6751 88.5503 90.4723 86.3769 91.5871 83.8107C92.6291 81.4124 93.03 78.7828 92.7502 76.1815C92.4493 73.3867 91.406 70.7243 89.7292 68.4728C87.881 66.0207 85.3983 64.1242 82.5512 62.9897C79.9798 61.9453 78.3398 59.5083 78.3795 56.7805C78.4278 53.1748 81.5033 50.2455 85.2341 50.2455H95.9831C96.6674 50.255 97.343 50.0899 97.9464 49.7657C98.5497 49.4414 99.0612 48.9686 99.4327 48.3916C99.7371 47.9168 99.9253 47.3764 99.9819 46.8145C100.038 46.2527 99.9619 45.6854 99.7585 45.159C97.8187 40.0986 93.377 35.5057 87.2531 32.2282Z" fill="url(#paint0_linear_737_4581)"/>
</g>
<path d="M65.0001 65.5186C68.9888 65.5186 72.2223 62.9484 72.2223 59.7779C72.2223 56.6073 68.9888 54.0371 65.0001 54.0371C61.0113 54.0371 57.7778 56.6073 57.7778 59.7779C57.7778 62.9484 61.0113 65.5186 65.0001 65.5186Z" fill="#353680"/>
<path d="M81.5804 66.813C79.08 62.5198 74.2532 61.7776 70.8653 64.9655C69.3382 66.4051 67.2753 67.2785 65.0038 67.2785C62.7324 67.2785 60.6695 66.3987 59.1437 64.9655C55.748 61.7776 50.92 62.5198 48.4196 66.813C47.5065 68.3805 47 70.1033 47 71.914C47 79.1408 55.0574 85 65 85C74.9426 85 83 79.1408 83 71.914C83 70.1033 82.4948 68.3805 81.5804 66.813Z" fill="#B5B6FF"/>
<path d="M52.2141 72.1637C55.1365 74.8015 58.464 76.985 62.1715 77.7242C65.5706 78.4028 68.9774 77.8025 72.121 76.2174C74.1726 75.1844 76.0388 73.7595 77.7867 72.1637C78.4098 71.5973 77.5296 70.6053 76.9143 71.1663C73.5168 74.2654 69.4479 76.6128 65.0175 76.6075C60.5872 76.6021 56.5027 74.2475 53.0881 71.1663C52.4649 70.6088 51.591 71.6009 52.2141 72.1637Z" fill="#0B0B19"/>
<path d="M97.8576 56.9658C95.9671 54.4839 92.9051 52.9161 89.7628 53.0035C86.7993 53.0836 83.9343 54.6204 82.1424 56.9658C81.5785 57.7051 82.834 58.4225 83.3924 57.6942C83.2719 57.8508 83.4362 57.6395 83.5146 57.5521C83.6387 57.4101 83.7646 57.2717 83.896 57.1369C84.2916 56.7279 84.7241 56.3561 85.188 56.0262C86.5543 55.0196 88.2027 54.4664 89.9009 54.4445C91.5991 54.4226 93.2614 54.9332 94.6533 55.9042C95.1397 56.2336 95.5926 56.6099 96.0054 57.0277C96.1624 57.1843 96.312 57.3464 96.4562 57.5139C96.5401 57.6104 96.708 57.8253 96.6094 57.696C97.166 58.4243 98.4215 57.7087 97.8576 56.9676V56.9658Z" fill="#0B0B19"/>
<path d="M47.8576 56.9658C45.9671 54.4839 42.9051 52.9161 39.7628 53.0035C36.7993 53.0836 33.9343 54.6204 32.1424 56.9658C31.5785 57.7051 32.834 58.4225 33.3924 57.6942C33.2719 57.8508 33.4362 57.6395 33.5146 57.5521C33.6387 57.4101 33.7646 57.2717 33.896 57.1369C34.2916 56.7279 34.7241 56.3561 35.188 56.0262C36.5543 55.0196 38.2027 54.4664 39.9009 54.4445C41.5991 54.4226 43.2614 54.9332 44.6533 55.9042C45.1397 56.2336 45.5926 56.6099 46.0054 57.0277C46.1624 57.1843 46.312 57.3464 46.4562 57.5139C46.5401 57.6104 46.708 57.8253 46.6094 57.696C47.166 58.4243 48.4215 57.7087 47.8576 56.9676V56.9658Z" fill="#0B0B19"/>
<circle cx="90" cy="60" r="3" fill="#0B0B19"/>
<circle cx="40" cy="60" r="3" fill="#0B0B19"/>
<circle cx="39" cy="59" r="1" fill="#F4F4FF"/>
<circle cx="89" cy="59" r="1" fill="#F4F4FF"/>
<defs>
<filter id="filter0_d_737_4581" x="0" y="0" width="130" height="130" filterUnits="userSpaceOnUse" color-interpolation-filters="sRGB">
<feFlood flood-opacity="0" result="BackgroundImageFix"/>
<feColorMatrix in="SourceAlpha" type="matrix" values="0 0 0 0 0 0 0 0 0 0 0 0 0 0 0 0 0 0 127 0" result="hardAlpha"/>
<feOffset dy="3"/>
<feGaussianBlur stdDeviation="15"/>
<feComposite in2="hardAlpha" operator="out"/>
<feColorMatrix type="matrix" values="0 0 0 0 0.416667 0 0 0 0 0.424242 0 0 0 0 1 0 0 0 0.1 0"/>
<feBlend mode="normal" in2="BackgroundImageFix" result="effect1_dropShadow_737_4581"/>
<feBlend mode="normal" in="SourceGraphic" in2="effect1_dropShadow_737_4581" result="shape"/>
</filter>
<linearGradient id="paint0_linear_737_4581" x1="65" y1="27" x2="65" y2="97" gradientUnits="userSpaceOnUse">
<stop stop-color="white"/>
<stop offset="1" stop-color="#F0F0FF"/>
</linearGradient>
</defs>
</svg>
