<svg width="130" height="130" viewBox="0 0 130 130" fill="none" xmlns="http://www.w3.org/2000/svg">
<path d="M37.7853 126.641C37.2581 125.916 36.7557 125.2 36.2779 124.492C35.8167 123.767 35.3142 122.976 34.7706 122.12C34.2435 121.263 33.6339 120.316 32.942 119.278C32.2666 118.224 31.4512 116.997 30.4957 115.597C30.4957 116.832 30.4957 117.944 30.4957 118.932C30.4957 119.904 30.4875 120.81 30.471 121.65C30.4545 122.49 30.4381 123.281 30.4216 124.022C30.4051 124.763 30.3804 125.505 30.3475 126.246C30.331 126.641 30.2898 126.946 30.2239 127.16C30.1745 127.374 30.1004 127.539 30.0015 127.654C29.9027 127.769 29.7874 127.835 29.6556 127.852C29.5403 127.885 29.4002 127.901 29.2355 127.901C28.939 127.901 28.6919 127.802 28.4942 127.605C28.2965 127.391 28.1812 126.946 28.1483 126.27C28.0659 124.459 28.0165 122.647 28 120.835C28 119.007 28 117.121 28 115.177C28 114.073 28.0082 113.208 28.0247 112.583C28.0577 111.957 28.1153 111.487 28.1977 111.174C28.2965 110.861 28.4201 110.664 28.5683 110.581C28.7331 110.499 28.9472 110.458 29.2108 110.458C29.4744 110.458 29.8203 110.664 30.2486 111.075C30.6769 111.471 31.1464 111.998 31.6571 112.657C32.1678 113.316 32.7114 114.073 33.288 114.93C33.881 115.786 34.4658 116.668 35.0424 117.573C35.619 118.479 36.1709 119.377 36.698 120.267C37.2416 121.156 37.7358 121.963 38.1806 122.688C38.1641 121.914 38.1559 121.065 38.1559 120.143C38.1559 119.204 38.1559 118.166 38.1559 117.03C38.1559 115.729 38.1641 114.658 38.1806 113.818C38.1971 112.961 38.2383 112.286 38.3042 111.792C38.3865 111.298 38.5101 110.952 38.6748 110.754C38.8396 110.557 39.0702 110.458 39.3667 110.458C39.6468 110.458 39.8939 110.548 40.108 110.73C40.3222 110.911 40.4457 111.331 40.4787 111.99C40.5116 112.583 40.5363 113.11 40.5528 113.571C40.5693 114.032 40.5857 114.493 40.6022 114.954C40.6187 115.399 40.6269 115.869 40.6269 116.363C40.6269 116.84 40.6269 117.384 40.6269 117.993C40.6269 118.735 40.6269 119.443 40.6269 120.118C40.6269 120.794 40.6187 121.461 40.6022 122.12C40.5857 122.779 40.5693 123.446 40.5528 124.121C40.5363 124.796 40.5116 125.505 40.4787 126.246C40.4622 126.641 40.421 126.946 40.3551 127.16C40.3057 127.374 40.2316 127.539 40.1327 127.654C40.0339 127.769 39.9186 127.835 39.7868 127.852C39.6715 127.885 39.5314 127.901 39.3667 127.901C39.0867 127.901 38.8478 127.819 38.6501 127.654C38.4524 127.489 38.1641 127.152 37.7853 126.641Z" fill="#FEFEFE"/>
<path d="M43.7864 126.27C43.7534 125.661 43.7205 124.969 43.6875 124.195C43.6711 123.404 43.6628 122.54 43.6628 121.601C43.6628 120.431 43.6711 119.435 43.6875 118.611C43.704 117.771 43.7452 117.088 43.8111 116.56C43.8934 116.017 44.017 115.622 44.1817 115.375C44.3465 115.111 44.5771 114.979 44.8736 114.979C45.1537 114.979 45.4008 115.078 45.6149 115.276C45.8291 115.473 45.9526 115.902 45.9856 116.56C46.0844 118.29 46.1338 119.962 46.1338 121.576C46.1338 122.4 46.1174 123.174 46.0844 123.899C46.0515 124.607 46.0185 125.389 45.9856 126.246C45.9691 126.641 45.9279 126.946 45.862 127.16C45.8126 127.374 45.7385 127.539 45.6396 127.654C45.5408 127.769 45.4255 127.835 45.2937 127.852C45.1784 127.885 45.0384 127.901 44.8736 127.901C44.5771 127.901 44.33 127.802 44.1323 127.605C43.9346 127.391 43.8193 126.946 43.7864 126.27ZM44.8983 110.507C45.2772 110.507 45.6232 110.655 45.9362 110.952C46.2656 111.248 46.4304 111.603 46.4304 112.014C46.4304 112.41 46.2656 112.756 45.9362 113.052C45.6067 113.332 45.236 113.472 44.8242 113.472C44.4783 113.472 44.1488 113.332 43.8358 113.052C43.5393 112.756 43.391 112.393 43.391 111.965C43.391 111.57 43.5393 111.232 43.8358 110.952C44.1488 110.655 44.503 110.507 44.8983 110.507Z" fill="#FEFEFE"/>
<path d="M65.8424 127.061C65.7435 126.781 65.6776 126.468 65.6447 126.122C65.6282 125.776 65.62 125.348 65.62 124.837C65.62 124.475 65.62 124.195 65.62 123.997C65.6365 123.783 65.6447 123.602 65.6447 123.454C65.6447 123.289 65.6447 123.133 65.6447 122.984C65.6612 122.82 65.6694 122.597 65.6694 122.317C65.6694 121.741 65.6529 121.164 65.62 120.588C65.6035 119.995 65.5211 119.468 65.3729 119.007C65.2246 118.529 64.994 118.142 64.681 117.845C64.368 117.549 63.915 117.401 63.3219 117.401C62.317 117.401 61.5346 117.878 60.9745 118.834C60.4144 119.789 60.0767 121.313 59.9613 123.404C59.9284 124.063 59.9119 124.665 59.9119 125.208C59.9119 125.752 59.879 126.221 59.8131 126.616C59.7472 126.995 59.6236 127.292 59.4424 127.506C59.2777 127.72 58.9976 127.827 58.6023 127.827C58.2399 127.827 57.9763 127.736 57.8115 127.555C57.6468 127.358 57.5233 127.069 57.4409 126.691C57.375 126.312 57.3338 125.85 57.3173 125.307C57.3173 124.763 57.2926 124.129 57.2432 123.404C57.1938 122.614 57.1114 121.856 56.9961 121.131C56.8973 120.407 56.7243 119.772 56.4772 119.229C56.2466 118.669 55.9253 118.224 55.5135 117.895C55.1181 117.565 54.6075 117.401 53.9815 117.401C53.3884 117.401 52.9272 117.549 52.5977 117.845C52.2847 118.125 52.0541 118.504 51.9058 118.982C51.7575 119.443 51.6669 119.97 51.634 120.563C51.6175 121.14 51.6093 121.724 51.6093 122.317C51.6093 122.614 51.6093 122.836 51.6093 122.984C51.6258 123.116 51.634 123.24 51.634 123.355C51.634 123.47 51.634 123.619 51.634 123.8C51.6505 123.981 51.6587 124.261 51.6587 124.64C51.6587 125.183 51.6422 125.653 51.6093 126.048C51.5928 126.443 51.5351 126.781 51.4363 127.061C51.321 127.391 51.1645 127.596 50.9668 127.679C50.7691 127.745 50.5879 127.778 50.4232 127.778C49.9125 127.778 49.583 127.596 49.4348 127.234C49.2865 126.872 49.2041 126.345 49.1877 125.653C49.1877 125.274 49.1794 124.854 49.163 124.393C49.163 123.915 49.163 123.339 49.163 122.663C49.163 122.334 49.163 122.046 49.163 121.798C49.163 121.551 49.163 121.313 49.163 121.082C49.1794 120.851 49.1877 120.621 49.1877 120.39C49.2041 120.143 49.2206 119.863 49.2371 119.55C49.2865 118.545 49.4677 117.746 49.7807 117.153C50.0937 116.544 50.4644 116.083 50.8927 115.77C51.321 115.457 51.7822 115.259 52.2765 115.177C52.7707 115.078 53.2237 115.029 53.6355 115.029C54.5251 115.029 55.2746 115.16 55.8841 115.424C56.4937 115.687 56.9879 116.033 57.3668 116.462C57.7621 116.89 58.0504 117.376 58.2316 117.919C58.4293 118.463 58.5611 119.015 58.627 119.575C58.6929 119.031 58.8247 118.496 59.0223 117.969C59.2365 117.425 59.5413 116.948 59.9366 116.536C60.3485 116.107 60.8756 115.762 61.5181 115.498C62.1605 115.235 62.9513 115.103 63.8903 115.103C64.335 115.103 64.7881 115.152 65.2493 115.251C65.7271 115.333 66.1636 115.531 66.559 115.844C66.9543 116.157 67.2838 116.61 67.5474 117.203C67.8274 117.779 67.9922 118.562 68.0416 119.55C68.0581 119.863 68.0663 120.143 68.0663 120.39C68.0828 120.621 68.091 120.851 68.091 121.082C68.1075 121.313 68.1157 121.551 68.1157 121.798C68.1157 122.046 68.1157 122.334 68.1157 122.663C68.1157 123.339 68.1075 123.915 68.091 124.393C68.091 124.854 68.091 125.274 68.091 125.653C68.091 125.966 68.0745 126.254 68.0416 126.518C68.0251 126.781 67.9757 127.003 67.8933 127.185C67.811 127.366 67.6874 127.514 67.5227 127.629C67.3744 127.728 67.152 127.778 66.8555 127.778C66.5754 127.778 66.3613 127.728 66.213 127.629C66.0648 127.514 65.9412 127.325 65.8424 127.061Z" fill="#FEFEFE"/>
<path d="M73.7203 111.644C73.7203 112.632 73.6874 113.67 73.6215 114.757C73.572 115.827 73.5061 116.873 73.4238 117.895C73.6379 117.45 73.918 117.071 74.2639 116.758C74.6099 116.429 74.9888 116.165 75.4006 115.967C75.8289 115.77 76.2737 115.622 76.735 115.523C77.1962 115.424 77.641 115.375 78.0693 115.375C78.8106 115.375 79.5025 115.515 80.145 115.795C80.8039 116.058 81.3722 116.453 81.85 116.98C82.3442 117.491 82.7231 118.134 82.9866 118.908C83.2667 119.665 83.4067 120.538 83.4067 121.527C83.4067 122.482 83.2667 123.355 82.9866 124.146C82.7066 124.936 82.2865 125.62 81.7264 126.196C81.1828 126.756 80.4991 127.193 79.6755 127.506C78.8683 127.819 77.9375 127.975 76.8832 127.975C75.45 127.975 74.3216 127.687 73.4979 127.111C72.6907 126.534 72.0894 125.768 71.6941 124.813C71.2987 123.841 71.0516 122.729 70.9528 121.477C70.8704 120.225 70.8292 118.916 70.8292 117.549C70.8292 116.165 70.8539 114.913 70.9033 113.793C70.9528 112.673 71.0269 111.767 71.1257 111.075C71.2246 110.45 71.3893 110.005 71.6199 109.741C71.8506 109.478 72.1553 109.346 72.5342 109.346C72.8143 109.346 73.0367 109.412 73.2014 109.544C73.3661 109.659 73.4814 109.824 73.5473 110.038C73.6297 110.252 73.6791 110.499 73.6956 110.779C73.7121 111.042 73.7203 111.331 73.7203 111.644ZM77.3774 117.821C76.8997 117.821 76.4384 117.903 75.9936 118.068C75.5653 118.216 75.1782 118.455 74.8323 118.784C74.5028 119.114 74.2392 119.534 74.0415 120.044C73.8439 120.538 73.745 121.14 73.745 121.848C73.745 123.1 74.0498 124.055 74.6593 124.714C75.2853 125.356 76.1172 125.678 77.155 125.678C77.5833 125.678 78.0199 125.62 78.4647 125.505C78.9095 125.373 79.3131 125.159 79.6755 124.862C80.0379 124.549 80.3344 124.137 80.565 123.627C80.7957 123.116 80.911 122.482 80.911 121.724C80.911 121.049 80.8121 120.464 80.6145 119.97C80.4332 119.476 80.1779 119.072 79.8484 118.759C79.519 118.43 79.1401 118.191 78.7118 118.043C78.2835 117.895 77.8387 117.821 77.3774 117.821Z" fill="#FEFEFE"/>
<path d="M85.7497 126.369C85.7333 125.776 85.7168 125.085 85.7003 124.294C85.6838 123.503 85.6674 122.647 85.6509 121.724C85.6509 120.802 85.6427 119.83 85.6262 118.809C85.6262 117.788 85.6262 116.742 85.6262 115.671C85.6262 114.502 85.6344 113.497 85.6509 112.657C85.6674 111.817 85.7086 111.125 85.7745 110.581C85.8568 110.038 85.9804 109.642 86.1451 109.395C86.3098 109.132 86.5405 109 86.837 109C87.117 109 87.3641 109.091 87.5783 109.272C87.7925 109.453 87.916 109.873 87.949 110.532C88.0148 111.718 88.056 112.953 88.0725 114.238C88.089 115.506 88.0972 116.758 88.0972 117.993C88.0972 118.735 88.0972 119.451 88.0972 120.143C88.0972 120.818 88.089 121.494 88.0725 122.169C88.056 122.828 88.0396 123.503 88.0231 124.195C88.0066 124.887 87.9819 125.603 87.949 126.345C87.9325 126.74 87.8913 127.045 87.8254 127.259C87.776 127.473 87.7019 127.638 87.603 127.753C87.5042 127.868 87.3889 127.934 87.2571 127.951C87.1418 127.984 87.0017 128 86.837 128C86.5405 128 86.2934 127.901 86.0957 127.704C85.898 127.489 85.7827 127.045 85.7497 126.369Z" fill="#FEFEFE"/>
<path d="M96.8356 123.256C96.259 123.256 95.6495 123.215 95.007 123.133C94.381 123.034 93.6974 122.836 92.9561 122.54C93.1043 123.544 93.5162 124.302 94.1916 124.813C94.8835 125.323 95.8719 125.579 97.1568 125.579C97.6181 125.579 98.0299 125.554 98.3923 125.505C98.7712 125.439 99.1007 125.373 99.3807 125.307C99.6608 125.225 99.9079 125.159 100.122 125.109C100.336 125.043 100.534 125.01 100.715 125.01C100.946 125.01 101.168 125.085 101.382 125.233C101.596 125.365 101.703 125.595 101.703 125.925C101.703 126.336 101.531 126.674 101.185 126.938C100.855 127.201 100.443 127.415 99.9491 127.58C99.4713 127.728 98.9606 127.827 98.417 127.876C97.8734 127.942 97.3957 127.975 96.9838 127.975C96.0119 127.975 95.1141 127.844 94.2904 127.58C93.4832 127.316 92.7831 126.921 92.19 126.394C91.597 125.85 91.1357 125.183 90.8063 124.393C90.4768 123.602 90.3121 122.68 90.3121 121.625C90.3121 120.604 90.4686 119.698 90.7816 118.908C91.111 118.117 91.5558 117.45 92.1159 116.906C92.676 116.363 93.3349 115.951 94.0927 115.671C94.867 115.391 95.6989 115.251 96.5885 115.251C97.2803 115.251 97.9475 115.342 98.59 115.523C99.2489 115.704 99.8255 115.976 100.32 116.338C100.83 116.7 101.234 117.162 101.531 117.722C101.844 118.265 102 118.908 102 119.649C102 120.308 101.876 120.868 101.629 121.329C101.382 121.79 101.028 122.161 100.567 122.441C100.122 122.721 99.5784 122.927 98.9359 123.059C98.3099 123.19 97.6098 123.256 96.8356 123.256ZM96.6626 117.524C96.2178 117.524 95.7895 117.582 95.3777 117.697C94.9658 117.796 94.5869 117.969 94.241 118.216C93.9115 118.446 93.6315 118.759 93.4008 119.155C93.1702 119.534 93.0137 120.011 92.9313 120.588C93.5573 120.868 94.1669 121.065 94.7599 121.181C95.3529 121.28 95.9789 121.329 96.6379 121.329C97.6098 121.329 98.3264 121.214 98.7877 120.983C99.2654 120.736 99.5043 120.3 99.5043 119.674C99.5043 119.097 99.2819 118.595 98.8371 118.166C98.4088 117.738 97.684 117.524 96.6626 117.524Z" fill="#FEFEFE"/>
<g filter="url(#filter0_d_737_4710)">
<path d="M87.2531 32.2282C80.8617 28.8078 73.1734 27 65.0207 27H64.986C56.8332 27 49.145 28.8078 42.7523 32.2295C36.6297 35.5057 32.1867 40.0986 30.242 45.1602C30.0383 45.6866 29.9616 46.2538 30.018 46.8156C30.0744 47.3774 30.2623 47.9179 30.5665 48.3929C30.9382 48.9709 31.4501 49.4445 32.0541 49.7695C32.6582 50.0944 33.3346 50.2599 34.0199 50.2504H44.7688C48.4996 50.2504 51.5739 53.1822 51.6222 56.7854C51.6594 59.5133 50.0219 61.9503 47.4517 62.9947C44.6044 64.1288 42.1217 66.0254 40.2738 68.4778C38.597 70.7293 37.5536 73.3917 37.2527 76.1865C36.9724 78.7878 37.3733 81.4175 38.4158 83.8156C39.538 86.3819 41.3303 88.5552 43.742 90.2735C49.929 94.6725 57.2742 97 64.986 97H65.0194C72.7312 97 80.0776 94.6725 86.2609 90.2686C88.6751 88.5503 90.4723 86.3769 91.5871 83.8107C92.6291 81.4124 93.03 78.7828 92.7502 76.1815C92.4493 73.3867 91.406 70.7243 89.7292 68.4728C87.881 66.0207 85.3983 64.1242 82.5512 62.9897C79.9798 61.9453 78.3398 59.5083 78.3795 56.7805C78.4278 53.1748 81.5033 50.2455 85.2341 50.2455H95.9831C96.6674 50.255 97.343 50.0899 97.9464 49.7657C98.5497 49.4414 99.0612 48.9686 99.4327 48.3916C99.7371 47.9168 99.9253 47.3764 99.9819 46.8145C100.038 46.2527 99.9619 45.6854 99.7585 45.159C97.8187 40.0986 93.377 35.5057 87.2531 32.2282Z" fill="url(#paint0_linear_737_4710)"/>
</g>
<path d="M65.0001 65.5186C68.9888 65.5186 72.2223 62.9484 72.2223 59.7778C72.2223 56.6073 68.9888 54.0371 65.0001 54.0371C61.0113 54.0371 57.7778 56.6073 57.7778 59.7778C57.7778 62.9484 61.0113 65.5186 65.0001 65.5186Z" fill="#353680"/>
<path d="M81.2049 65.8786C78.7611 62.5539 74.0436 61.9791 70.7324 64.4479C69.2398 65.5627 67.2236 66.2391 65.0036 66.2391C62.7836 66.2391 60.7673 65.5578 59.276 64.4479C55.9573 61.9791 51.2385 62.5539 48.7947 65.8786C47.9022 67.0925 47.4072 68.4266 47.4072 69.8289C47.4072 75.4254 55.2823 79.9628 64.9998 79.9628C74.7174 79.9628 82.5924 75.4254 82.5924 69.8289C82.5924 68.4266 82.0987 67.0925 81.2049 65.8786Z" fill="#B5B6FF"/>
<path d="M54.6182 70.0226C56.9911 71.8369 59.6928 73.3389 62.7032 73.8473C65.4632 74.314 68.2294 73.9012 70.7819 72.8109C72.4477 72.1003 73.9631 71.1203 75.3822 70.0226C75.8882 69.633 75.1735 68.9507 74.6739 69.3366C71.9152 71.4682 68.6114 73.0828 65.0141 73.0791C61.4169 73.0755 58.1004 71.4559 55.3278 69.3366C54.8219 68.9531 54.1123 69.6355 54.6182 70.0226V70.0226Z" fill="#0B0B19"/>
<path d="M64.9508 74.0372C64.201 74.0378 63.4525 73.9741 62.7138 73.8471C60.0642 73.3908 57.4395 72.1298 54.6855 69.9819C54.62 69.9354 54.565 69.8759 54.5242 69.8073C54.4833 69.7386 54.4574 69.6623 54.4481 69.5832C54.4389 69.5041 54.4465 69.4239 54.4705 69.3479C54.4944 69.2719 54.5342 69.2016 54.5873 69.1416C54.6451 69.0654 54.7177 69.0014 54.8009 68.9532C54.884 68.905 54.9761 68.8737 55.0716 68.861C55.1672 68.8483 55.2644 68.8545 55.3575 68.8794C55.4506 68.9042 55.5377 68.947 55.6139 69.0055C58.7668 71.4612 61.9259 72.7124 65.0117 72.7124H65.0242C68.1137 72.7124 71.2629 71.4649 74.386 69.0055C74.4615 68.9467 74.548 68.9034 74.6406 68.878C74.7333 68.8527 74.8301 68.8458 74.9254 68.8578C75.0207 68.8698 75.1127 68.9004 75.1959 68.9479C75.2791 68.9953 75.3519 69.0587 75.41 69.1343C75.4636 69.1944 75.5039 69.265 75.5284 69.3414C75.5528 69.4178 75.5608 69.4984 75.5519 69.578C75.543 69.6577 75.5174 69.7346 75.4768 69.8039C75.4361 69.8732 75.3812 69.9334 75.3156 69.9807C73.7286 71.2306 72.236 72.1519 70.7546 72.802C68.9279 73.607 66.9513 74.0277 64.9508 74.0372V74.0372ZM54.9142 69.6924C57.6172 71.7986 60.1885 73.04 62.7747 73.4852C65.3411 73.9268 68.0491 73.5723 70.6042 72.4597C72.0558 71.828 73.521 70.9227 75.0782 69.6924C75.1054 69.6755 75.1283 69.6527 75.1452 69.6258C75.1622 69.5988 75.1727 69.5685 75.176 69.537C75.1794 69.5054 75.1755 69.4736 75.1645 69.4438C75.1536 69.414 75.136 69.387 75.113 69.3649C75.0854 69.3276 75.0506 69.2962 75.0105 69.2724C74.9705 69.2486 74.926 69.2328 74.8798 69.2261C74.8336 69.2194 74.7864 69.2218 74.7411 69.2332C74.6958 69.2446 74.6533 69.2647 74.6159 69.2925C71.4282 71.8059 68.2007 73.0804 65.0242 73.0804H65.0117C61.8402 73.0804 58.599 71.8035 55.379 69.2937C55.3412 69.2654 55.298 69.2449 55.252 69.2334C55.2061 69.2218 55.1582 69.2194 55.1113 69.2264C55.0644 69.2334 55.0194 69.2495 54.9789 69.274C54.9384 69.2984 54.9033 69.3305 54.8756 69.3686C54.8533 69.3907 54.8362 69.4176 54.8258 69.4472C54.8153 69.4767 54.8118 69.5082 54.8153 69.5393C54.8189 69.5704 54.8296 69.6003 54.8465 69.6268C54.8633 69.6533 54.8861 69.6757 54.9129 69.6924H54.9142Z" fill="#0B0B19"/>
<path d="M95.4566 57.7918C94.1437 56.1372 92.0173 55.092 89.8351 55.1503C87.7772 55.2037 85.7876 56.2282 84.5432 57.7918C84.1516 58.2847 85.0235 58.763 85.4113 58.2774C85.3276 58.3818 85.4417 58.241 85.4962 58.1827C85.5823 58.088 85.6698 57.9957 85.761 57.9059C86.0357 57.6332 86.336 57.3853 86.6582 57.1654C87.607 56.4944 88.7518 56.1255 89.9311 56.1109C91.1104 56.0964 92.2647 56.4367 93.2313 57.0841C93.5692 57.3037 93.8837 57.5546 94.1703 57.8331C94.2793 57.9375 94.3832 58.0455 94.4833 58.1572C94.5416 58.2215 94.6582 58.3648 94.5898 58.2786C94.9763 58.7642 95.8481 58.2871 95.4566 57.793V57.7918Z" fill="#0B0B19"/>
<path d="M94.842 58.4764C94.7387 58.4772 94.6365 58.4547 94.5433 58.4104C94.4501 58.3662 94.3683 58.3015 94.3041 58.2213V58.2213C94.2967 58.214 94.2894 58.2043 94.282 58.1958L94.195 58.0913C94.1055 57.988 94.0075 57.8823 93.9021 57.7778C93.6333 57.5071 93.3386 57.2629 93.0223 57.0487C92.1184 56.4208 91.0382 56.0907 89.9347 56.105C88.8311 56.1194 87.7601 56.4776 86.8731 57.1289C86.5709 57.3426 86.2891 57.5834 86.0313 57.8482C85.9443 57.9369 85.8597 58.0305 85.7862 58.118C85.7617 58.1459 85.7237 58.1933 85.7004 58.2213C85.6908 58.2328 85.6806 58.2437 85.6698 58.2541C85.5454 58.3863 85.3752 58.4669 85.1934 58.4797C85.0115 58.4926 84.8315 58.4367 84.6895 58.3233C84.6244 58.2785 84.5695 58.2208 84.5282 58.1538C84.4869 58.0868 84.4601 58.012 84.4495 57.9342C84.4389 57.8564 84.4447 57.7772 84.4666 57.7018C84.4885 57.6263 84.526 57.5562 84.5767 57.4958C85.1961 56.6858 85.989 56.022 86.8983 55.5524C87.8075 55.0828 88.8105 54.819 89.835 54.7801C91.9476 54.723 94.0933 55.7631 95.4229 57.4958C95.4737 57.5563 95.5113 57.6265 95.5332 57.7022C95.5551 57.7778 95.5609 57.8572 95.5502 57.9351C95.5395 58.0131 95.5125 58.088 95.4709 58.1551C95.4294 58.2221 95.3742 58.2798 95.3089 58.3246C95.174 58.4241 95.0101 58.4774 94.842 58.4764V58.4764ZM94.5798 57.9807C94.6397 58.0534 94.7262 58.0995 94.8204 58.1091C94.9145 58.1187 95.0087 58.0908 95.0822 58.0317C95.1091 58.0162 95.1322 57.9949 95.1495 57.9693C95.1669 57.9436 95.1781 57.9144 95.1824 57.8838C95.1866 57.8532 95.1838 57.8221 95.1741 57.7928C95.1644 57.7634 95.148 57.7367 95.1263 57.7146V57.7146C93.8678 56.0729 91.8434 55.0875 89.8411 55.1422C87.9515 55.1932 86.0423 56.1787 84.8659 57.7146C84.8444 57.7367 84.8282 57.7634 84.8185 57.7927C84.8088 57.8219 84.8059 57.8529 84.8101 57.8834C84.8142 57.9139 84.8252 57.9431 84.8423 57.9688C84.8594 57.9945 84.8821 58.016 84.9088 58.0317C84.9452 58.0611 84.987 58.0832 85.0319 58.0965C85.0769 58.1099 85.124 58.1143 85.1707 58.1096C85.2174 58.1049 85.2626 58.091 85.3039 58.0689C85.3452 58.0468 85.3817 58.0168 85.4112 57.9807V57.9807L85.4995 57.8738C85.5816 57.7826 85.6698 57.6854 85.7617 57.5906C86.0356 57.31 86.3351 57.0549 86.6563 56.8288C87.604 56.1355 88.7471 55.7544 89.9247 55.7391C91.1023 55.7239 92.2551 56.0752 93.2208 56.7437C93.5575 56.9709 93.8711 57.2301 94.157 57.5177C94.2685 57.6283 94.3727 57.7401 94.4683 57.8507C94.4952 57.881 94.5332 57.9284 94.5614 57.9625L94.5761 57.9807H94.5798Z" fill="#0B0B19"/>
<path d="M45.4566 57.7918C44.1437 56.1372 42.0173 55.092 39.8351 55.1503C37.7772 55.2037 35.7876 56.2282 34.5432 57.7918C34.1516 58.2847 35.0235 58.763 35.4113 58.2774C35.3276 58.3818 35.4417 58.241 35.4962 58.1827C35.5823 58.088 35.6698 57.9957 35.761 57.9059C36.0357 57.6332 36.336 57.3853 36.6582 57.1654C37.607 56.4944 38.7518 56.1255 39.9311 56.1109C41.1104 56.0964 42.2647 56.4367 43.2313 57.0841C43.5692 57.3037 43.8837 57.5546 44.1703 57.8331C44.2793 57.9375 44.3832 58.0455 44.4833 58.1572C44.5416 58.2215 44.6582 58.3648 44.5898 58.2786C44.9763 58.7642 45.8481 58.2871 45.4566 57.793V57.7918Z" fill="#0B0B19"/>
<path d="M44.842 58.4759C44.7388 58.4767 44.6368 58.4542 44.5436 58.4102C44.4504 58.3663 44.3685 58.3019 44.3041 58.222V58.222L44.282 58.1953L44.195 58.092C44.1068 57.9888 44.0075 57.8831 43.9021 57.7774C43.6333 57.5068 43.3387 57.2627 43.0223 57.0485C42.1184 56.4207 41.0382 56.0906 39.9347 56.105C38.8311 56.1194 37.7601 56.4775 36.8731 57.1287C36.5709 57.3423 36.2891 57.583 36.0313 57.8478C35.9443 57.9353 35.8597 58.0301 35.7862 58.1175C35.7617 58.1455 35.7237 58.1929 35.7004 58.2208C35.6908 58.2327 35.6806 58.244 35.6698 58.2548C35.5453 58.3868 35.375 58.4672 35.1931 58.4798C35.0113 58.4924 34.8313 58.4363 34.6895 58.3229C34.6244 58.278 34.5695 58.2203 34.5282 58.1533C34.4869 58.0864 34.4601 58.0116 34.4495 57.9338C34.4389 57.856 34.4447 57.7768 34.4666 57.7014C34.4885 57.626 34.526 57.5558 34.5767 57.4955C35.1961 56.6856 35.989 56.022 36.8983 55.5525C37.8075 55.083 38.8105 54.8193 39.835 54.7803C41.9513 54.7196 44.0933 55.7632 45.4229 57.4955C45.4737 57.556 45.5113 57.6262 45.5332 57.7018C45.5551 57.7774 45.5609 57.8568 45.5502 57.9347C45.5395 58.0127 45.5125 58.0876 45.4709 58.1546C45.4294 58.2216 45.3742 58.2794 45.3089 58.3241C45.174 58.4236 45.0101 58.4769 44.842 58.4759V58.4759ZM44.5822 57.9803C44.6118 58.0164 44.6483 58.0464 44.6895 58.0685C44.7308 58.0906 44.7761 58.1044 44.8228 58.1092C44.8694 58.1139 44.9166 58.1095 44.9615 58.0961C45.0065 58.0827 45.0483 58.0607 45.0847 58.0313C45.1116 58.0158 45.1346 57.9945 45.152 57.9688C45.1693 57.9432 45.1806 57.914 45.1848 57.8834C45.1891 57.8529 45.1863 57.8217 45.1765 57.7924C45.1668 57.7631 45.1505 57.7363 45.1288 57.7142V57.7142C43.8703 56.0729 41.8447 55.0877 39.8436 55.1424C37.954 55.1934 36.0448 56.1786 34.8684 57.7142C34.8468 57.7364 34.8306 57.763 34.8209 57.7923C34.8113 57.8215 34.8084 57.8525 34.8125 57.883C34.8166 57.9135 34.8277 57.9427 34.8448 57.9684C34.8619 57.994 34.8846 58.0156 34.9113 58.0313C34.9477 58.0606 34.9896 58.0826 35.0346 58.0958C35.0795 58.1091 35.1267 58.1134 35.1734 58.1086C35.2201 58.1037 35.2653 58.0898 35.3066 58.0676C35.3478 58.0453 35.3842 58.0153 35.4137 57.9791V57.9791L35.5019 57.8721C35.584 57.781 35.6722 57.6838 35.7641 57.5891C36.0381 57.3085 36.3375 57.0535 36.6587 56.8274C37.6064 56.1342 38.7496 55.7532 39.9272 55.738C41.1048 55.7227 42.2576 56.074 43.2232 56.7423C43.56 56.9695 43.8735 57.2287 44.1595 57.5162C44.271 57.628 44.3764 57.7397 44.4707 57.8491L44.5638 57.962L44.5786 57.9791L44.5822 57.9803Z" fill="#0B0B19"/>
<defs>
<filter id="filter0_d_737_4710" x="0" y="0" width="130" height="130" filterUnits="userSpaceOnUse" color-interpolation-filters="sRGB">
<feFlood flood-opacity="0" result="BackgroundImageFix"/>
<feColorMatrix in="SourceAlpha" type="matrix" values="0 0 0 0 0 0 0 0 0 0 0 0 0 0 0 0 0 0 127 0" result="hardAlpha"/>
<feOffset dy="3"/>
<feGaussianBlur stdDeviation="15"/>
<feComposite in2="hardAlpha" operator="out"/>
<feColorMatrix type="matrix" values="0 0 0 0 0.416667 0 0 0 0 0.424242 0 0 0 0 1 0 0 0 0.1 0"/>
<feBlend mode="normal" in2="BackgroundImageFix" result="effect1_dropShadow_737_4710"/>
<feBlend mode="normal" in="SourceGraphic" in2="effect1_dropShadow_737_4710" result="shape"/>
</filter>
<linearGradient id="paint0_linear_737_4710" x1="65" y1="27" x2="65" y2="97" gradientUnits="userSpaceOnUse">
<stop stop-color="white"/>
<stop offset="1" stop-color="#F0F0FF"/>
</linearGradient>
</defs>
</svg>
