<svg width="130" height="130" viewBox="0 0 130 130" fill="none" xmlns="http://www.w3.org/2000/svg">
<g filter="url(#filter0_d_737_4561)">
<path d="M87.2531 32.2282C80.8617 28.8078 73.1734 27 65.0207 27H64.986C56.8332 27 49.145 28.8078 42.7523 32.2295C36.6297 35.5057 32.1867 40.0986 30.242 45.1602C30.0383 45.6866 29.9616 46.2538 30.018 46.8156C30.0744 47.3774 30.2623 47.9179 30.5665 48.3929C30.9382 48.9709 31.4501 49.4445 32.0541 49.7695C32.6582 50.0944 33.3346 50.2599 34.0199 50.2504H44.7688C48.4996 50.2504 51.5739 53.1822 51.6222 56.7854C51.6594 59.5133 50.0219 61.9503 47.4517 62.9947C44.6044 64.1288 42.1217 66.0254 40.2738 68.4778C38.597 70.7293 37.5536 73.3917 37.2527 76.1865C36.9724 78.7878 37.3733 81.4175 38.4158 83.8156C39.538 86.3819 41.3303 88.5552 43.742 90.2735C49.929 94.6725 57.2742 97 64.986 97H65.0194C72.7312 97 80.0776 94.6725 86.2609 90.2686C88.6751 88.5503 90.4723 86.3769 91.5871 83.8107C92.6291 81.4124 93.03 78.7828 92.7502 76.1815C92.4493 73.3867 91.406 70.7243 89.7292 68.4728C87.881 66.0207 85.3983 64.1242 82.5512 62.9897C79.9798 61.9453 78.3398 59.5083 78.3795 56.7805C78.4278 53.1748 81.5033 50.2455 85.2341 50.2455H95.9831C96.6674 50.255 97.343 50.0899 97.9464 49.7657C98.5497 49.4414 99.0612 48.9686 99.4327 48.3916C99.7371 47.9168 99.9253 47.3764 99.9819 46.8145C100.038 46.2527 99.9619 45.6854 99.7585 45.159C97.8187 40.0986 93.377 35.5057 87.2531 32.2282Z" fill="url(#paint0_linear_737_4561)"/>
</g>
<path d="M65.0001 65.5186C68.9888 65.5186 72.2223 62.9484 72.2223 59.7779C72.2223 56.6073 68.9888 54.0371 65.0001 54.0371C61.0113 54.0371 57.7778 56.6073 57.7778 59.7779C57.7778 62.9484 61.0113 65.5186 65.0001 65.5186Z" fill="#353680"/>
<path d="M81.5804 66.9863C79.08 62.4979 74.2532 61.722 70.8653 65.0548C69.3382 66.5599 67.2753 67.4729 65.0038 67.4729C62.7324 67.4729 60.6695 66.5532 59.1437 65.0548C55.748 61.722 50.92 62.4979 48.4196 66.9863C47.5065 68.6251 47 70.4262 47 72.3192C47 79.8745 55.0574 86 65 86C74.9426 86 83 79.8745 83 72.3192C83 70.4262 82.4948 68.6251 81.5804 66.9863Z" fill="#B5B6FF"/>
<path d="M84.5434 61.6896C85.8563 63.3442 87.9827 64.3894 90.1649 64.3312C92.2228 64.2778 94.2124 63.2532 95.4568 61.6896C95.8484 61.1968 94.9765 60.7185 94.5887 61.2041C94.6724 61.0997 94.5583 61.2405 94.5038 61.2987C94.4177 61.3934 94.3302 61.4857 94.239 61.5755C93.9643 61.8482 93.664 62.0961 93.3418 62.316C92.393 62.9871 91.2482 63.3559 90.0689 63.3705C88.8896 63.3851 87.7353 63.0447 86.7687 62.3974C86.4308 62.1777 86.1163 61.9269 85.8297 61.6484C85.7207 61.544 85.6168 61.4359 85.5167 61.3242C85.4584 61.2599 85.3418 61.1167 85.4102 61.2028C85.0237 60.7173 84.1519 61.1944 84.5434 61.6884L84.5434 61.6896Z" fill="#0B0B19"/>
<path d="M34.628 56.0354C36.5079 56.9983 38.8762 57.0698 40.8386 56.1137C42.69 55.2133 44.0771 53.4572 44.5629 51.5189C44.7154 50.9081 43.7238 50.8335 43.5717 51.4361C43.6046 51.3064 43.5591 51.4818 43.5336 51.5574C43.4944 51.6793 43.4529 51.7994 43.4071 51.919C43.2698 52.2809 43.099 52.6309 42.8968 52.9644C42.3107 53.968 41.4212 54.7775 40.3537 55.2788C39.2862 55.7802 38.0945 55.948 36.9466 55.7587C36.5482 55.6986 36.158 55.6004 35.7818 55.4655C35.6394 55.4156 35.5001 55.3602 35.3627 55.3C35.283 55.2655 35.1176 55.1834 35.2156 55.2335C34.6628 54.9514 34.0665 55.7466 34.6275 56.0343L34.628 56.0354Z" fill="#0B0B19"/>
<path d="M72.5 75.5C72.5 76.498 71.8232 77.487 70.5461 78.2532C69.2789 79.0135 67.496 79.5 65.5 79.5C63.504 79.5 61.7211 79.0135 60.4539 78.2532C59.1768 77.487 58.5 76.498 58.5 75.5C58.5 74.502 59.1768 73.513 60.4539 72.7468C61.7211 71.9865 63.504 71.5 65.5 71.5C67.496 71.5 69.2789 71.9865 70.5461 72.7468C71.8232 73.513 72.5 74.502 72.5 75.5Z" fill="#6461FB" stroke="black"/>
<circle cx="40" cy="59" r="2" fill="#0B0B19"/>
<circle cx="90" cy="59" r="2" fill="#0B0B19"/>
<defs>
<filter id="filter0_d_737_4561" x="0" y="0" width="130" height="130" filterUnits="userSpaceOnUse" color-interpolation-filters="sRGB">
<feFlood flood-opacity="0" result="BackgroundImageFix"/>
<feColorMatrix in="SourceAlpha" type="matrix" values="0 0 0 0 0 0 0 0 0 0 0 0 0 0 0 0 0 0 127 0" result="hardAlpha"/>
<feOffset dy="3"/>
<feGaussianBlur stdDeviation="15"/>
<feComposite in2="hardAlpha" operator="out"/>
<feColorMatrix type="matrix" values="0 0 0 0 0.416667 0 0 0 0 0.424242 0 0 0 0 1 0 0 0 0.1 0"/>
<feBlend mode="normal" in2="BackgroundImageFix" result="effect1_dropShadow_737_4561"/>
<feBlend mode="normal" in="SourceGraphic" in2="effect1_dropShadow_737_4561" result="shape"/>
</filter>
<linearGradient id="paint0_linear_737_4561" x1="65" y1="27" x2="65" y2="97" gradientUnits="userSpaceOnUse">
<stop stop-color="white"/>
<stop offset="1" stop-color="#F0F0FF"/>
</linearGradient>
</defs>
</svg>
