<svg width="68" height="49" viewBox="0 0 68 49" fill="none" xmlns="http://www.w3.org/2000/svg">
<path fill-rule="evenodd" clip-rule="evenodd" d="M57.12 18.4545C58.6222 18.4545 59.84 17.2823 59.84 15.8363C59.84 14.3903 58.6222 13.2181 57.12 13.2181C55.6178 13.2181 54.4 14.3903 54.4 15.8363C54.4 17.2823 55.6178 18.4545 57.12 18.4545ZM57.12 20.1999C59.6237 20.1999 61.6533 18.2463 61.6533 15.8363C61.6533 13.4263 59.6237 11.4727 57.12 11.4727C54.6163 11.4727 52.5867 13.4263 52.5867 15.8363C52.5867 18.2463 54.6163 20.1999 57.12 20.1999Z" fill="#6A6CFF"/>
<path fill-rule="evenodd" clip-rule="evenodd" d="M58.9333 7.10874H9.06667C5.06076 7.10874 1.81333 10.2346 1.81333 14.0906V40.2724C1.81333 44.1283 5.06076 47.2542 9.06667 47.2542H58.9333C62.9392 47.2542 66.1867 44.1283 66.1867 40.2724V14.0906C66.1867 10.2346 62.9392 7.10874 58.9333 7.10874ZM9.06667 5.36328C4.05929 5.36328 0 9.27061 0 14.0906V40.2724C0 45.0923 4.05928 48.9996 9.06667 48.9996H58.9333C63.9407 48.9996 68 45.0923 68 40.2724V14.0906C68 9.27061 63.9407 5.36328 58.9333 5.36328H9.06667Z" fill="#6A6CFF"/>
<path fill-rule="evenodd" clip-rule="evenodd" d="M34 35.9087C39.2577 35.9087 43.52 31.806 43.52 26.745C43.52 21.6841 39.2577 17.5814 34 17.5814C28.7422 17.5814 24.48 21.6841 24.48 26.745C24.48 31.806 28.7422 35.9087 34 35.9087ZM34 37.6541C40.2592 37.6541 45.3333 32.77 45.3333 26.745C45.3333 20.7201 40.2592 15.8359 34 15.8359C27.7407 15.8359 22.6666 20.7201 22.6666 26.745C22.6666 32.77 27.7407 37.6541 34 37.6541Z" fill="#6A6CFF"/>
<path fill-rule="evenodd" clip-rule="evenodd" d="M34.4533 1.87241C32.4504 1.87241 30.8266 3.43534 30.8266 5.36332H29.0133C29.0133 2.47135 31.4489 0.126953 34.4533 0.126953C37.4577 0.126953 39.8933 2.47135 39.8933 5.36332H38.08C38.08 3.43534 36.4563 1.87241 34.4533 1.87241Z" fill="#6A6CFF"/>
</svg>
