<svg width="35" height="35" viewBox="0 0 35 35" fill="none" xmlns="http://www.w3.org/2000/svg">
<path d="M17.506 4.21042C16.298 4.21042 15.3146 3.32065 15.3146 2.22728C15.3146 1.13391 16.298 0.244141 17.506 0.244141C18.7141 0.244141 19.6981 1.13391 19.6981 2.22728C19.6981 3.32065 18.7147 4.21042 17.506 4.21042ZM17.506 0.905188C16.7004 0.905188 16.0449 1.50013 16.0449 2.22728C16.0449 2.95443 16.7004 3.54938 17.506 3.54938C18.3116 3.54938 18.9672 2.95443 18.9672 2.22728C18.9672 1.50013 18.3123 0.905188 17.506 0.905188Z" fill="#6A6CFF"/>
<path d="M17.506 3.95919C17.4538 3.95919 17.4009 3.95921 17.3487 3.95392L17.2648 3.9473L17.2291 3.94333C17.2007 3.94002 17.2589 3.94862 17.2126 3.94333C17.1048 3.92674 16.9981 3.90311 16.8934 3.87259C16.8458 3.85871 16.7989 3.84285 16.752 3.82566L16.678 3.79724C16.7183 3.81311 16.6562 3.78733 16.6436 3.78204C16.5489 3.7383 16.4573 3.68817 16.3693 3.63198C16.329 3.6062 16.2907 3.57844 16.2511 3.55133C16.2444 3.54604 16.2141 3.52291 16.2511 3.55133L16.2253 3.53084L16.1592 3.47466C16.0863 3.41037 16.0179 3.34124 15.9543 3.26774C15.9378 3.24857 15.9226 3.22941 15.9067 3.21024C15.8909 3.19107 15.9068 3.21486 15.9127 3.21816L15.8869 3.18379C15.8579 3.14346 15.8301 3.10182 15.8043 3.05952C15.7785 3.01721 15.7581 2.98019 15.7382 2.9392C15.7263 2.91739 15.7158 2.89491 15.7052 2.8731C15.7006 2.86384 15.6966 2.85393 15.692 2.84402C15.6794 2.81757 15.7045 2.87904 15.688 2.83475C15.6511 2.74231 15.6217 2.64702 15.6001 2.54984C15.5955 2.52868 15.5909 2.50819 15.5869 2.48704C15.5829 2.46589 15.575 2.40969 15.5783 2.43415C15.5816 2.45861 15.575 2.40177 15.5737 2.39185C15.5737 2.36277 15.5691 2.33368 15.5684 2.30459C15.5684 2.25633 15.5684 2.20874 15.5684 2.16115C15.5684 2.13537 15.5684 2.10959 15.573 2.08447C15.573 2.07324 15.573 2.06266 15.573 2.05142C15.573 2.05142 15.5809 1.98532 15.5763 2.01969C15.5717 2.05407 15.5836 1.97606 15.5849 1.96747C15.5889 1.94631 15.5935 1.92516 15.5981 1.90467C15.6094 1.85245 15.6232 1.80022 15.6391 1.74932C15.655 1.69842 15.6695 1.66206 15.686 1.61711C15.7025 1.57216 15.6735 1.6409 15.694 1.5986C15.7065 1.57282 15.7184 1.54704 15.731 1.52192C15.7761 1.43341 15.828 1.34853 15.8863 1.26807L15.9054 1.2423C15.9279 1.21189 15.8823 1.27072 15.9054 1.2423L15.9464 1.19272C15.9808 1.15174 16.0178 1.11207 16.0554 1.07439C16.0931 1.03671 16.1215 1.00829 16.1579 0.97788L16.216 0.928302L16.2418 0.907806C16.2715 0.884008 16.2127 0.92962 16.2418 0.907806C16.325 0.846841 16.412 0.7912 16.5022 0.74122C16.5451 0.717423 16.5887 0.695608 16.6343 0.675116L16.6753 0.656604L16.6879 0.651311C16.6628 0.661888 16.6978 0.647356 16.6998 0.646695L16.7533 0.626199C16.8508 0.590521 16.9506 0.561366 17.052 0.538936C17.1055 0.527037 17.1597 0.517786 17.2139 0.509192C17.2681 0.500598 17.1948 0.509192 17.2423 0.509192C17.2741 0.505887 17.3084 0.502573 17.3375 0.50059C17.4508 0.492657 17.5645 0.492657 17.6778 0.50059C17.7056 0.50059 17.7333 0.504563 17.7611 0.507869L17.7968 0.511839C17.7922 0.511839 17.7604 0.50655 17.7895 0.511839C17.8477 0.520432 17.9058 0.531008 17.9633 0.543568C18.0647 0.566087 18.1645 0.595241 18.262 0.630831L18.336 0.659913C18.2957 0.643387 18.3585 0.669827 18.3704 0.675116C18.418 0.69693 18.4649 0.720732 18.5112 0.745852C18.6014 0.795832 18.6884 0.851472 18.7715 0.912437C18.7947 0.928964 18.7715 0.909126 18.7649 0.906482L18.7907 0.926978L18.8489 0.975895C18.8872 1.00895 18.9242 1.04199 18.9599 1.07967C18.9956 1.11735 19.026 1.15173 19.0623 1.19007C19.0762 1.20594 19.0894 1.22313 19.1033 1.23899C19.1337 1.27535 19.1099 1.24758 19.1033 1.23899L19.1291 1.27337C19.1873 1.35383 19.2393 1.43869 19.2844 1.5272C19.2956 1.54901 19.3062 1.57149 19.3168 1.5933L19.33 1.6224C19.33 1.6191 19.3148 1.58537 19.3253 1.61181C19.3452 1.66139 19.3637 1.71163 19.3795 1.76254C19.3954 1.81344 19.4046 1.85112 19.4152 1.89474C19.4205 1.9192 19.4258 1.94367 19.4304 1.96813C19.4304 1.98069 19.4423 2.04547 19.439 2.02035C19.4357 1.99523 19.4436 2.06265 19.4443 2.07389C19.4443 2.09967 19.4483 2.1248 19.4489 2.15058C19.4516 2.20211 19.4516 2.25372 19.4489 2.30525C19.4489 2.35219 19.443 2.39913 19.4377 2.44673C19.4436 2.39649 19.4377 2.45994 19.4324 2.47647C19.4271 2.50489 19.4212 2.53332 19.4152 2.56109C19.3936 2.65458 19.3649 2.74629 19.3293 2.83541C19.3128 2.8797 19.3293 2.84401 19.3293 2.83541C19.3247 2.84467 19.3207 2.85458 19.3161 2.8645C19.3055 2.88631 19.2949 2.90879 19.2837 2.9306C19.2612 2.97489 19.2368 3.01786 19.211 3.06281C19.1852 3.10776 19.1575 3.14677 19.1284 3.1871C19.1191 3.19966 19.0894 3.238 19.1152 3.20495C19.098 3.22742 19.0795 3.24924 19.061 3.27105C18.9951 3.34747 18.9237 3.41904 18.8475 3.48523L18.798 3.52687L18.7636 3.55464C18.7636 3.55464 18.7927 3.53216 18.7702 3.54869C18.7286 3.57909 18.687 3.60885 18.6433 3.63595C18.5554 3.69214 18.4638 3.74227 18.3691 3.78601C18.3585 3.79064 18.2924 3.8184 18.3347 3.80121L18.2686 3.82566C18.2151 3.84615 18.1603 3.86401 18.1054 3.87987C18.0043 3.90853 17.9014 3.93061 17.7975 3.94598H17.7935L17.7578 3.94995L17.6745 3.95721C17.6177 3.96118 17.5609 3.9625 17.504 3.96316C17.4383 3.96316 17.3753 3.98928 17.3288 4.03577C17.2823 4.08226 17.2562 4.14531 17.2562 4.21106C17.2562 4.2768 17.2823 4.33985 17.3288 4.38634C17.3753 4.43283 17.4383 4.45895 17.504 4.45895C18.4814 4.45366 19.4205 3.90697 19.7965 2.98746C19.9722 2.55112 19.9916 2.06743 19.8514 1.61843C19.7038 1.16772 19.4186 0.774681 19.0359 0.494651C18.2429 -0.100292 17.1155 -0.156479 16.2511 0.314848C15.4065 0.777581 14.9056 1.72816 15.1157 2.68337C15.3219 3.61677 16.1784 4.29435 17.1022 4.42722C17.2353 4.44725 17.3695 4.45807 17.504 4.45961C17.5698 4.45961 17.6328 4.43349 17.6793 4.387C17.7257 4.34051 17.7518 4.27746 17.7518 4.21172C17.7518 4.14597 17.7257 4.08292 17.6793 4.03643C17.6328 3.98995 17.5698 3.96383 17.504 3.96383L17.506 3.95919Z" fill="#6A6CFF"/>
<path d="M17.5059 0.653809C16.816 0.659097 16.1604 1.04647 15.8974 1.69694C15.6344 2.34741 15.9047 3.04548 16.44 3.44872C16.9937 3.86518 17.7854 3.90022 18.3875 3.56837C18.9895 3.23653 19.3259 2.57019 19.1805 1.89923C19.0126 1.1377 18.2553 0.659097 17.5079 0.653809C17.4423 0.654327 17.3796 0.680621 17.3332 0.726998C17.2869 0.773375 17.2606 0.836116 17.2601 0.901701C17.2614 0.967023 17.288 1.0293 17.3341 1.0755C17.3803 1.1217 17.4426 1.14824 17.5079 1.14959C17.5449 1.14959 17.5806 1.1496 17.6169 1.1529L17.6764 1.1582C17.685 1.1582 17.7253 1.16481 17.6817 1.1582C17.7507 1.16854 17.8189 1.18355 17.8859 1.20314C17.9229 1.21372 17.9586 1.22562 17.9949 1.23884L18.0366 1.25537C18.0273 1.2514 17.9963 1.2362 18.0366 1.25537C18.1003 1.28516 18.1621 1.31894 18.2216 1.35651C18.2494 1.37436 18.2765 1.39352 18.3036 1.41269C18.2652 1.38493 18.326 1.43121 18.3379 1.44179C18.3897 1.48634 18.4381 1.53473 18.4826 1.58655C18.4939 1.59977 18.5058 1.61365 18.5163 1.62753C18.5104 1.6196 18.4906 1.58985 18.5163 1.62753C18.5322 1.65067 18.5487 1.67381 18.5639 1.69827C18.5791 1.72273 18.5996 1.75841 18.6161 1.79015C18.6227 1.8027 18.6287 1.81527 18.6346 1.82783C18.6406 1.84039 18.6624 1.89724 18.6432 1.84634C18.6649 1.90258 18.6828 1.96023 18.6968 2.01888C18.704 2.05061 18.71 2.08168 18.7146 2.11407C18.7146 2.10349 18.71 2.06449 18.7146 2.11407C18.7146 2.13588 18.7146 2.1577 18.7186 2.18017C18.7225 2.20265 18.7186 2.23901 18.7186 2.2681C18.7186 2.28661 18.7186 2.30444 18.7186 2.32295C18.7186 2.33022 18.7139 2.3765 18.7186 2.34411C18.7232 2.31172 18.7133 2.37452 18.7133 2.37452L18.7054 2.41683C18.6974 2.45121 18.6882 2.48557 18.6776 2.51994C18.669 2.54639 18.6591 2.57283 18.6492 2.59993C18.667 2.55233 18.6492 2.59663 18.6452 2.60853L18.6221 2.65612C18.5921 2.7123 18.5588 2.7666 18.5223 2.81874C18.4965 2.85708 18.5163 2.82733 18.5223 2.81874C18.5117 2.83262 18.4998 2.84651 18.4886 2.85973C18.4674 2.88419 18.4456 2.90798 18.4225 2.93045C18.3994 2.95293 18.3809 2.97079 18.3564 2.98996C18.332 3.00913 18.2659 3.062 18.3055 3.03358C18.2519 3.07249 18.1961 3.10825 18.1383 3.14068C18.1119 3.15456 18.0855 3.16843 18.059 3.18099C18.059 3.18099 17.993 3.21008 18.0267 3.19619C18.0604 3.18231 17.9896 3.21008 17.9824 3.21272C17.9212 3.2347 17.8587 3.25302 17.7954 3.26759C17.761 3.27552 17.7293 3.28148 17.6916 3.28743C17.6539 3.29338 17.728 3.28346 17.687 3.28743L17.6156 3.29337C17.5472 3.29799 17.4785 3.29799 17.4101 3.29337C17.3903 3.29337 17.3704 3.29338 17.3506 3.28875C17.344 3.28875 17.2944 3.28214 17.3242 3.28875C17.3539 3.29536 17.2839 3.28147 17.2872 3.28213C17.264 3.27817 17.2416 3.27354 17.2211 3.26825C17.1613 3.25462 17.1024 3.23762 17.0446 3.21735L16.9911 3.19686C16.9508 3.18165 17.0426 3.22265 16.9779 3.19092C16.9442 3.17505 16.9118 3.15919 16.8781 3.14134C16.8236 3.11089 16.7708 3.07734 16.7202 3.04086C16.6858 3.0164 16.7631 3.07721 16.7096 3.03292L16.6765 3.00516C16.6494 2.98136 16.623 2.95689 16.5972 2.93111C16.5715 2.90533 16.5576 2.89013 16.5391 2.86832C16.5206 2.8465 16.5159 2.84122 16.5047 2.828C16.4803 2.79892 16.5259 2.85775 16.5047 2.828C16.4658 2.77326 16.4305 2.71606 16.399 2.65679C16.3924 2.64423 16.3864 2.63166 16.3805 2.6191C16.3805 2.6191 16.3534 2.553 16.3673 2.59002C16.3811 2.62704 16.3626 2.57746 16.3606 2.57085C16.3547 2.55366 16.3488 2.53713 16.3435 2.52061C16.3242 2.45925 16.3099 2.39649 16.3005 2.33288C16.3084 2.38907 16.3005 2.2952 16.3005 2.27999C16.3005 2.24694 16.3005 2.21389 16.3005 2.18083C16.3005 2.15175 16.3005 2.12332 16.3065 2.09423C16.3018 2.14646 16.3065 2.09887 16.3065 2.08499L16.3164 2.03276C16.3243 1.99795 16.3335 1.96357 16.3441 1.92963C16.3494 1.91311 16.356 1.89658 16.3613 1.87939C16.3666 1.86221 16.3686 1.85956 16.3725 1.84965C16.362 1.87279 16.3607 1.87675 16.3679 1.86022C16.3965 1.79564 16.4303 1.73351 16.469 1.67446L16.4994 1.63084C16.5285 1.58787 16.4756 1.65662 16.5126 1.61365C16.5358 1.58655 16.5589 1.55945 16.584 1.53367C16.6091 1.50789 16.6349 1.48276 16.6613 1.45896C16.6719 1.44904 16.6831 1.43979 16.6944 1.43054C16.7056 1.42128 16.7545 1.38493 16.7122 1.41534C16.7716 1.37166 16.8341 1.33233 16.8992 1.29767C16.9323 1.28048 16.9653 1.26396 16.9997 1.24875C16.9594 1.2666 16.9951 1.24875 16.9997 1.24875L17.0658 1.22562C17.1388 1.20058 17.2137 1.18135 17.2898 1.16811C17.2898 1.16811 17.3625 1.15686 17.3268 1.16149C17.2911 1.16612 17.3684 1.15753 17.377 1.15687C17.4207 1.15357 17.4649 1.15158 17.5092 1.15158C17.5749 1.15158 17.638 1.12546 17.6844 1.07897C17.7309 1.03248 17.757 0.969432 17.757 0.903686C17.757 0.837941 17.7309 0.774891 17.6844 0.728402C17.638 0.681913 17.5749 0.655794 17.5092 0.655794L17.5059 0.653809Z" fill="#6A6CFF"/>
<path d="M17.506 34.751C16.298 34.751 15.3146 33.8612 15.3146 32.7678C15.3146 31.6744 16.298 30.7847 17.506 30.7847C18.7141 30.7847 19.6981 31.6744 19.6981 32.7678C19.6981 33.8612 18.7147 34.751 17.506 34.751ZM17.506 31.4457C16.7004 31.4457 16.0449 32.0407 16.0449 32.7678C16.0449 33.495 16.7004 34.0899 17.506 34.0899C18.3116 34.0899 18.9672 33.495 18.9672 32.7678C18.9672 32.0407 18.3123 31.4457 17.506 31.4457Z" fill="#6A6CFF"/>
<path d="M17.506 34.4992C17.4538 34.4992 17.4009 34.4992 17.3487 34.494L17.2648 34.4873L17.2291 34.4834C17.2007 34.4801 17.2589 34.4887 17.2126 34.4834C17.1048 34.4668 16.9981 34.4431 16.8934 34.4126C16.8458 34.3988 16.7989 34.3829 16.752 34.3657L16.678 34.3373C16.7183 34.3531 16.6562 34.3274 16.6436 34.3221C16.5489 34.2783 16.4573 34.2282 16.3693 34.172C16.329 34.1462 16.2907 34.1185 16.2511 34.0914C16.2444 34.0861 16.2141 34.0629 16.2511 34.0914L16.2253 34.0709L16.1592 34.0147C16.0863 33.9504 16.0179 33.8813 15.9543 33.8078C15.9378 33.7886 15.9226 33.7694 15.9067 33.7503C15.8909 33.7311 15.9068 33.7549 15.9127 33.7582L15.8869 33.7238C15.8579 33.6835 15.8301 33.6419 15.8043 33.5996C15.7785 33.5573 15.7581 33.5202 15.7382 33.4792C15.7263 33.4574 15.7158 33.435 15.7052 33.4131C15.7006 33.4039 15.6966 33.394 15.692 33.3841C15.6794 33.3576 15.7045 33.4191 15.688 33.3748C15.6511 33.2823 15.6217 33.1871 15.6001 33.0899C15.5955 33.0687 15.5909 33.0482 15.5869 33.0271C15.5829 33.0059 15.575 32.9497 15.5783 32.9742C15.5816 32.9987 15.575 32.9418 15.5737 32.9319C15.5737 32.9028 15.5691 32.8737 15.5684 32.8446C15.5684 32.7964 15.5684 32.7488 15.5684 32.7012C15.5684 32.6754 15.5684 32.6496 15.573 32.6245C15.573 32.6133 15.573 32.6027 15.573 32.5915C15.573 32.5915 15.5809 32.5254 15.5763 32.5597C15.5717 32.5941 15.5836 32.5161 15.5849 32.5075C15.5889 32.4864 15.5935 32.4652 15.5981 32.4447C15.6094 32.3925 15.6232 32.3403 15.6391 32.2894C15.655 32.2385 15.6695 32.2021 15.686 32.1571C15.7025 32.1122 15.6735 32.1809 15.694 32.1386C15.7065 32.1129 15.7184 32.0871 15.731 32.062C15.7761 31.9734 15.828 31.8886 15.8863 31.8081L15.9054 31.7823C15.9279 31.7519 15.8823 31.8108 15.9054 31.7823L15.9464 31.7328C15.9808 31.6918 16.0178 31.6521 16.0554 31.6144C16.0931 31.5768 16.1215 31.5483 16.1579 31.5179L16.216 31.4683L16.2418 31.4478C16.2715 31.424 16.2127 31.4697 16.2418 31.4478C16.325 31.3869 16.412 31.3312 16.5022 31.2813C16.5451 31.2575 16.5887 31.2356 16.6343 31.2152L16.6753 31.1966L16.6879 31.1913C16.6628 31.2019 16.6978 31.1874 16.6998 31.1867L16.7533 31.1662C16.8508 31.1306 16.9506 31.1014 17.052 31.079C17.1055 31.0671 17.1597 31.0578 17.2139 31.0492C17.2681 31.0406 17.1948 31.0492 17.2423 31.0492C17.2741 31.0459 17.3084 31.0426 17.3375 31.0406C17.4508 31.0327 17.5645 31.0327 17.6778 31.0406C17.7056 31.0406 17.7333 31.0446 17.7611 31.0479L17.7968 31.0519C17.7922 31.0519 17.7604 31.0466 17.7895 31.0519C17.8477 31.0605 17.9058 31.071 17.9633 31.0836C18.0647 31.1061 18.1645 31.1353 18.262 31.1709L18.336 31.2C18.2957 31.1834 18.3585 31.2099 18.3704 31.2152C18.418 31.237 18.4649 31.2608 18.5112 31.2859C18.6014 31.3359 18.6884 31.3915 18.7715 31.4525C18.7947 31.469 18.7715 31.4492 18.7649 31.4465L18.7907 31.467L18.8489 31.5159C18.8872 31.549 18.9242 31.582 18.9599 31.6197C18.9956 31.6574 19.026 31.6918 19.0623 31.7301C19.0762 31.746 19.0894 31.7632 19.1033 31.779C19.1337 31.8154 19.1099 31.7876 19.1033 31.779L19.1291 31.8134C19.1873 31.8939 19.2393 31.9787 19.2844 32.0672C19.2956 32.0891 19.3062 32.1115 19.3168 32.1333L19.33 32.1624C19.33 32.1591 19.3148 32.1254 19.3253 32.1519C19.3452 32.2014 19.3637 32.2517 19.3795 32.3026C19.3954 32.3535 19.4046 32.3912 19.4152 32.4348C19.4205 32.4592 19.4258 32.4837 19.4304 32.5082C19.4304 32.5207 19.4423 32.5855 19.439 32.5604C19.4357 32.5353 19.4436 32.6027 19.4443 32.6139C19.4443 32.6397 19.4483 32.6648 19.4489 32.6906C19.4516 32.7421 19.4516 32.7938 19.4489 32.8453C19.4489 32.8922 19.443 32.9392 19.4377 32.9868C19.4436 32.9365 19.4377 33 19.4324 33.0165C19.4271 33.0449 19.4212 33.0734 19.4152 33.1011C19.3936 33.1946 19.3649 33.2863 19.3293 33.3755C19.3128 33.4197 19.3293 33.384 19.3293 33.3755C19.3247 33.3847 19.3207 33.3946 19.3161 33.4045C19.3055 33.4263 19.2949 33.4488 19.2837 33.4706C19.2612 33.5149 19.2368 33.5579 19.211 33.6028C19.1852 33.6478 19.1575 33.6868 19.1284 33.7271C19.1191 33.7397 19.0894 33.778 19.1152 33.745C19.098 33.7675 19.0795 33.7893 19.061 33.8111C18.9951 33.8875 18.9237 33.9591 18.8475 34.0253L18.798 34.0669L18.7636 34.0947C18.7636 34.0947 18.7927 34.0722 18.7702 34.0887C18.7286 34.1191 18.687 34.1489 18.6433 34.176C18.5554 34.2322 18.4638 34.2823 18.3691 34.326C18.3585 34.3307 18.2924 34.3584 18.3347 34.3413L18.2686 34.3657C18.2151 34.3862 18.1603 34.404 18.1054 34.4199C18.0043 34.4486 17.9014 34.4707 17.7975 34.486H17.7935L17.7578 34.49L17.6745 34.4972C17.6177 34.5012 17.5609 34.5025 17.504 34.5032C17.4383 34.5032 17.3753 34.5293 17.3288 34.5758C17.2823 34.6223 17.2562 34.6854 17.2562 34.7511C17.2562 34.8168 17.2823 34.8799 17.3288 34.9264C17.3753 34.9729 17.4383 34.999 17.504 34.999C18.4814 34.9937 19.4205 34.447 19.7965 33.5275C19.9722 33.0912 19.9916 32.6075 19.8514 32.1585C19.7038 31.7078 19.4186 31.3147 19.0359 31.0347C18.2429 30.4397 17.1155 30.3836 16.2511 30.8549C15.4065 31.3176 14.9056 32.2682 15.1157 33.2234C15.3219 34.1568 16.1784 34.8344 17.1022 34.9673C17.2353 34.9873 17.3695 34.9981 17.504 34.9997C17.5698 34.9997 17.6328 34.9735 17.6793 34.927C17.7257 34.8806 17.7518 34.8175 17.7518 34.7518C17.7518 34.686 17.7257 34.623 17.6793 34.5765C17.6328 34.53 17.5698 34.5039 17.504 34.5039L17.506 34.4992Z" fill="#6A6CFF"/>
<path d="M17.5059 31.1943C16.816 31.1996 16.1604 31.587 15.8974 32.2375C15.6344 32.8879 15.9047 33.586 16.44 33.9892C16.9937 34.4057 17.7854 34.4407 18.3875 34.1089C18.9895 33.7771 19.3259 33.1107 19.1805 32.4398C19.0126 31.6782 18.2553 31.1996 17.5079 31.1943C17.4423 31.1949 17.3796 31.2211 17.3332 31.2675C17.2869 31.3139 17.2606 31.3766 17.2601 31.4422C17.2614 31.5076 17.288 31.5698 17.3341 31.616C17.3803 31.6622 17.4426 31.6888 17.5079 31.6901C17.5449 31.6901 17.5806 31.6901 17.6169 31.6934L17.6764 31.6987C17.685 31.6987 17.7253 31.7053 17.6817 31.6987C17.7507 31.7091 17.8189 31.7241 17.8859 31.7437C17.9229 31.7542 17.9586 31.7661 17.9949 31.7794L18.0366 31.7959C18.0273 31.7919 17.9963 31.7767 18.0366 31.7959C18.1003 31.8257 18.1621 31.8595 18.2216 31.897C18.2494 31.9149 18.2765 31.934 18.3036 31.9532C18.2652 31.9255 18.326 31.9717 18.3379 31.9823C18.3897 32.0269 18.4381 32.0753 18.4826 32.1271C18.4939 32.1403 18.5058 32.1542 18.5163 32.1681C18.5104 32.1601 18.4906 32.1304 18.5163 32.1681C18.5322 32.1912 18.5487 32.2143 18.5639 32.2388C18.5791 32.2633 18.5996 32.2989 18.6161 32.3307C18.6227 32.3432 18.6287 32.3558 18.6346 32.3684C18.6406 32.3809 18.6624 32.4378 18.6432 32.3869C18.6649 32.4431 18.6828 32.5008 18.6968 32.5594C18.704 32.5911 18.71 32.6222 18.7146 32.6546C18.7146 32.644 18.71 32.605 18.7146 32.6546C18.7146 32.6764 18.7146 32.6982 18.7186 32.7207C18.7225 32.7432 18.7186 32.7795 18.7186 32.8086C18.7186 32.8271 18.7186 32.845 18.7186 32.8635C18.7186 32.8708 18.7139 32.917 18.7186 32.8846C18.7232 32.8522 18.7133 32.915 18.7133 32.915L18.7054 32.9574C18.6974 32.9917 18.6882 33.0261 18.6776 33.0605C18.669 33.0869 18.6591 33.1134 18.6492 33.1405C18.667 33.0929 18.6492 33.1372 18.6452 33.1491L18.6221 33.1967C18.5921 33.2528 18.5588 33.3071 18.5223 33.3593C18.4965 33.3976 18.5163 33.3679 18.5223 33.3593C18.5117 33.3731 18.4998 33.387 18.4886 33.4003C18.4674 33.4247 18.4456 33.4485 18.4225 33.471C18.3994 33.4935 18.3809 33.5113 18.3564 33.5305C18.332 33.5497 18.2659 33.6025 18.3055 33.5741C18.2519 33.613 18.1961 33.6488 18.1383 33.6812C18.1119 33.6951 18.0855 33.709 18.059 33.7215C18.059 33.7215 17.993 33.7506 18.0267 33.7367C18.0604 33.7228 17.9896 33.7506 17.9824 33.7532C17.9212 33.7752 17.8587 33.7936 17.7954 33.8081C17.761 33.8161 17.7293 33.822 17.6916 33.828C17.6539 33.8339 17.728 33.824 17.687 33.828L17.6156 33.8339C17.5472 33.8385 17.4785 33.8385 17.4101 33.8339C17.3903 33.8339 17.3704 33.8339 17.3506 33.8293C17.344 33.8293 17.2944 33.8227 17.3242 33.8293C17.3539 33.8359 17.2839 33.822 17.2872 33.8227C17.264 33.8187 17.2416 33.8141 17.2211 33.8088C17.1613 33.7951 17.1024 33.7782 17.0446 33.7579L16.9911 33.7374C16.9508 33.7222 17.0426 33.7632 16.9779 33.7314C16.9442 33.7156 16.9118 33.6997 16.8781 33.6819C16.8236 33.6514 16.7708 33.6179 16.7202 33.5814C16.6858 33.5569 16.7631 33.6177 16.7096 33.5734L16.6765 33.5457C16.6494 33.5219 16.623 33.4974 16.5972 33.4716C16.5715 33.4459 16.5576 33.4307 16.5391 33.4088C16.5206 33.387 16.5159 33.3818 16.5047 33.3685C16.4803 33.3394 16.5259 33.3983 16.5047 33.3685C16.4658 33.3138 16.4305 33.2566 16.399 33.1973C16.3924 33.1848 16.3864 33.1722 16.3805 33.1596C16.3805 33.1596 16.3534 33.0935 16.3673 33.1305C16.3811 33.1676 16.3626 33.118 16.3606 33.1114C16.3547 33.0942 16.3488 33.0777 16.3435 33.0611C16.3242 32.9998 16.3099 32.937 16.3005 32.8734C16.3084 32.9296 16.3005 32.8357 16.3005 32.8205C16.3005 32.7875 16.3005 32.7544 16.3005 32.7214C16.3005 32.6923 16.3005 32.6638 16.3065 32.6348C16.3018 32.687 16.3065 32.6394 16.3065 32.6255L16.3164 32.5733C16.3243 32.5385 16.3335 32.5041 16.3441 32.4702C16.3494 32.4536 16.356 32.4371 16.3613 32.4199C16.3666 32.4027 16.3686 32.4001 16.3725 32.3902C16.362 32.4133 16.3607 32.4173 16.3679 32.4007C16.3965 32.3362 16.4303 32.274 16.469 32.215L16.4994 32.1714C16.5285 32.1284 16.4756 32.1971 16.5126 32.1542C16.5358 32.1271 16.5589 32.1 16.584 32.0742C16.6091 32.0484 16.6349 32.0233 16.6613 31.9995C16.6719 31.9896 16.6831 31.9803 16.6944 31.9711C16.7056 31.9618 16.7545 31.9255 16.7122 31.9559C16.7716 31.9122 16.8341 31.8729 16.8992 31.8382C16.9323 31.821 16.9653 31.8045 16.9997 31.7893C16.9594 31.8071 16.9951 31.7893 16.9997 31.7893L17.0658 31.7662C17.1388 31.7411 17.2137 31.7219 17.2898 31.7086C17.2898 31.7086 17.3625 31.6974 17.3268 31.702C17.2911 31.7066 17.3684 31.6981 17.377 31.6974C17.4207 31.6941 17.4649 31.6921 17.5092 31.6921C17.5749 31.6921 17.638 31.666 17.6844 31.6195C17.7309 31.573 17.757 31.51 17.757 31.4442C17.757 31.3785 17.7309 31.3154 17.6844 31.2689C17.638 31.2224 17.5749 31.1963 17.5092 31.1963L17.5059 31.1943Z" fill="#6A6CFF"/>
<path d="M29.0234 30.829L28.3936 30.4939C32.7598 23.7875 32.7678 15.3281 28.4134 9.9214C24.8349 5.47916 19.5805 4.69913 17.4875 4.57023L17.5371 3.90918C19.7325 4.04469 25.2446 4.86373 29.0036 9.52808C33.5218 15.145 33.5324 23.9026 29.0234 30.829Z" fill="#6A6CFF"/>
<path d="M29.1483 30.6151L28.5185 30.2793L28.6077 30.6184C30.0515 28.4056 31.056 25.9355 31.5664 23.3429C32.0376 20.905 32.0527 18.3752 31.5194 15.9452C31.0079 13.6176 29.9757 11.4084 28.4478 9.57397C26.9278 7.7508 24.9413 6.38112 22.7446 5.50061C21.1874 4.88082 19.5474 4.49348 17.8775 4.35104C17.7453 4.3398 17.6178 4.32989 17.4876 4.32196L17.7354 4.56985L17.785 3.9088L17.5371 4.15669C18.1906 4.19605 18.841 4.27553 19.4847 4.39468C20.3834 4.55621 21.2685 4.78649 22.132 5.08348C24.3069 5.83377 26.3205 7.04614 27.9323 8.69546C29.6506 10.4545 30.8606 12.6558 31.5221 15.0177C32.1909 17.4041 32.3151 19.9372 31.9622 22.3864C31.5787 25.0108 30.6921 27.5364 29.3512 29.8245C29.1772 30.1211 28.9965 30.4137 28.8093 30.7024C28.6348 30.9708 29.0637 31.2193 29.2369 30.9529C30.7371 28.6539 31.7758 26.085 32.2953 23.3892C32.7731 20.864 32.7777 18.2456 32.214 15.7336C31.6668 13.2977 30.5698 10.9899 28.9527 9.08216C27.3587 7.20082 25.2869 5.78882 23.005 4.87988C21.3854 4.23972 19.6813 3.83889 17.9462 3.68999C17.8101 3.67809 17.6746 3.66818 17.5385 3.65958C17.4023 3.65099 17.3005 3.78056 17.2906 3.90748L17.2411 4.56853C17.2305 4.70801 17.3633 4.80849 17.4889 4.81642C17.7757 4.83449 18.0621 4.86006 18.348 4.89311C18.6698 4.93079 18.9917 4.97839 19.3538 5.04449C20.215 5.19936 21.0629 5.42037 21.8902 5.70554C23.9857 6.43269 25.9214 7.60737 27.4618 9.20909C29.0868 10.8987 30.2235 13.0088 30.8434 15.2636C31.4752 17.5627 31.5822 20.0007 31.2353 22.3567C30.8555 24.8875 29.9941 27.3221 28.6976 29.5284C28.5302 29.8126 28.3566 30.0933 28.1769 30.3705C28.1442 30.4275 28.1353 30.4949 28.152 30.5584C28.1687 30.6218 28.2097 30.6762 28.2661 30.7097L28.8952 31.0448C29.1794 31.1929 29.4298 30.7652 29.1483 30.6151Z" fill="#6A6CFF"/>
<path d="M5.98928 30.8289C1.48028 23.9025 1.48822 15.1449 6.0091 9.53199C9.76803 4.86499 15.2802 4.0453 17.4755 3.91309L17.5251 4.57413C15.4322 4.70304 10.1778 5.48307 6.59924 9.92531C2.24489 15.332 2.25282 23.7914 6.61907 30.4978L5.98928 30.8289Z" fill="#6A6CFF"/>
<path d="M6.20329 30.7036C4.73464 28.4527 3.71578 25.9385 3.20302 23.2999C2.73447 20.854 2.73051 18.3017 3.27637 15.8664C3.80505 13.5019 4.86242 11.249 6.43855 9.40006C7.9823 7.59012 9.9794 6.21184 12.188 5.34058C13.0815 4.98942 14.0023 4.71217 14.9411 4.51162C15.3327 4.42745 15.7266 4.35628 16.1227 4.2981L16.2641 4.27827C16.2694 4.27827 16.346 4.26703 16.2905 4.2743L16.3355 4.26834C16.424 4.25711 16.5126 4.24587 16.5998 4.23595C16.7551 4.2181 16.9111 4.20224 17.0664 4.18836C17.2025 4.17646 17.338 4.16655 17.4741 4.15795L17.2263 3.91006L17.2759 4.57111L17.5237 4.32322C15.9622 4.42101 14.4216 4.73239 12.9446 5.24868C10.7731 6.00822 8.76475 7.22719 7.17144 8.89568C5.50411 10.6408 4.32977 12.8157 3.69205 15.1386C3.03913 17.5151 2.94066 20.0191 3.29554 22.4531C3.68022 25.0387 4.55931 27.5259 5.88476 29.7788C6.05129 30.064 6.22466 30.3447 6.40485 30.621L6.49406 30.2819L5.86427 30.6177C5.58275 30.7678 5.83255 31.1955 6.11473 31.0454L6.74387 30.7102C6.80027 30.6767 6.84123 30.6224 6.85793 30.559C6.87462 30.4955 6.86569 30.4281 6.83308 30.3711C5.42429 28.2124 4.44113 25.8042 3.93656 23.2761C3.47396 20.9228 3.45282 18.4663 3.963 16.1189C4.45269 13.8628 5.43406 11.7065 6.91502 9.92758C8.3841 8.16324 10.3026 6.81669 12.4312 5.96857C13.2967 5.62459 14.1895 5.35394 15.1003 5.15945C15.4753 5.0788 15.8526 5.01049 16.2324 4.95452L16.35 4.93733L16.4201 4.92808L16.4452 4.92477C16.5265 4.9142 16.6071 4.90429 16.6884 4.89503C16.8373 4.87784 16.9862 4.86263 17.1351 4.84941C17.2646 4.83795 17.3946 4.82826 17.525 4.82032C17.6512 4.81239 17.7834 4.71257 17.7728 4.57243L17.7233 3.91138C17.7133 3.78446 17.6175 3.6549 17.4754 3.66349C15.8535 3.76528 14.2529 4.08661 12.7173 4.6187C10.4704 5.39742 8.39467 6.6435 6.72998 8.34768C4.96286 10.157 3.70989 12.4217 3.02327 14.8504C2.32541 17.3181 2.20711 19.9246 2.56067 22.4591C2.94874 25.1474 3.85551 27.7347 5.23051 30.077C5.4041 30.3744 5.58495 30.6673 5.77307 30.9555C5.94886 31.2206 6.37775 30.9727 6.20329 30.7036Z" fill="#6A6CFF"/>
<path d="M33.7001 24.9739L33.0102 24.7558C34.7476 20.2666 34.2242 14.9683 31.7387 11.8713L32.3322 11.4819C34.9478 14.7449 35.5115 20.293 33.7001 24.9739Z" fill="#6A6CFF"/>
<path d="M33.7655 24.7347L33.0763 24.5165L33.2494 24.8213C33.5881 23.9419 33.8438 23.0327 34.0133 22.1057C34.1845 21.18 34.273 20.2409 34.2777 19.2995C34.2812 18.3822 34.1996 17.4664 34.0338 16.5641C33.8815 15.7209 33.6409 14.896 33.3161 14.103C33.0085 13.3407 32.6059 12.6202 32.118 11.9586C32.0519 11.87 31.9859 11.7828 31.9145 11.6942L31.8643 12.0836L32.4551 11.6955L32.155 11.6565C32.1715 11.677 32.1881 11.6975 32.2039 11.7187C32.2105 11.7266 32.2456 11.7709 32.233 11.7557C32.2205 11.7405 32.2403 11.7649 32.2416 11.7663L32.2687 11.8026C32.2852 11.8238 32.3004 11.8449 32.3163 11.8687C32.3775 11.9507 32.4372 12.0338 32.4954 12.1179C32.613 12.2878 32.7253 12.4623 32.8311 12.6395C33.0481 13.002 33.243 13.3772 33.4146 13.7633C33.4358 13.8109 33.4569 13.8578 33.4767 13.9054C33.482 13.9166 33.4866 13.9272 33.4913 13.9384C33.4913 13.9384 33.5071 13.9755 33.4972 13.953C33.4873 13.9305 33.5058 13.9728 33.5078 13.9781C33.5137 13.9933 33.5203 14.0079 33.5263 14.0224C33.5673 14.1229 33.6069 14.2238 33.6452 14.3252C33.7232 14.5301 33.7946 14.737 33.8613 14.9459C33.9965 15.3718 34.1101 15.8042 34.2017 16.2415C34.2488 16.4641 34.2902 16.688 34.3259 16.9132C34.3444 17.0262 34.3616 17.1399 34.3768 17.2536C34.3808 17.2834 34.3768 17.2569 34.3768 17.2536C34.3768 17.2668 34.3808 17.2794 34.3821 17.2919C34.3861 17.3217 34.39 17.3514 34.3933 17.3812C34.4006 17.4407 34.4079 17.5002 34.4145 17.5597C34.466 18.0237 34.4962 18.4898 34.505 18.9578C34.5143 19.4278 34.505 19.8984 34.47 20.3671C34.4537 20.606 34.4317 20.8444 34.4039 21.0824C34.3761 21.3296 34.3517 21.5048 34.3114 21.758C34.158 22.7157 33.9162 23.657 33.5891 24.5701C33.5481 24.6844 33.5051 24.7988 33.4615 24.9118C33.4443 24.9753 33.4528 25.043 33.4852 25.1002C33.5176 25.1574 33.5714 25.1995 33.6347 25.2172C33.698 25.2328 33.7648 25.2234 33.8214 25.1912C33.8781 25.159 33.9203 25.1064 33.9393 25.044C34.2922 24.1253 34.5577 23.1754 34.7323 22.2068C34.9092 21.2387 34.9988 20.2566 35 19.2724C35.0003 18.3162 34.9118 17.3619 34.7357 16.422C34.5736 15.5364 34.3189 14.6703 33.9757 13.838C33.6501 13.037 33.2256 12.28 32.7121 11.5845C32.6425 11.4924 32.5718 11.4013 32.5 11.3114C32.4613 11.2727 32.4109 11.2479 32.3566 11.2408C32.3023 11.2338 32.2473 11.2449 32.2 11.2725L31.6052 11.6611C31.4611 11.7557 31.4525 11.9223 31.555 12.0505C31.5834 12.0855 31.6111 12.1206 31.6389 12.1563L31.6614 12.186L31.7089 12.2521C31.7671 12.3306 31.8239 12.4101 31.8795 12.4908C31.99 12.6507 32.0951 12.8142 32.1947 12.9813C32.4005 13.3257 32.585 13.6825 32.7472 14.0495C32.7663 14.0925 32.7855 14.1361 32.804 14.1817C32.804 14.1883 32.8225 14.2253 32.804 14.1883L32.8172 14.2214C32.8284 14.2472 32.839 14.2729 32.8496 14.2987C32.8884 14.3952 32.9262 14.492 32.9633 14.5889C33.0353 14.7819 33.1027 14.9776 33.1615 15.174C33.2894 15.5796 33.3966 15.9916 33.4827 16.4081C33.527 16.6223 33.5666 16.8378 33.6003 17.054C33.6082 17.1042 33.6162 17.1545 33.6234 17.2054C33.6274 17.2305 33.6307 17.2556 33.6347 17.2807C33.6347 17.2933 33.6347 17.3058 33.6393 17.3184C33.6453 17.3614 33.6353 17.286 33.6393 17.329C33.6538 17.4387 33.6671 17.5491 33.679 17.6595C33.727 18.1002 33.7547 18.5446 33.7622 18.9928C33.7702 19.4463 33.758 19.8991 33.7259 20.3513C33.7096 20.5813 33.6875 20.8111 33.6598 21.0407C33.6532 21.0936 33.6472 21.1472 33.6406 21.2001C33.6367 21.2265 33.6334 21.2529 33.6301 21.2794C33.6267 21.3058 33.6301 21.286 33.6301 21.2794C33.6301 21.2972 33.6248 21.3151 33.6228 21.3323C33.6065 21.4473 33.5891 21.5623 33.5706 21.6773C33.422 22.5933 33.1897 23.4936 32.8767 24.3671C32.837 24.4773 32.7961 24.5875 32.7538 24.6977C32.7042 24.8259 32.8093 24.9621 32.9269 25.0024L33.6162 25.2212C33.6795 25.2379 33.7469 25.2292 33.8038 25.1968C33.8608 25.1644 33.9028 25.111 33.9208 25.048C33.9402 24.9858 33.9349 24.9186 33.906 24.8602C33.877 24.8019 33.8267 24.7569 33.7655 24.7347Z" fill="#6A6CFF"/>
<path d="M1.31242 24.9737C-0.498978 20.2929 0.0647286 14.7447 2.68302 11.4824L3.27383 11.8711C0.788366 14.9681 0.264971 20.2664 2.00235 24.7556L1.31242 24.9737Z" fill="#6A6CFF"/>
<path d="M1.55163 24.9078C1.20243 24.0018 0.93849 23.0652 0.76324 22.1102C0.673364 21.623 0.617191 21.2105 0.572253 20.722C0.528196 20.2478 0.506168 19.7725 0.506168 19.2961C0.506168 18.8268 0.526208 18.3581 0.566299 17.8901C0.576212 17.7744 0.588109 17.6594 0.600665 17.5444L0.620494 17.3784C0.620494 17.3527 0.627103 17.3276 0.629747 17.3018C0.629747 17.2892 0.629744 17.2766 0.63503 17.2641C0.640978 17.2172 0.627103 17.3223 0.638338 17.241C0.669618 17.0144 0.705967 16.7886 0.74738 16.5634C0.906287 15.6933 1.15408 14.8418 1.48687 14.0223C1.49744 13.9965 1.50802 13.9708 1.51925 13.945L1.53115 13.9166C1.55362 13.865 1.57543 13.8141 1.59723 13.7632C1.64019 13.666 1.68513 13.5688 1.72941 13.473C1.8206 13.2826 1.91774 13.0951 2.02084 12.9104C2.2219 12.5489 2.44641 12.2009 2.69292 11.8686C2.722 11.829 2.75174 11.79 2.78148 11.751L2.798 11.7298L2.85417 11.6591L2.55415 11.6981L3.14494 12.0861L3.09472 11.6967C2.58616 12.3354 2.16131 13.0366 1.83051 13.783C1.47937 14.5728 1.21352 15.3978 1.03749 16.2441C0.851233 17.1378 0.749236 18.047 0.732835 18.9597C0.715862 19.898 0.782208 20.836 0.931091 21.7625C1.07947 22.6921 1.31398 23.6059 1.63159 24.492C1.67124 24.603 1.71222 24.7128 1.75452 24.8225L1.92766 24.5178L1.23839 24.7359C1.17575 24.7547 1.12278 24.7969 1.09052 24.8538C1.05826 24.9107 1.04921 24.9779 1.06525 25.0413C1.0833 25.1043 1.1253 25.1577 1.18225 25.1901C1.2392 25.2225 1.30656 25.2312 1.3699 25.2145L2.05917 24.9957C2.17746 24.9587 2.28254 24.8199 2.23231 24.691C1.57264 22.9791 1.23067 21.1612 1.22319 19.3266C1.22055 18.8788 1.23817 18.4317 1.27606 17.9853C1.29501 17.7649 1.31901 17.5446 1.34809 17.3242C1.35206 17.2945 1.34809 17.3209 1.34809 17.3242C1.34809 17.311 1.34809 17.2985 1.35338 17.2859C1.35668 17.2608 1.36065 17.2357 1.36395 17.2105C1.37188 17.1557 1.38047 17.1015 1.38906 17.0466C1.40625 16.9382 1.42409 16.8298 1.44391 16.722C1.59273 15.8899 1.82704 15.0754 2.1431 14.2914L2.17085 14.2253L2.18869 14.181C2.18869 14.1856 2.17614 14.212 2.18869 14.1856C2.20852 14.138 2.22901 14.0911 2.25016 14.0441C2.29179 13.9503 2.33474 13.8577 2.37902 13.7652C2.46713 13.5858 2.55833 13.4095 2.65261 13.2363C2.84256 12.8922 3.05493 12.561 3.28835 12.2448L3.32933 12.1905L3.35642 12.1549L3.36435 12.1443C3.35246 12.1601 3.38682 12.1152 3.39343 12.1073L3.44233 12.0458C3.54476 11.9175 3.53617 11.7509 3.3921 11.6564L2.79734 11.2677C2.74998 11.2404 2.69495 11.2294 2.64073 11.2365C2.58651 11.2435 2.53612 11.2682 2.49731 11.3067C1.96178 11.9783 1.51386 12.7154 1.16437 13.5001C0.795023 14.3292 0.514574 15.1952 0.327733 16.0835C0.131859 17.0149 0.0232355 17.9625 0.00326017 18.9141C-0.0162535 19.8952 0.0518616 20.8761 0.2068 21.8452C0.359378 22.8166 0.602758 23.7716 0.933737 24.6976C0.97471 24.8119 1.01767 24.9256 1.06128 25.0393C1.08034 25.1017 1.12253 25.1543 1.17918 25.1865C1.23583 25.2187 1.30265 25.228 1.36594 25.2125C1.49811 25.1801 1.60252 25.0334 1.55163 24.9078Z" fill="#6A6CFF"/>
<path d="M30.9389 30.3208H4.10834V30.9818H30.9389V30.3208Z" fill="#6A6CFF"/>
<path d="M30.9389 30.7335H5.19744C4.85049 30.7335 4.50024 30.719 4.15395 30.7335H4.10835L4.35617 30.9814V30.3204L4.10835 30.5683H29.8499C30.1961 30.5683 30.5464 30.5835 30.8933 30.5683C30.9085 30.5683 30.9237 30.5683 30.9389 30.5683L30.6911 30.3204V30.9814C30.6911 31.3007 31.1868 31.3014 31.1868 30.9814V30.3204C31.1857 30.2549 31.1593 30.1925 31.1131 30.1462C31.0668 30.0999 31.0044 30.0735 30.9389 30.0725H5.19744C4.84983 30.0725 4.50156 30.0665 4.15395 30.0725H4.10835C4.04289 30.0733 3.98036 30.0997 3.93407 30.146C3.88777 30.1923 3.86139 30.2549 3.86053 30.3204V30.9814C3.86139 31.0469 3.88777 31.1095 3.93407 31.1558C3.98036 31.2021 4.04289 31.2284 4.10835 31.2293H29.8499C30.1975 31.2293 30.5457 31.2359 30.8933 31.2293H30.9389C31.2575 31.2293 31.2581 30.7335 30.9389 30.7335Z" fill="#6A6CFF"/>
</svg>
