<svg width="35" height="35" viewBox="0 0 35 35" fill="none" xmlns="http://www.w3.org/2000/svg">
<path d="M17.5153 31.2324C14.365 31.2324 11.4155 29.5853 9.21051 26.5918C7.04475 23.6525 5.85187 19.7551 5.85187 15.6162C5.85187 11.4773 7.04475 7.57923 9.21051 4.6406C11.4155 1.64776 14.3671 0 17.5153 0C20.6636 0 23.6145 1.64707 25.8195 4.6406C27.9859 7.57923 29.1781 11.4773 29.1781 15.6162C29.1781 19.7551 27.9859 23.6525 25.8195 26.5918C23.6145 29.584 20.665 31.2324 17.5153 31.2324ZM17.5153 1.16667C11.7283 1.16667 7.02069 7.64854 7.02069 15.6162C7.02069 23.5839 11.7283 30.0657 17.5153 30.0657C23.3024 30.0657 28.0093 23.5832 28.0093 15.6162C28.0093 7.64923 23.3017 1.16667 17.5153 1.16667Z" fill="#6A6CFF"/>
<path d="M28.2871 23.3951C27.963 23.3937 27.6407 23.3461 27.33 23.2537L27.6566 22.1357C29.1005 22.5564 30.063 21.4831 30.4817 20.3384C31.2037 18.3756 30.4391 16.8027 29.3528 16.3189C29.2214 16.2585 29.1106 16.1612 29.034 16.0388C28.9573 15.9165 28.9181 15.7744 28.9213 15.6301C28.9244 15.4858 28.9697 15.3456 29.0517 15.2267C29.1336 15.1077 29.2485 15.0153 29.3824 14.9607C31.093 14.2834 32.4584 12.9204 33.2257 11.1231C33.9387 9.45474 34.0198 7.59149 33.4444 6.13933C33.1771 5.44828 32.7536 4.82814 32.207 4.32713C31.6603 3.82613 31.0052 3.4578 30.2927 3.25081C28.5408 2.72306 26.5242 3.12247 24.76 4.34885L24.0924 3.38806C26.155 1.95855 28.5346 1.5008 30.6302 2.13286C31.5097 2.39447 32.318 2.85233 32.994 3.47179C33.6699 4.09124 34.1959 4.85604 34.532 5.70835C35.2285 7.46521 35.1446 9.60502 34.3017 11.5781C33.5255 13.396 32.2157 14.8338 30.567 15.6957C32.0108 16.8514 32.2068 19.031 31.5791 20.7357C31.2477 21.6368 30.6949 22.3862 30.0211 22.8467C29.5131 23.2027 28.9078 23.3942 28.2871 23.3951Z" fill="#6A6CFF"/>
<path d="M6.71393 23.3951C6.09315 23.395 5.48738 23.2045 4.97858 22.8495C4.30547 22.389 3.752 21.6396 3.42061 20.7385C2.79288 19.0338 2.98883 16.8535 4.43336 15.6985C2.78325 14.8338 1.47693 13.3961 0.69794 11.5809C-0.144299 9.60785 -0.228179 7.46804 0.467614 5.71117C0.803596 4.85882 1.32942 4.09392 2.00528 3.47435C2.68115 2.85477 3.48935 2.39677 4.36873 2.135C6.46435 1.50363 8.84738 1.96069 10.9066 3.3902L10.2396 4.35099C8.47473 3.12667 6.45817 2.72726 4.707 3.25295C3.99445 3.46013 3.33935 3.82852 2.79262 4.32949C2.24589 4.83046 1.82225 5.45051 1.55462 6.14147C0.979145 7.59363 1.06096 9.45688 1.77326 11.1252C2.54055 12.9226 3.90464 14.2855 5.6173 14.9629C5.75087 15.0178 5.86551 15.1103 5.94716 15.2293C6.0288 15.3482 6.07393 15.4883 6.07699 15.6325C6.08005 15.7766 6.04093 15.9186 5.96441 16.0408C5.88789 16.1631 5.7773 16.2605 5.64618 16.321C4.55986 16.8048 3.79532 18.3798 4.51792 20.3405C4.93939 21.4852 5.90195 22.5586 7.34235 22.1379L7.67099 23.2579C7.36016 23.3489 7.03788 23.3951 6.71393 23.3951Z" fill="#6A6CFF"/>
<path d="M24.5502 34.9999H10.4796V34.42C10.4796 32.0015 13.5736 30.1074 17.5152 30.1074C21.4569 30.1074 24.5502 32.0015 24.5502 34.42V34.9999ZM11.7543 33.8332H23.2755C22.7488 32.392 20.3245 31.2707 17.5152 31.2707C14.7059 31.2707 12.281 32.3948 11.7543 33.8332Z" fill="#6A6CFF"/>
<path d="M20.6131 21.1574C20.4496 21.1573 20.2886 21.1173 20.1442 21.0408L17.4999 19.6531L14.8563 21.038C14.6901 21.1252 14.5029 21.1643 14.3157 21.1508C14.1285 21.1374 13.9488 21.0719 13.7969 20.9618C13.645 20.8517 13.5271 20.7013 13.4563 20.5278C13.3856 20.3543 13.3649 20.1644 13.3966 19.9798L13.9054 17.0439L11.7658 14.9624C11.6314 14.8316 11.5365 14.666 11.4915 14.4841C11.4466 14.3023 11.4535 14.1115 11.5115 13.9334C11.5696 13.7552 11.6763 13.5968 11.8198 13.4761C11.9632 13.3554 12.1377 13.2771 12.3234 13.2502L15.2798 12.8212L16.6012 10.1448C16.6838 9.97637 16.8122 9.83459 16.9717 9.73567C17.1313 9.63674 17.3155 9.58469 17.5033 9.58546C17.6911 9.58461 17.8754 9.63663 18.035 9.73557C18.1945 9.8345 18.3229 9.97632 18.4054 10.1448L19.7275 12.8212L22.6839 13.2502C22.8696 13.2771 23.0441 13.3554 23.1875 13.4761C23.331 13.5968 23.4377 13.7552 23.4957 13.9334C23.5537 14.1115 23.5607 14.3023 23.5158 14.4841C23.4708 14.666 23.3758 14.8316 23.2415 14.9624L21.1026 17.0439L21.6072 19.9825C21.6318 20.1266 21.6246 20.2742 21.5863 20.4152C21.5479 20.5562 21.4792 20.6871 21.385 20.799C21.2907 20.9108 21.1732 21.0008 21.0407 21.0627C20.9081 21.1246 20.7636 21.1569 20.6172 21.1574H20.6131ZM12.815 14.3578L14.7786 16.2684C14.8955 16.3819 14.9829 16.5222 15.0334 16.6771C15.0838 16.8319 15.0957 16.9967 15.068 17.1571L14.6046 19.8549L17.0316 18.5811C17.1761 18.5054 17.3367 18.4658 17.4999 18.4658C17.663 18.4658 17.8237 18.5054 17.9681 18.5811L20.3958 19.8549L19.9317 17.1564C19.9042 16.9961 19.9162 16.8315 19.9666 16.6768C20.017 16.5221 20.1044 16.3819 20.2212 16.2684L22.1848 14.3578L19.4745 13.9639C19.3133 13.9404 19.1602 13.8782 19.0285 13.7825C18.8967 13.6869 18.7902 13.5607 18.7182 13.4149L17.504 10.9601L16.2905 13.4149C16.2183 13.5606 16.1118 13.6867 15.9801 13.7824C15.8484 13.878 15.6953 13.9403 15.5342 13.9639L12.815 14.3578Z" fill="#6A6CFF"/>
</svg>
