<svg width="35" height="35" viewBox="0 0 35 35" fill="none" xmlns="http://www.w3.org/2000/svg">
<g clip-path="url(#clip0_844_2660)">
<path d="M17.5001 35.0018C13.4512 35.0019 9.52755 33.598 6.39769 31.0294C3.26783 28.4608 1.12544 24.8864 0.335551 20.9153C-0.454336 16.9442 0.15716 12.822 2.06585 9.25123C3.97453 5.68043 7.06231 2.88191 10.8031 1.33253C14.5438 -0.216851 18.706 -0.421245 22.5806 0.754194C26.4551 1.92963 29.8022 4.41217 32.0516 7.77879C34.3009 11.1454 35.3133 15.1878 34.9163 19.2172C34.5193 23.2466 32.7374 27.0137 29.8742 29.8766C28.2529 31.5065 26.3245 32.7987 24.2005 33.6785C22.0765 34.5582 19.7991 35.008 17.5001 35.0018ZM17.5001 1.14828C13.7168 1.14871 10.0506 2.46095 7.12636 4.86142C4.20207 7.26188 2.20058 10.6021 1.46293 14.3128C0.725281 18.0235 1.2971 21.8752 3.08097 25.2116C4.86483 28.548 7.75036 31.1627 11.2459 32.61C14.7414 34.0574 18.6307 34.248 22.251 33.1493C25.8713 32.0506 28.9986 29.7305 31.1001 26.5845C33.2016 23.4385 34.1472 19.6612 33.7759 15.8961C33.4046 12.131 31.7392 8.61119 29.0636 5.93633C27.5484 4.41341 25.7463 3.20608 23.7614 2.38421C21.7765 1.56235 19.6484 1.14227 17.5001 1.14828V1.14828Z" fill="#5547F2"/>
<path d="M17.5336 25.9972C15.8464 25.9972 14.1971 25.4969 12.7942 24.5595C11.3913 23.6221 10.2979 22.2898 9.65218 20.731C9.00651 19.1722 8.83756 17.4569 9.16673 15.8021C9.49589 14.1473 10.3084 12.6272 11.5014 11.4342C12.6945 10.2411 14.2145 9.42863 15.8694 9.09947C17.5242 8.77031 19.2394 8.93924 20.7982 9.58492C22.3571 10.2306 23.6894 11.324 24.6268 12.7269C25.5641 14.1298 26.0645 15.7792 26.0645 17.4664C26.062 19.7281 25.1624 21.8965 23.5631 23.4958C21.9638 25.0951 19.7954 25.9947 17.5336 25.9972V25.9972ZM17.5336 10.082C16.0731 10.082 14.6455 10.5151 13.4311 11.3265C12.2167 12.1379 11.2703 13.2912 10.7114 14.6405C10.1524 15.9898 10.0062 17.4746 10.2911 18.907C10.5761 20.3394 11.2794 21.6552 12.3121 22.6879C13.3448 23.7206 14.6606 24.424 16.093 24.7089C17.5254 24.9938 19.0102 24.8476 20.3595 24.2887C21.7088 23.7298 22.8621 22.7833 23.6735 21.5689C24.4849 20.3546 24.918 18.9269 24.918 17.4664C24.9159 15.5086 24.1372 13.6316 22.7528 12.2472C21.3685 10.8628 19.4914 10.0841 17.5336 10.082V10.082Z" fill="#5547F2"/>
<path d="M13.9365 16.1037L14.7707 17.3021L16.0979 19.2092L16.4 19.6435C16.453 19.7303 16.5247 19.8043 16.6098 19.8599C16.695 19.9156 16.7915 19.9515 16.8923 19.9652C17.0838 19.9915 17.3306 19.9429 17.4587 19.7797L17.7636 19.3933L18.591 18.3406L19.8157 16.7835L21.3101 14.8838L22.9468 12.8027L24.599 10.702L26.1393 8.74297L27.4415 7.08738L28.3775 5.8971L28.8213 5.33265L28.8401 5.30905C28.9555 5.16203 29.0377 5.02649 29.0377 4.8316C29.0364 4.65302 28.9655 4.48199 28.8401 4.35481C28.7135 4.22865 28.5421 4.15763 28.3634 4.15723C28.1975 4.16464 27.9945 4.21792 27.8866 4.35481L27.5824 4.7419L26.7543 5.79459L25.5303 7.3524L24.0366 9.2521L22.3992 11.3312L20.747 13.4319L19.206 15.3909L17.9045 17.0465L16.9658 18.2381C16.8181 18.4263 16.6684 18.6124 16.522 18.8019L16.5032 18.8262L17.5626 18.9611L16.7284 17.7627L15.4012 15.8549L15.0991 15.4213C15.0061 15.2724 14.8624 15.1622 14.6945 15.1111C14.5193 15.0642 14.3326 15.0884 14.1752 15.1785C14.0233 15.2681 13.9121 15.4132 13.865 15.5831C13.8266 15.7517 13.8299 15.9547 13.9324 16.1024L13.9365 16.1037Z" fill="#5547F2"/>
</g>
<defs>
<clipPath id="clip0_844_2660">
<rect width="35" height="35" fill="white"/>
</clipPath>
</defs>
</svg>
