<svg width="32" height="32" viewBox="0 0 32 32" fill="none" xmlns="http://www.w3.org/2000/svg">
<g clip-path="url(#clip0_551_6451)">
<path d="M16 19.4271C13.001 19.4271 10.5613 16.9768 10.5613 13.9655C10.5613 10.9542 13.001 8.50391 16 8.50391C18.999 8.50391 21.4394 10.9542 21.4394 13.9655C21.4394 16.9768 19.0015 19.4271 16 19.4271ZM16 9.55208C13.5788 9.55208 11.6094 11.5319 11.6094 13.9655C11.6094 16.3991 13.5788 18.3789 16 18.3789C18.4213 18.3789 20.3913 16.3991 20.3913 13.9655C20.3913 11.5319 18.4213 9.55208 16 9.55208Z" fill="#6A6CFF"/>
<path d="M24.841 28.5008C24.2355 25.8945 23.0332 23.5633 21.4566 21.9374C19.8578 20.2887 17.9699 19.4168 15.9957 19.4168C14.0214 19.4168 12.1415 20.2844 10.5452 21.9257C8.97108 23.5448 7.77061 25.8668 7.15835 28.4613L6.13794 28.2215C6.80014 25.4019 8.06409 22.9714 9.79419 21.1926C11.5921 19.3428 13.7365 18.3662 15.9957 18.3662C18.2548 18.3662 20.4085 19.3478 22.2088 21.2024C23.9414 22.9905 25.2041 25.429 25.862 28.2585L24.841 28.5008Z" fill="#6A6CFF"/>
<path d="M16.0001 31.9998C12.2982 31.9998 8.71085 30.7163 5.84926 28.3678C2.98767 26.0194 1.0289 22.7514 0.306722 19.1207C-0.41546 15.4899 0.143645 11.7211 1.88873 8.45634C3.63382 5.19161 6.45692 2.63297 9.87702 1.21639C13.2971 -0.200184 17.1026 -0.387044 20.6451 0.687644C24.1875 1.76233 27.2477 4.03208 29.3042 7.11014C31.3608 10.1882 32.2864 13.8841 31.9234 17.5681C31.5604 21.2522 29.9313 24.6964 27.3135 27.3139C25.8313 28.8042 24.0682 29.9858 22.1262 30.7902C20.1842 31.5945 18.102 32.0056 16.0001 31.9998ZM16.0001 1.04794C12.5407 1.04821 9.18843 2.248 6.51448 4.44285C3.84054 6.63771 2.01035 9.69182 1.3358 13.0848C0.661258 16.4778 1.18409 19.9997 2.81518 23.0504C4.44627 26.1011 7.0847 28.4919 10.2809 29.8154C13.4771 31.1388 17.0334 31.3131 20.3437 30.3084C23.654 29.3037 26.5135 27.1823 28.435 24.3057C30.3565 21.429 31.2211 17.9751 30.8815 14.5324C30.5418 11.0897 29.019 7.87132 26.5724 5.42559C25.1872 4.03306 23.5395 2.92914 21.7248 2.17771C19.91 1.42628 17.9642 1.04227 16.0001 1.04794Z" fill="#6A6CFF"/>
</g>
<defs>
<clipPath id="clip0_551_6451">
<rect width="32" height="32" fill="white"/>
</clipPath>
</defs>
</svg>
