<svg width="40" height="46" viewBox="0 0 40 46" fill="none" xmlns="http://www.w3.org/2000/svg">
<path d="M8.05 36.52C8.13 36.5733 8.17667 36.6433 8.19 36.73C8.20333 36.81 8.18333 36.89 8.13 36.97C8.08333 37.03 8.02333 37.0633 7.95 37.07C7.87667 37.0767 7.80667 37.0633 7.74 37.03C7.48667 36.8633 7.21333 36.7333 6.92 36.64C6.63333 36.5467 6.32333 36.5 5.99 36.5C5.58333 36.5 5.20333 36.5733 4.85 36.72C4.50333 36.86 4.2 37.0667 3.94 37.34C3.68 37.6067 3.47667 37.9233 3.33 38.29C3.19 38.6567 3.12 39.06 3.12 39.5C3.12 39.9533 3.19333 40.3667 3.34 40.74C3.48667 41.1067 3.69 41.4233 3.95 41.69C4.21667 41.9567 4.52333 42.16 4.87 42.3C5.21667 42.44 5.59 42.51 5.99 42.51C6.31667 42.51 6.62333 42.4633 6.91 42.37C7.20333 42.2767 7.47667 42.15 7.73 41.99C7.79667 41.95 7.86667 41.9367 7.94 41.95C8.02 41.9567 8.08333 41.9933 8.13 42.06C8.19 42.1333 8.21 42.2133 8.19 42.3C8.17667 42.38 8.13333 42.4433 8.06 42.49C7.89333 42.5967 7.69667 42.6967 7.47 42.79C7.24333 42.8833 7.00333 42.9567 6.75 43.01C6.49667 43.07 6.24333 43.1 5.99 43.1C5.51 43.1 5.06 43.0133 4.64 42.84C4.22 42.6667 3.84667 42.4233 3.52 42.11C3.19333 41.79 2.93667 41.41 2.75 40.97C2.57 40.53 2.48 40.04 2.48 39.5C2.48 38.98 2.57 38.5033 2.75 38.07C2.93 37.63 3.18 37.25 3.5 36.93C3.82 36.61 4.19333 36.36 4.62 36.18C5.04667 36 5.50333 35.91 5.99 35.91C6.37 35.91 6.73667 35.9633 7.09 36.07C7.44333 36.1767 7.76333 36.3267 8.05 36.52ZM13.4732 37.89C13.5599 37.89 13.6299 37.92 13.6832 37.98C13.7432 38.04 13.7732 38.1133 13.7732 38.2V42.7C13.7732 42.78 13.7432 42.85 13.6832 42.91C13.6232 42.97 13.5532 43 13.4732 43C13.3799 43 13.3065 42.97 13.2532 42.91C13.1999 42.85 13.1732 42.78 13.1732 42.7V41.51L13.3432 41.43C13.3432 41.6167 13.2899 41.8067 13.1832 42C13.0832 42.1933 12.9432 42.3733 12.7632 42.54C12.5832 42.7067 12.3699 42.8433 12.1232 42.95C11.8832 43.05 11.6199 43.1 11.3332 43.1C10.8865 43.1 10.4832 42.9833 10.1232 42.75C9.76987 42.5167 9.48987 42.1967 9.2832 41.79C9.0832 41.3833 8.9832 40.9267 8.9832 40.42C8.9832 39.9 9.08654 39.4433 9.2932 39.05C9.49987 38.65 9.77987 38.3367 10.1332 38.11C10.4865 37.8833 10.8832 37.77 11.3232 37.77C11.6099 37.77 11.8765 37.82 12.1232 37.92C12.3765 38.02 12.5965 38.1567 12.7832 38.33C12.9699 38.5033 13.1165 38.7033 13.2232 38.93C13.3299 39.15 13.3832 39.38 13.3832 39.62L13.1732 39.47V38.2C13.1732 38.1133 13.1999 38.04 13.2532 37.98C13.3065 37.92 13.3799 37.89 13.4732 37.89ZM11.3932 42.54C11.7465 42.54 12.0599 42.45 12.3332 42.27C12.6065 42.0833 12.8199 41.83 12.9732 41.51C13.1332 41.1833 13.2132 40.82 13.2132 40.42C13.2132 40.0267 13.1332 39.6733 12.9732 39.36C12.8199 39.0467 12.6065 38.7967 12.3332 38.61C12.0599 38.4233 11.7465 38.33 11.3932 38.33C11.0465 38.33 10.7332 38.42 10.4532 38.6C10.1799 38.78 9.9632 39.0267 9.8032 39.34C9.64987 39.6533 9.5732 40.0133 9.5732 40.42C9.5732 40.82 9.64987 41.1833 9.8032 41.51C9.95654 41.83 10.1699 42.0833 10.4432 42.27C10.7232 42.45 11.0399 42.54 11.3932 42.54ZM17.7688 37.85C18.2222 37.85 18.6222 37.9633 18.9688 38.19C19.3222 38.41 19.6022 38.7167 19.8088 39.11C20.0155 39.4967 20.1188 39.9433 20.1188 40.45C20.1188 40.9567 20.0155 41.4067 19.8088 41.8C19.6022 42.1933 19.3222 42.5033 18.9688 42.73C18.6155 42.9567 18.2188 43.07 17.7788 43.07C17.5455 43.07 17.3222 43.0367 17.1088 42.97C16.9022 42.8967 16.7122 42.8 16.5388 42.68C16.3655 42.56 16.2122 42.42 16.0788 42.26C15.9455 42.0933 15.8388 41.9133 15.7588 41.72L15.9388 41.59V44.7C15.9388 44.78 15.9088 44.85 15.8488 44.91C15.7955 44.97 15.7255 45 15.6388 45C15.5522 45 15.4788 44.97 15.4188 44.91C15.3655 44.85 15.3388 44.78 15.3388 44.7V38.18C15.3388 38.0933 15.3655 38.02 15.4188 37.96C15.4722 37.9 15.5455 37.87 15.6388 37.87C15.7255 37.87 15.7955 37.9 15.8488 37.96C15.9088 38.02 15.9388 38.0933 15.9388 38.18V39.26L15.7988 39.18C15.8655 38.9733 15.9622 38.79 16.0888 38.63C16.2222 38.4633 16.3755 38.3233 16.5488 38.21C16.7222 38.09 16.9122 38 17.1188 37.94C17.3255 37.88 17.5422 37.85 17.7688 37.85ZM17.7188 38.41C17.3588 38.41 17.0422 38.5 16.7688 38.68C16.4955 38.8533 16.2788 39.0933 16.1188 39.4C15.9655 39.7 15.8888 40.05 15.8888 40.45C15.8888 40.8433 15.9655 41.1967 16.1188 41.51C16.2788 41.8233 16.4955 42.07 16.7688 42.25C17.0422 42.4233 17.3588 42.51 17.7188 42.51C18.0722 42.51 18.3822 42.4233 18.6488 42.25C18.9222 42.07 19.1388 41.8233 19.2988 41.51C19.4588 41.1967 19.5388 40.8433 19.5388 40.45C19.5388 40.0567 19.4588 39.7067 19.2988 39.4C19.1388 39.0933 18.9222 38.8533 18.6488 38.68C18.3822 38.5 18.0722 38.41 17.7188 38.41ZM21.0245 37.91H23.3545C23.4345 37.91 23.5011 37.94 23.5545 38C23.6078 38.0533 23.6345 38.12 23.6345 38.2C23.6345 38.2733 23.6078 38.3367 23.5545 38.39C23.5011 38.4433 23.4345 38.47 23.3545 38.47H21.0245C20.9445 38.47 20.8745 38.4433 20.8145 38.39C20.7611 38.33 20.7345 38.2633 20.7345 38.19C20.7345 38.11 20.7611 38.0433 20.8145 37.99C20.8745 37.9367 20.9445 37.91 21.0245 37.91ZM22.0545 36.5C22.1411 36.5 22.2111 36.53 22.2645 36.59C22.3245 36.65 22.3545 36.72 22.3545 36.8V41.82C22.3545 42.0067 22.3778 42.1467 22.4245 42.24C22.4778 42.3333 22.5445 42.3967 22.6245 42.43C22.7045 42.4567 22.7845 42.47 22.8645 42.47C22.9178 42.47 22.9645 42.4633 23.0045 42.45C23.0511 42.43 23.1011 42.42 23.1545 42.42C23.2145 42.42 23.2645 42.4433 23.3045 42.49C23.3511 42.5367 23.3745 42.5967 23.3745 42.67C23.3745 42.7633 23.3211 42.8433 23.2145 42.91C23.1078 42.97 22.9811 43 22.8345 43C22.7745 43 22.6845 42.9967 22.5645 42.99C22.4445 42.9767 22.3211 42.94 22.1945 42.88C22.0678 42.8133 21.9611 42.7 21.8745 42.54C21.7945 42.38 21.7545 42.15 21.7545 41.85V36.8C21.7545 36.72 21.7811 36.65 21.8345 36.59C21.8945 36.53 21.9678 36.5 22.0545 36.5ZM28.5631 37.92C28.6498 37.92 28.7198 37.95 28.7731 38.01C28.8331 38.07 28.8631 38.14 28.8631 38.22V41.04C28.8631 41.7 28.6765 42.2033 28.3031 42.55C27.9298 42.8967 27.4265 43.07 26.7931 43.07C26.1665 43.07 25.6665 42.8967 25.2931 42.55C24.9265 42.2033 24.7431 41.7 24.7431 41.04V38.22C24.7431 38.14 24.7698 38.07 24.8231 38.01C24.8831 37.95 24.9565 37.92 25.0431 37.92C25.1298 37.92 25.1998 37.95 25.2531 38.01C25.3131 38.07 25.3431 38.14 25.3431 38.22V41.04C25.3431 41.52 25.4698 41.8867 25.7231 42.14C25.9831 42.3867 26.3398 42.51 26.7931 42.51C27.2531 42.51 27.6131 42.3867 27.8731 42.14C28.1331 41.8867 28.2631 41.52 28.2631 41.04V38.22C28.2631 38.14 28.2898 38.07 28.3431 38.01C28.3965 37.95 28.4698 37.92 28.5631 37.92ZM30.7365 43C30.6432 43 30.5698 42.97 30.5165 42.91C30.4632 42.85 30.4365 42.78 30.4365 42.7V38.22C30.4365 38.14 30.4632 38.07 30.5165 38.01C30.5765 37.95 30.6498 37.92 30.7365 37.92C30.8232 37.92 30.8932 37.95 30.9465 38.01C31.0065 38.07 31.0365 38.14 31.0365 38.22V39.72L30.8865 39.75C30.9065 39.5167 30.9632 39.2867 31.0565 39.06C31.1565 38.8267 31.2898 38.6133 31.4565 38.42C31.6232 38.2267 31.8198 38.07 32.0465 37.95C32.2798 37.83 32.5398 37.77 32.8265 37.77C32.9465 37.77 33.0632 37.7967 33.1765 37.85C33.2898 37.8967 33.3465 37.9767 33.3465 38.09C33.3465 38.19 33.3198 38.2667 33.2665 38.32C33.2132 38.3733 33.1498 38.4 33.0765 38.4C33.0165 38.4 32.9498 38.3833 32.8765 38.35C32.8098 38.3167 32.7198 38.3 32.6065 38.3C32.4198 38.3 32.2332 38.3567 32.0465 38.47C31.8598 38.5767 31.6898 38.7233 31.5365 38.91C31.3832 39.0967 31.2598 39.3067 31.1665 39.54C31.0798 39.7667 31.0365 39.9967 31.0365 40.23V42.7C31.0365 42.78 31.0065 42.85 30.9465 42.91C30.8865 42.97 30.8165 43 30.7365 43ZM36.3295 43.1C35.8162 43.1 35.3629 42.99 34.9695 42.77C34.5762 42.55 34.2695 42.2433 34.0495 41.85C33.8295 41.4567 33.7195 40.9967 33.7195 40.47C33.7195 39.9033 33.8295 39.42 34.0495 39.02C34.2762 38.62 34.5662 38.3133 34.9195 38.1C35.2795 37.88 35.6595 37.77 36.0595 37.77C36.3529 37.77 36.6362 37.8233 36.9095 37.93C37.1895 38.03 37.4362 38.1833 37.6495 38.39C37.8629 38.59 38.0362 38.8367 38.1695 39.13C38.3029 39.4233 38.3729 39.7633 38.3795 40.15C38.3795 40.23 38.3495 40.3 38.2895 40.36C38.2295 40.4133 38.1595 40.44 38.0795 40.44H34.0695L33.9495 39.9H37.8895L37.7595 40.02V39.82C37.7262 39.5067 37.6229 39.24 37.4495 39.02C37.2762 38.8 37.0662 38.6333 36.8195 38.52C36.5795 38.4067 36.3262 38.35 36.0595 38.35C35.8595 38.35 35.6529 38.39 35.4395 38.47C35.2329 38.55 35.0429 38.6767 34.8695 38.85C34.7029 39.0167 34.5662 39.2333 34.4595 39.5C34.3529 39.76 34.2995 40.07 34.2995 40.43C34.2995 40.8233 34.3795 41.18 34.5395 41.5C34.6995 41.82 34.9295 42.0733 35.2295 42.26C35.5295 42.4467 35.8929 42.54 36.3195 42.54C36.5462 42.54 36.7529 42.5067 36.9395 42.44C37.1262 42.3733 37.2895 42.2867 37.4295 42.18C37.5762 42.0667 37.6962 41.95 37.7895 41.83C37.8629 41.77 37.9329 41.74 37.9995 41.74C38.0729 41.74 38.1329 41.7667 38.1795 41.82C38.2329 41.8733 38.2595 41.9333 38.2595 42C38.2595 42.08 38.2262 42.15 38.1595 42.21C37.9595 42.45 37.6995 42.66 37.3795 42.84C37.0595 43.0133 36.7095 43.1 36.3295 43.1Z" fill="#6A6CFF"/>
<path fill-rule="evenodd" clip-rule="evenodd" d="M33.6 11.1816C34.4837 11.1816 35.2 10.4978 35.2 9.65434C35.2 8.81085 34.4837 8.12707 33.6 8.12707C32.7164 8.12707 32 8.81085 32 9.65434C32 10.4978 32.7164 11.1816 33.6 11.1816ZM33.6 12.1998C35.0728 12.1998 36.2667 11.0602 36.2667 9.65434C36.2667 8.24853 35.0728 7.10889 33.6 7.10889C32.1273 7.10889 30.9333 8.24853 30.9333 9.65434C30.9333 11.0602 32.1273 12.1998 33.6 12.1998Z" fill="#6A6CFF"/>
<path fill-rule="evenodd" clip-rule="evenodd" d="M34.6667 4.56359H5.33333C2.97692 4.56359 1.06667 6.38701 1.06667 8.63632V23.909C1.06667 26.1584 2.97692 27.9818 5.33333 27.9818H34.6667C37.0231 27.9818 38.9333 26.1584 38.9333 23.909V8.63632C38.9333 6.38701 37.0231 4.56359 34.6667 4.56359ZM5.33333 3.54541C2.38782 3.54541 0 5.82469 0 8.63632V23.909C0 26.7207 2.38781 29 5.33333 29H34.6667C37.6122 29 40 26.7207 40 23.909V8.63632C40 5.82469 37.6122 3.54541 34.6667 3.54541H5.33333Z" fill="#6A6CFF"/>
<path fill-rule="evenodd" clip-rule="evenodd" d="M20 21.3634C23.0928 21.3634 25.6 18.9701 25.6 16.0179C25.6 13.0657 23.0928 10.6725 20 10.6725C16.9072 10.6725 14.4 13.0657 14.4 16.0179C14.4 18.9701 16.9072 21.3634 20 21.3634ZM20 22.3816C23.6819 22.3816 26.6666 19.5325 26.6666 16.0179C26.6666 12.5034 23.6819 9.6543 20 9.6543C16.3181 9.6543 13.3333 12.5034 13.3333 16.0179C13.3333 19.5325 16.3181 22.3816 20 22.3816Z" fill="#6A6CFF"/>
<path fill-rule="evenodd" clip-rule="evenodd" d="M20.2666 1.5089C19.0884 1.5089 18.1333 2.42062 18.1333 3.54527H17.0667C17.0667 1.85829 18.4993 0.490723 20.2666 0.490723C22.034 0.490723 23.4666 1.85829 23.4666 3.54527H22.4C22.4 2.42062 21.4449 1.5089 20.2666 1.5089Z" fill="#6A6CFF"/>
<path fill-rule="evenodd" clip-rule="evenodd" d="M33.6 11.1816C34.4837 11.1816 35.2 10.4978 35.2 9.65434C35.2 8.81085 34.4837 8.12707 33.6 8.12707C32.7164 8.12707 32 8.81085 32 9.65434C32 10.4978 32.7164 11.1816 33.6 11.1816ZM33.6 12.1998C35.0728 12.1998 36.2667 11.0602 36.2667 9.65434C36.2667 8.24853 35.0728 7.10889 33.6 7.10889C32.1273 7.10889 30.9333 8.24853 30.9333 9.65434C30.9333 11.0602 32.1273 12.1998 33.6 12.1998Z" fill="#6A6CFF"/>
<path fill-rule="evenodd" clip-rule="evenodd" d="M34.6667 4.56359H5.33333C2.97692 4.56359 1.06667 6.38701 1.06667 8.63632V23.909C1.06667 26.1584 2.97692 27.9818 5.33333 27.9818H34.6667C37.0231 27.9818 38.9333 26.1584 38.9333 23.909V8.63632C38.9333 6.38701 37.0231 4.56359 34.6667 4.56359ZM5.33333 3.54541C2.38782 3.54541 0 5.82469 0 8.63632V23.909C0 26.7207 2.38781 29 5.33333 29H34.6667C37.6122 29 40 26.7207 40 23.909V8.63632C40 5.82469 37.6122 3.54541 34.6667 3.54541H5.33333Z" fill="#6A6CFF"/>
<path fill-rule="evenodd" clip-rule="evenodd" d="M20 21.3634C23.0928 21.3634 25.6 18.9701 25.6 16.0179C25.6 13.0657 23.0928 10.6725 20 10.6725C16.9072 10.6725 14.4 13.0657 14.4 16.0179C14.4 18.9701 16.9072 21.3634 20 21.3634ZM20 22.3816C23.6819 22.3816 26.6666 19.5325 26.6666 16.0179C26.6666 12.5034 23.6819 9.6543 20 9.6543C16.3181 9.6543 13.3333 12.5034 13.3333 16.0179C13.3333 19.5325 16.3181 22.3816 20 22.3816Z" fill="#6A6CFF"/>
<path fill-rule="evenodd" clip-rule="evenodd" d="M20.2666 1.5089C19.0884 1.5089 18.1333 2.42062 18.1333 3.54527H17.0667C17.0667 1.85829 18.4993 0.490723 20.2666 0.490723C22.034 0.490723 23.4666 1.85829 23.4666 3.54527H22.4C22.4 2.42062 21.4449 1.5089 20.2666 1.5089Z" fill="#6A6CFF"/>
</svg>
