<svg width="40" height="44" viewBox="0 0 40 44" fill="none" xmlns="http://www.w3.org/2000/svg">
<path d="M8.08 41.1C7.56667 41.1 7.09 41.01 6.65 40.83C6.21 40.65 5.82667 40.4 5.5 40.08C5.18 39.7533 4.93 39.37 4.75 38.93C4.57 38.49 4.48 38.0133 4.48 37.5C4.48 36.9867 4.57 36.51 4.75 36.07C4.93 35.63 5.18 35.25 5.5 34.93C5.82667 34.6033 6.21 34.35 6.65 34.17C7.09 33.99 7.56667 33.9 8.08 33.9C8.43333 33.9 8.77333 33.9433 9.1 34.03C9.43333 34.11 9.73 34.2333 9.99 34.4C10.0367 34.4333 10.07 34.4733 10.09 34.52C10.1167 34.56 10.13 34.6033 10.13 34.65C10.13 34.7433 10.1 34.82 10.04 34.88C9.98 34.9333 9.91667 34.96 9.85 34.96C9.81667 34.96 9.78333 34.9567 9.75 34.95C9.72333 34.9367 9.69667 34.9233 9.67 34.91C9.44333 34.7833 9.19667 34.6833 8.93 34.61C8.66333 34.5367 8.38 34.5 8.08 34.5C7.50667 34.5 6.99667 34.63 6.55 34.89C6.10333 35.15 5.75333 35.5067 5.5 35.96C5.24667 36.4133 5.12 36.9267 5.12 37.5C5.12 38.0733 5.24667 38.5867 5.5 39.04C5.75333 39.4933 6.10333 39.85 6.55 40.11C6.99667 40.37 7.50667 40.5 8.08 40.5C8.38 40.5 8.68 40.4567 8.98 40.37C9.28667 40.2833 9.55 40.1667 9.77 40.02L9.72 40.23V37.93L9.87 38.07H8.14C8.05333 38.07 7.98 38.04 7.92 37.98C7.86 37.92 7.83 37.85 7.83 37.77C7.83 37.6767 7.86 37.6033 7.92 37.55C7.98 37.4967 8.05333 37.47 8.14 37.47H10.05C10.1367 37.47 10.2067 37.5 10.26 37.56C10.32 37.6133 10.35 37.6833 10.35 37.77V40.18C10.35 40.2333 10.3367 40.2833 10.31 40.33C10.2833 40.3767 10.2467 40.4167 10.2 40.45C9.90667 40.65 9.57667 40.81 9.21 40.93C8.85 41.0433 8.47333 41.1 8.08 41.1ZM16.0298 35.89C16.1165 35.89 16.1865 35.92 16.2398 35.98C16.2998 36.04 16.3298 36.1133 16.3298 36.2V40.7C16.3298 40.78 16.2998 40.85 16.2398 40.91C16.1798 40.97 16.1098 41 16.0298 41C15.9365 41 15.8632 40.97 15.8098 40.91C15.7565 40.85 15.7298 40.78 15.7298 40.7V39.51L15.8998 39.43C15.8998 39.6167 15.8465 39.8067 15.7398 40C15.6398 40.1933 15.4998 40.3733 15.3198 40.54C15.1398 40.7067 14.9265 40.8433 14.6798 40.95C14.4398 41.05 14.1765 41.1 13.8898 41.1C13.4432 41.1 13.0398 40.9833 12.6798 40.75C12.3265 40.5167 12.0465 40.1967 11.8398 39.79C11.6398 39.3833 11.5398 38.9267 11.5398 38.42C11.5398 37.9 11.6432 37.4433 11.8498 37.05C12.0565 36.65 12.3365 36.3367 12.6898 36.11C13.0432 35.8833 13.4398 35.77 13.8798 35.77C14.1665 35.77 14.4332 35.82 14.6798 35.92C14.9332 36.02 15.1532 36.1567 15.3398 36.33C15.5265 36.5033 15.6732 36.7033 15.7798 36.93C15.8865 37.15 15.9398 37.38 15.9398 37.62L15.7298 37.47V36.2C15.7298 36.1133 15.7565 36.04 15.8098 35.98C15.8632 35.92 15.9365 35.89 16.0298 35.89ZM13.9498 40.54C14.3032 40.54 14.6165 40.45 14.8898 40.27C15.1632 40.0833 15.3765 39.83 15.5298 39.51C15.6898 39.1833 15.7698 38.82 15.7698 38.42C15.7698 38.0267 15.6898 37.6733 15.5298 37.36C15.3765 37.0467 15.1632 36.7967 14.8898 36.61C14.6165 36.4233 14.3032 36.33 13.9498 36.33C13.6032 36.33 13.2898 36.42 13.0098 36.6C12.7365 36.78 12.5198 37.0267 12.3598 37.34C12.2065 37.6533 12.1298 38.0133 12.1298 38.42C12.1298 38.82 12.2065 39.1833 12.3598 39.51C12.5132 39.83 12.7265 40.0833 12.9998 40.27C13.2798 40.45 13.5965 40.54 13.9498 40.54ZM18.5555 40.7C18.5555 40.78 18.5255 40.85 18.4655 40.91C18.4055 40.97 18.3355 41 18.2555 41C18.1688 41 18.0955 40.97 18.0355 40.91C17.9821 40.85 17.9555 40.78 17.9555 40.7V33.9C17.9555 33.82 17.9855 33.75 18.0455 33.69C18.1055 33.63 18.1755 33.6 18.2555 33.6C18.3421 33.6 18.4121 33.63 18.4655 33.69C18.5255 33.75 18.5555 33.82 18.5555 33.9V40.7ZM20.8602 40.7C20.8602 40.78 20.8302 40.85 20.7702 40.91C20.7102 40.97 20.6402 41 20.5602 41C20.4735 41 20.4002 40.97 20.3402 40.91C20.2868 40.85 20.2602 40.78 20.2602 40.7V33.9C20.2602 33.82 20.2902 33.75 20.3502 33.69C20.4102 33.63 20.4802 33.6 20.5602 33.6C20.6468 33.6 20.7168 33.63 20.7702 33.69C20.8302 33.75 20.8602 33.82 20.8602 33.9V40.7ZM24.6772 41.1C24.1639 41.1 23.7105 40.99 23.3172 40.77C22.9239 40.55 22.6172 40.2433 22.3972 39.85C22.1772 39.4567 22.0672 38.9967 22.0672 38.47C22.0672 37.9033 22.1772 37.42 22.3972 37.02C22.6239 36.62 22.9139 36.3133 23.2672 36.1C23.6272 35.88 24.0072 35.77 24.4072 35.77C24.7005 35.77 24.9839 35.8233 25.2572 35.93C25.5372 36.03 25.7839 36.1833 25.9972 36.39C26.2105 36.59 26.3839 36.8367 26.5172 37.13C26.6505 37.4233 26.7205 37.7633 26.7272 38.15C26.7272 38.23 26.6972 38.3 26.6372 38.36C26.5772 38.4133 26.5072 38.44 26.4272 38.44H22.4172L22.2972 37.9H26.2372L26.1072 38.02V37.82C26.0739 37.5067 25.9705 37.24 25.7972 37.02C25.6239 36.8 25.4139 36.6333 25.1672 36.52C24.9272 36.4067 24.6739 36.35 24.4072 36.35C24.2072 36.35 24.0005 36.39 23.7872 36.47C23.5805 36.55 23.3905 36.6767 23.2172 36.85C23.0505 37.0167 22.9139 37.2333 22.8072 37.5C22.7005 37.76 22.6472 38.07 22.6472 38.43C22.6472 38.8233 22.7272 39.18 22.8872 39.5C23.0472 39.82 23.2772 40.0733 23.5772 40.26C23.8772 40.4467 24.2405 40.54 24.6672 40.54C24.8939 40.54 25.1005 40.5067 25.2872 40.44C25.4739 40.3733 25.6372 40.2867 25.7772 40.18C25.9239 40.0667 26.0439 39.95 26.1372 39.83C26.2105 39.77 26.2805 39.74 26.3472 39.74C26.4205 39.74 26.4805 39.7667 26.5272 39.82C26.5805 39.8733 26.6072 39.9333 26.6072 40C26.6072 40.08 26.5739 40.15 26.5072 40.21C26.3072 40.45 26.0472 40.66 25.7272 40.84C25.4072 41.0133 25.0572 41.1 24.6772 41.1ZM28.2638 41C28.1705 41 28.0972 40.97 28.0438 40.91C27.9905 40.85 27.9638 40.78 27.9638 40.7V36.22C27.9638 36.14 27.9905 36.07 28.0438 36.01C28.1038 35.95 28.1772 35.92 28.2638 35.92C28.3505 35.92 28.4205 35.95 28.4738 36.01C28.5338 36.07 28.5638 36.14 28.5638 36.22V37.72L28.4138 37.75C28.4338 37.5167 28.4905 37.2867 28.5838 37.06C28.6838 36.8267 28.8172 36.6133 28.9838 36.42C29.1505 36.2267 29.3472 36.07 29.5738 35.95C29.8072 35.83 30.0672 35.77 30.3538 35.77C30.4738 35.77 30.5905 35.7967 30.7038 35.85C30.8172 35.8967 30.8738 35.9767 30.8738 36.09C30.8738 36.19 30.8472 36.2667 30.7938 36.32C30.7405 36.3733 30.6772 36.4 30.6038 36.4C30.5438 36.4 30.4772 36.3833 30.4038 36.35C30.3372 36.3167 30.2472 36.3 30.1338 36.3C29.9472 36.3 29.7605 36.3567 29.5738 36.47C29.3872 36.5767 29.2172 36.7233 29.0638 36.91C28.9105 37.0967 28.7872 37.3067 28.6938 37.54C28.6072 37.7667 28.5638 37.9967 28.5638 38.23V40.7C28.5638 40.78 28.5338 40.85 28.4738 40.91C28.4138 40.97 28.3438 41 28.2638 41ZM35.6215 35.8C35.7082 35.8 35.7782 35.83 35.8315 35.89C35.8915 35.95 35.9215 36.02 35.9215 36.1V40.51C35.9215 41.05 35.8148 41.5033 35.6015 41.87C35.3882 42.2433 35.1015 42.5233 34.7415 42.71C34.3815 42.9033 33.9715 43 33.5115 43C33.2248 43 32.9582 42.9667 32.7115 42.9C32.4715 42.84 32.2748 42.76 32.1215 42.66C32.0415 42.6133 31.9815 42.5567 31.9415 42.49C31.9015 42.4233 31.8982 42.3533 31.9315 42.28C31.9648 42.1867 32.0148 42.1233 32.0815 42.09C32.1548 42.0633 32.2282 42.0667 32.3015 42.1C32.4148 42.16 32.5782 42.2333 32.7915 42.32C33.0048 42.4067 33.2482 42.45 33.5215 42.45C33.8882 42.45 34.2048 42.3733 34.4715 42.22C34.7448 42.0667 34.9548 41.8433 35.1015 41.55C35.2482 41.2633 35.3215 40.92 35.3215 40.52V39.8L35.3915 40.04C35.2915 40.2467 35.1482 40.43 34.9615 40.59C34.7815 40.75 34.5715 40.8767 34.3315 40.97C34.0982 41.0567 33.8482 41.1 33.5815 41.1C33.1815 41.1 32.8482 41.02 32.5815 40.86C32.3215 40.6933 32.1282 40.4667 32.0015 40.18C31.8748 39.8933 31.8115 39.5567 31.8115 39.17V36.1C31.8115 36.02 31.8382 35.95 31.8915 35.89C31.9448 35.83 32.0182 35.8 32.1115 35.8C32.1982 35.8 32.2682 35.83 32.3215 35.89C32.3815 35.95 32.4115 36.02 32.4115 36.1V39.08C32.4115 39.5467 32.5115 39.9067 32.7115 40.16C32.9182 40.4133 33.2515 40.54 33.7115 40.54C33.9982 40.54 34.2615 40.4733 34.5015 40.34C34.7415 40.2 34.9382 40.02 35.0915 39.8C35.2448 39.5733 35.3215 39.3333 35.3215 39.08V36.1C35.3215 36.02 35.3482 35.95 35.4015 35.89C35.4615 35.83 35.5348 35.8 35.6215 35.8Z" fill="#6A6CFF"/>
<path fill-rule="evenodd" clip-rule="evenodd" d="M34.6667 1.08H5.33333C2.97692 1.08 1.06667 3.01413 1.06667 5.4V21.6C1.06667 23.9859 2.97692 25.92 5.33333 25.92H34.6667C37.0231 25.92 38.9333 23.9859 38.9333 21.6V5.4C38.9333 3.01413 37.0231 1.08 34.6667 1.08ZM5.33333 0C2.38782 0 0 2.41766 0 5.4V21.6C0 24.5823 2.38781 27 5.33333 27H34.6667C37.6122 27 40 24.5823 40 21.6V5.4C40 2.41766 37.6122 0 34.6667 0H5.33333Z" />
<path fill-rule="evenodd" clip-rule="evenodd" d="M14.9758 8.42471C14.1654 7.31416 12.5481 7.24809 11.652 8.28892L0.935361 20.7357C0.741806 20.9605 0.404908 20.9839 0.182878 20.7879C-0.0391516 20.5919 -0.0622343 20.2508 0.131321 20.026L10.8479 7.57923C12.1921 6.01799 14.6181 6.1171 15.8337 7.78292L29.229 26.1391C29.404 26.379 29.3538 26.7171 29.1169 26.8943C28.88 27.0716 28.5461 27.0208 28.3711 26.7809L14.9758 8.42471Z" />
<path fill-rule="evenodd" clip-rule="evenodd" d="M31.3774 14.5979C31.1804 14.3956 30.8624 14.3823 30.6497 14.5675L24.3478 20.0554C24.1245 20.2499 23.7877 20.2243 23.5957 19.9982C23.4036 19.772 23.4289 19.4311 23.6522 19.2366L29.9542 13.7487C30.5922 13.1931 31.5464 13.2329 32.1371 13.8399L39.8466 21.761C40.0533 21.9735 40.0508 22.3154 39.841 22.5247C39.6312 22.734 39.2936 22.7315 39.0868 22.5191L31.3774 14.5979Z" />
<path fill-rule="evenodd" clip-rule="evenodd" d="M33.6 8.09979C34.4836 8.09979 35.2 7.37449 35.2 6.47979C35.2 5.58508 34.4836 4.85979 33.6 4.85979C32.7163 4.85979 32 5.58508 32 6.47979C32 7.37449 32.7163 8.09979 33.6 8.09979ZM33.6 9.17979C35.0727 9.17979 36.2667 7.97095 36.2667 6.47979C36.2667 4.98862 35.0727 3.77979 33.6 3.77979C32.1272 3.77979 30.9333 4.98862 30.9333 6.47979C30.9333 7.97095 32.1272 9.17979 33.6 9.17979Z" fill="#6A6CFF"/>
<path fill-rule="evenodd" clip-rule="evenodd" d="M34.6667 1.08H5.33333C2.97692 1.08 1.06667 3.01413 1.06667 5.4V21.6C1.06667 23.9859 2.97692 25.92 5.33333 25.92H34.6667C37.0231 25.92 38.9333 23.9859 38.9333 21.6V5.4C38.9333 3.01413 37.0231 1.08 34.6667 1.08ZM5.33333 0C2.38782 0 0 2.41766 0 5.4V21.6C0 24.5823 2.38781 27 5.33333 27H34.6667C37.6122 27 40 24.5823 40 21.6V5.4C40 2.41766 37.6122 0 34.6667 0H5.33333Z"/>
<path fill-rule="evenodd" clip-rule="evenodd" d="M14.9758 8.42471C14.1654 7.31416 12.5481 7.24809 11.652 8.28892L0.935361 20.7357C0.741806 20.9605 0.404908 20.9839 0.182878 20.7879C-0.0391516 20.5919 -0.0622343 20.2508 0.131321 20.026L10.8479 7.57923C12.1921 6.01799 14.6181 6.1171 15.8337 7.78292L29.229 26.1391C29.404 26.379 29.3538 26.7171 29.1169 26.8943C28.88 27.0716 28.5461 27.0208 28.3711 26.7809L14.9758 8.42471Z" fill="#6A6CFF"/>
<path fill-rule="evenodd" clip-rule="evenodd" d="M31.3774 14.5979C31.1804 14.3956 30.8624 14.3823 30.6497 14.5675L24.3478 20.0554C24.1245 20.2499 23.7877 20.2243 23.5957 19.9982C23.4036 19.772 23.4289 19.4311 23.6522 19.2366L29.9542 13.7487C30.5922 13.1931 31.5464 13.2329 32.1371 13.8399L39.8466 21.761C40.0533 21.9735 40.0508 22.3154 39.841 22.5247C39.6312 22.734 39.2936 22.7315 39.0868 22.5191L31.3774 14.5979Z" fill="#6A6CFF"/>
<path fill-rule="evenodd" clip-rule="evenodd" d="M33.6 8.09979C34.4836 8.09979 35.2 7.37449 35.2 6.47979C35.2 5.58508 34.4836 4.85979 33.6 4.85979C32.7163 4.85979 32 5.58508 32 6.47979C32 7.37449 32.7163 8.09979 33.6 8.09979ZM33.6 9.17979C35.0727 9.17979 36.2667 7.97095 36.2667 6.47979C36.2667 4.98862 35.0727 3.77979 33.6 3.77979C32.1272 3.77979 30.9333 4.98862 30.9333 6.47979C30.9333 7.97095 32.1272 9.17979 33.6 9.17979Z" fill="#6A6CFF"/>
</svg>
