<svg width="12" height="17" viewBox="0 0 12 17" fill="none" xmlns="http://www.w3.org/2000/svg">
<path d="M9.56644 16.1622C9.56644 16.4251 8.17631 16.6383 6.4615 16.6383C4.74669 16.6383 3.35657 16.4251 3.35657 16.1622C3.35657 15.8992 4.74669 15.686 6.4615 15.686C8.17631 15.686 9.56644 15.8992 9.56644 16.1622Z" fill="#6A6CFF" fill-opacity="0.25"/>
<path d="M11.3809 8.19226C11.7228 12.3644 9.5909 15.9338 6.61913 16.1648C3.64736 16.3957 0.961069 13.2007 0.619132 9.02851C0.277195 4.85633 2.4091 1.28692 5.38087 1.056C8.35264 0.825075 11.0389 4.02009 11.3809 8.19226Z" fill="#FBD300"/>
<path fill-rule="evenodd" clip-rule="evenodd" d="M11.213 9.24918C11.1837 10.8941 10.7621 12.3924 10.068 13.5544C9.22923 14.9588 8.00484 15.8562 6.60356 15.965C5.20229 16.0739 3.84723 15.377 2.79033 14.1199C2.28956 13.5243 1.85902 12.8061 1.52675 11.9969C1.52696 11.9965 1.52717 11.9961 1.52738 11.9956L2.60853 9.78309C2.63947 9.71977 2.72496 9.70915 2.7708 9.76293L3.97442 11.1752C4.10196 11.3248 4.33631 11.3103 4.44335 11.1462L5.47334 9.56643C5.50902 9.51171 5.58714 9.50688 5.62965 9.55676L6.85704 10.9969C6.98458 11.1465 7.21894 11.132 7.32597 10.9679L8.35597 9.38815C8.39164 9.33343 8.46976 9.3286 8.51228 9.37848L9.73966 10.8186C9.86721 10.9682 10.1016 10.9538 10.2086 10.7896L11.213 9.24918ZM11.2131 8.88921L10.0446 10.6814C10.0089 10.7361 9.93078 10.7409 9.88827 10.691L8.66088 9.25091C8.53333 9.10126 8.29898 9.11575 8.19195 9.27991L7.16195 10.8596C7.12627 10.9144 7.04816 10.9192 7.00564 10.8693L5.77826 9.42919C5.65071 9.27954 5.41636 9.29403 5.30933 9.45819L4.27933 11.0379C4.24365 11.0926 4.16553 11.0975 4.12302 11.0476L2.9194 9.63536C2.78188 9.474 2.52543 9.50587 2.4326 9.69585L1.42922 11.7493C1.11439 10.9149 0.902415 9.99131 0.822058 9.01083C0.653989 6.96012 1.09492 5.06606 1.93327 3.66243C2.77205 2.25807 3.99644 1.36068 5.39771 1.25179C6.79899 1.14291 8.15404 1.83986 9.21095 3.09691C10.2673 4.35331 11.0111 6.15531 11.1792 8.20602C11.1981 8.43587 11.2092 8.66376 11.2131 8.88921ZM11.3815 8.1903C11.7234 12.3625 9.59154 15.9319 6.61977 16.1628C3.648 16.3937 0.961707 13.1987 0.61977 9.02654C0.277833 4.85437 2.40973 1.28496 5.3815 1.05404C8.35327 0.823113 11.0396 4.01813 11.3815 8.1903Z" fill="#6A6CFF" stroke="#6A6CFF" stroke-width="0.3" stroke-linecap="round"/>
<path fill-rule="evenodd" clip-rule="evenodd" d="M7.51994 3.44269C7.53978 3.38964 7.59807 3.36302 7.65014 3.38323C8.90449 3.87012 9.73285 5.08661 9.73285 6.76877C9.73285 6.82554 9.68768 6.87157 9.63196 6.87157C9.57625 6.87157 9.53108 6.82554 9.53108 6.76877C9.53108 5.16145 8.74524 4.02831 7.5783 3.57535C7.52624 3.55514 7.50011 3.49575 7.51994 3.44269Z" fill="#6A6CFF" stroke="#6A6CFF" stroke-width="0.3" stroke-linecap="round"/>
<path d="M5.35944 5.38725C5.00565 6.35924 4.11022 6.92566 3.35945 6.65238C2.60868 6.37911 2.28686 5.36962 2.64065 4.39763C2.99445 3.42565 3.88987 2.85923 4.64064 3.1325C5.39141 3.40578 5.71323 4.41527 5.35944 5.38725Z" fill="#FFF2AC"/>
<path d="M4.21012 5.13568C4.01429 5.67369 3.51866 5.98721 3.1031 5.83595C2.68754 5.68468 2.50941 5.12592 2.70524 4.58792C2.90106 4.04991 3.39669 3.73639 3.81225 3.88765C4.22782 4.03891 4.40594 4.59768 4.21012 5.13568Z" fill="#FFFEFB"/>
</svg>
