<svg width="15" height="14" viewBox="0 0 15 14" fill="none" xmlns="http://www.w3.org/2000/svg">
<path fill-rule="evenodd" clip-rule="evenodd" d="M7.97316 0.290734C7.97316 0.130166 8.09862 0 8.25337 0C11.9794 0 15 3.134 15 6.99998L15 7.00208C14.9989 10.8671 11.9788 14 8.25336 14C4.77821 14 1.91673 11.2739 1.54712 7.77031H0.22722C0.0525666 7.77031 -0.0565919 7.60364 0.0307348 7.47031L1.60262 5.07031C1.68994 4.93698 1.90826 4.93698 1.99559 5.07031L3.56747 7.47031C3.65479 7.60364 3.54564 7.77031 3.37098 7.77031H2.11125C2.47801 10.952 5.08807 13.4185 8.25336 13.4185C11.6699 13.4185 14.4396 10.5449 14.4396 7.00002C14.4396 3.45518 11.6699 0.581467 8.25337 0.581468C8.09862 0.581468 7.97316 0.451302 7.97316 0.290734Z" fill="#6A6CFF"/>
</svg>
