<svg width="114" height="114" viewBox="0 0 114 114" fill="none" xmlns="http://www.w3.org/2000/svg">
<path d="M57 83C75.2254 83 90 68.2254 90 50C90 31.7746 75.2254 17 57 17C38.7746 17 24 31.7746 24 50C24 68.2254 38.7746 83 57 83Z" fill="url(#paint0_radial_690_4419)"/>
<g filter="url(#filter0_d_690_4419)">
<path d="M73.7111 31.6921C68.9144 29.1348 63.1445 27.7832 57.0261 27.7832H57C50.8816 27.7832 45.1117 29.1348 40.3141 31.693C35.7192 34.1424 32.3848 37.5763 30.9254 41.3606C30.7725 41.7541 30.7149 42.1782 30.7573 42.5983C30.7996 43.0183 30.9407 43.4224 31.1689 43.7775C31.4479 44.2096 31.832 44.5638 32.2854 44.8067C32.7387 45.0496 33.2463 45.1734 33.7606 45.1663H41.8275C44.6274 45.1663 46.9346 47.3582 46.9708 50.0522C46.9987 52.0917 45.7698 53.9136 43.8409 54.6945C41.7041 55.5424 39.8408 56.9604 38.454 58.7939C37.1956 60.4772 36.4126 62.4677 36.1868 64.5573C35.9764 66.5021 36.2773 68.4683 37.0597 70.2612C37.9019 72.1798 39.247 73.8047 41.0569 75.0894C45.7001 78.3783 51.2125 80.1184 57 80.1184H57.0251C62.8127 80.1184 68.326 78.3782 72.9665 75.0857C74.7782 73.801 76.127 72.1761 76.9636 70.2575C77.7456 68.4644 78.0465 66.4984 77.8365 64.5536C77.6107 62.464 76.8277 60.4735 75.5693 58.7902C74.1823 56.9568 72.3191 55.539 70.1824 54.6908C68.2526 53.9099 67.0218 52.0879 67.0516 50.0484C67.0878 47.3527 69.396 45.1626 72.1958 45.1626H80.2627C80.7763 45.1697 81.2833 45.0463 81.7361 44.8039C82.1889 44.5614 82.5728 44.208 82.8516 43.7766C83.08 43.4215 83.2213 43.0175 83.2637 42.5975C83.3062 42.1774 83.2488 41.7533 83.0961 41.3597C81.6404 37.5763 78.3069 34.1424 73.7111 31.6921Z" fill="url(#paint1_linear_690_4419)"/>
</g>
<path d="M57.0464 56.4141C59.9984 56.4141 62.3914 54.5412 62.3914 52.231C62.3914 49.9207 59.9984 48.0479 57.0464 48.0479C54.0944 48.0479 51.7013 49.9207 51.7013 52.231C51.7013 54.5412 54.0944 56.4141 57.0464 56.4141Z" fill="#353680"/>
<path d="M69.0641 56.8638C67.2468 54.3689 63.7385 53.9375 61.2761 55.7902C60.1662 56.6268 58.6668 57.1343 57.0158 57.1343C55.3649 57.1343 53.8655 56.6231 52.7565 55.7902C50.2885 53.9375 46.7793 54.3689 44.962 56.8638C44.2983 57.7748 43.9302 58.776 43.9302 59.8283C43.9302 64.0281 49.7865 67.4331 57.013 67.4331C64.2396 67.4331 70.0959 64.0281 70.0959 59.8283C70.0959 58.776 69.7287 57.7748 69.0641 56.8638Z" fill="#B5B6FF"/>
<path d="M49.3832 59.8276C51.127 61.2043 53.1126 62.344 55.325 62.7297C57.3534 63.0839 59.3863 62.7706 61.2622 61.9433C62.4865 61.4041 63.6001 60.6605 64.6431 59.8276C65.0149 59.532 64.4897 59.0142 64.1225 59.307C62.0951 60.9245 59.6671 62.1497 57.0234 62.1469C54.3796 62.1441 51.9423 60.9152 49.9046 59.307C49.5328 59.0161 49.0113 59.5338 49.3832 59.8276Z" fill="#0B0B19"/>
<path d="M56.9777 62.9953C56.4169 62.9957 55.857 62.9475 55.3045 62.8512C53.3226 62.5054 51.3594 61.5498 49.2994 59.9221C49.2504 59.8869 49.2093 59.8418 49.1787 59.7898C49.1481 59.7378 49.1288 59.6799 49.1219 59.62C49.115 59.56 49.1206 59.4993 49.1386 59.4417C49.1565 59.384 49.1863 59.3308 49.226 59.2854C49.2692 59.2276 49.3235 59.1791 49.3857 59.1426C49.4479 59.106 49.5168 59.0823 49.5882 59.0727C49.6597 59.0631 49.7324 59.0678 49.802 59.0866C49.8717 59.1054 49.9369 59.1379 49.9938 59.1822C52.3521 61.0432 54.7151 61.9914 57.0233 61.9914H57.0326C59.3435 61.9914 61.699 61.046 64.0351 59.1822C64.0915 59.1376 64.1563 59.1048 64.2255 59.0856C64.2948 59.0664 64.3672 59.0612 64.4385 59.0703C64.5099 59.0793 64.5786 59.1026 64.6409 59.1385C64.7031 59.1745 64.7576 59.2225 64.801 59.2798C64.8411 59.3254 64.8713 59.3788 64.8895 59.4367C64.9078 59.4946 64.9138 59.5557 64.9072 59.6161C64.9005 59.6764 64.8814 59.7347 64.8509 59.7873C64.8205 59.8398 64.7794 59.8854 64.7304 59.9212C63.5433 60.8684 62.4269 61.5665 61.3188 62.0592C59.9525 62.6693 58.4741 62.9881 56.9777 62.9953ZM49.4704 59.7027C51.4923 61.2988 53.4156 62.2395 55.35 62.577C57.2696 62.9116 59.2952 62.643 61.2064 61.7999C62.2921 61.3211 63.3881 60.6351 64.5528 59.7027C64.5731 59.6899 64.5903 59.6726 64.6029 59.6522C64.6156 59.6318 64.6235 59.6088 64.626 59.5849C64.6285 59.5611 64.6256 59.5369 64.6174 59.5143C64.6092 59.4917 64.5961 59.4713 64.5789 59.4545C64.5582 59.4263 64.5321 59.4025 64.5022 59.3845C64.4723 59.3664 64.439 59.3545 64.4044 59.3494C64.3698 59.3443 64.3346 59.3461 64.3007 59.3547C64.2668 59.3634 64.235 59.3787 64.207 59.3997C61.8227 61.3044 59.4086 62.2702 57.0326 62.2702H57.0233C54.651 62.2702 52.2266 61.3025 49.8181 59.4006C49.7898 59.3792 49.7576 59.3636 49.7232 59.3549C49.6888 59.3461 49.653 59.3443 49.6179 59.3496C49.5828 59.3549 49.5492 59.3671 49.5189 59.3856C49.4886 59.4041 49.4623 59.4285 49.4416 59.4573C49.4249 59.4741 49.4121 59.4945 49.4043 59.5169C49.3965 59.5393 49.3938 59.5632 49.3965 59.5867C49.3992 59.6103 49.4072 59.633 49.4198 59.6531C49.4324 59.6731 49.4494 59.6901 49.4695 59.7027H49.4704Z" fill="#0B0B19"/>
<path d="M79.6603 50.713C78.6973 49.446 77.1374 48.6456 75.5367 48.6903C74.0271 48.7312 72.5676 49.5157 71.6548 50.713C71.3676 51.0904 72.0071 51.4567 72.2916 51.0848C72.2302 51.1648 72.3139 51.057 72.3538 51.0123C72.4171 50.9398 72.4812 50.8692 72.5481 50.8004C72.7496 50.5916 72.9699 50.4018 73.2063 50.2333C73.9023 49.7195 74.742 49.4371 75.6071 49.4259C76.4722 49.4147 77.3189 49.6754 78.028 50.1711C78.2758 50.3392 78.5065 50.5313 78.7168 50.7446C78.7967 50.8246 78.873 50.9073 78.9464 50.9928C78.9892 51.0421 79.0747 51.1518 79.0245 51.0858C79.308 51.4576 79.9476 51.0923 79.6603 50.7139V50.713Z" fill="#0B0B19"/>
<path d="M79.334 51.3808C79.2557 51.3814 79.1782 51.3641 79.1075 51.3303C79.0367 51.2964 78.9747 51.2469 78.9259 51.1855C78.9204 51.18 78.9148 51.1725 78.9092 51.166L78.8432 51.0861C78.7754 51.0071 78.701 50.9262 78.6211 50.8462C78.4171 50.6392 78.1936 50.4524 77.9536 50.2885C77.2679 49.8081 76.4485 49.5556 75.6114 49.5666C74.7743 49.5776 73.9618 49.8516 73.289 50.3499C73.0597 50.5133 72.8459 50.6975 72.6504 50.9002C72.5844 50.968 72.5202 51.0396 72.4645 51.1065C72.4459 51.1279 72.417 51.1642 72.3994 51.1855C72.3921 51.1943 72.3843 51.2027 72.3761 51.2106C72.2818 51.3118 72.1527 51.3734 72.0147 51.3833C71.8768 51.3931 71.7402 51.3504 71.6325 51.2636C71.5832 51.2293 71.5415 51.1852 71.5102 51.1339C71.4788 51.0827 71.4585 51.0255 71.4504 50.9659C71.4424 50.9064 71.4468 50.8458 71.4634 50.7881C71.4801 50.7304 71.5085 50.6767 71.547 50.6306C72.0168 50.0109 72.6183 49.5031 73.3081 49.1438C73.9978 48.7846 74.7587 48.5828 75.5358 48.553C77.1384 48.5093 78.7661 49.305 79.7747 50.6306C79.8132 50.6768 79.8417 50.7306 79.8584 50.7884C79.875 50.8463 79.8794 50.907 79.8713 50.9666C79.8631 51.0263 79.8426 51.0836 79.8111 51.1349C79.7796 51.1862 79.7377 51.2303 79.6882 51.2646C79.5859 51.3407 79.4616 51.3815 79.334 51.3808ZM79.1351 51.0015C79.1805 51.0571 79.2462 51.0924 79.3176 51.0997C79.389 51.107 79.4605 51.0858 79.5162 51.0405C79.5367 51.0287 79.5541 51.0124 79.5673 50.9927C79.5805 50.9731 79.589 50.9508 79.5922 50.9274C79.5955 50.904 79.5933 50.8802 79.5859 50.8577C79.5786 50.8353 79.5662 50.8148 79.5497 50.7979C78.595 49.542 77.0594 48.7882 75.5404 48.83C74.107 48.869 72.6587 49.6229 71.7663 50.7979C71.75 50.8149 71.7377 50.8353 71.7304 50.8576C71.723 50.88 71.7208 50.9038 71.724 50.9271C71.7271 50.9504 71.7355 50.9727 71.7484 50.9924C71.7614 51.012 71.7786 51.0285 71.7989 51.0405C71.8264 51.063 71.8582 51.0799 71.8923 51.0901C71.9264 51.1003 71.9621 51.1037 71.9975 51.1001C72.0329 51.0965 72.0673 51.0859 72.0986 51.069C72.1299 51.0521 72.1576 51.0291 72.18 51.0015L72.2469 50.9197C72.3092 50.85 72.3761 50.7756 72.4459 50.7031C72.6537 50.4884 72.8808 50.2933 73.1245 50.1202C73.8434 49.5899 74.7105 49.2983 75.6039 49.2867C76.4972 49.275 77.3717 49.5438 78.1042 50.0552C78.3596 50.229 78.5975 50.4273 78.8144 50.6473C78.899 50.7319 78.978 50.8174 79.0505 50.902C79.071 50.9253 79.0998 50.9615 79.1212 50.9875L79.1323 51.0015H79.1351Z" fill="#0B0B19"/>
<path d="M42.3714 50.713C41.4083 49.446 39.8485 48.6456 38.2478 48.6903C36.7381 48.7312 35.2787 49.5157 34.3659 50.713C34.0786 51.0904 34.7182 51.4567 35.0026 51.0848C34.9413 51.1648 35.0249 51.057 35.0649 51.0123C35.1281 50.9398 35.1923 50.8692 35.2592 50.8004C35.4607 50.5916 35.681 50.4018 35.9173 50.2333C36.6133 49.7195 37.4531 49.4371 38.3182 49.4259C39.1832 49.4147 40.03 49.6754 40.739 50.1711C40.9869 50.3392 41.2176 50.5313 41.4279 50.7446C41.5078 50.8246 41.584 50.9073 41.6575 50.9928C41.7002 51.0421 41.7858 51.1518 41.7356 51.0858C42.0191 51.4576 42.6586 51.0923 42.3714 50.7139V50.713Z" fill="#0B0B19"/>
<path d="M42.045 51.3805C41.9667 51.3811 41.8893 51.3639 41.8186 51.3302C41.7479 51.2966 41.6858 51.2473 41.6369 51.1862L41.6201 51.1658L41.5541 51.0867C41.4872 51.0077 41.4119 50.9269 41.332 50.846C41.1281 50.6389 40.9045 50.4521 40.6645 50.2882C39.9789 49.8079 39.1595 49.5553 38.3223 49.5663C37.4852 49.5773 36.6727 49.8514 35.9999 50.3496C35.7706 50.5131 35.5569 50.6973 35.3613 50.8999C35.2953 50.9668 35.2312 51.0393 35.1754 51.1063C35.1568 51.1276 35.128 51.1639 35.1103 51.1853C35.103 51.1944 35.0953 51.203 35.0871 51.2113C34.9926 51.3123 34.8634 51.3738 34.7255 51.3834C34.5875 51.3931 34.451 51.3502 34.3434 51.2634C34.2941 51.2291 34.2524 51.1849 34.2211 51.1336C34.1898 51.0824 34.1694 51.0252 34.1614 50.9657C34.1533 50.9061 34.1578 50.8456 34.1744 50.7878C34.191 50.7301 34.2194 50.6765 34.2579 50.6303C34.7278 50.0106 35.3292 49.5028 36.019 49.1436C36.7087 48.7843 37.4696 48.5825 38.2467 48.5527C39.8521 48.5062 41.477 49.3047 42.4856 50.6303C42.5242 50.6765 42.5527 50.7303 42.5693 50.7882C42.5859 50.846 42.5903 50.9067 42.5822 50.9664C42.5741 51.026 42.5536 51.0833 42.5221 51.1346C42.4905 51.1859 42.4487 51.2301 42.3991 51.2643C42.2968 51.3404 42.1725 51.3812 42.045 51.3805ZM41.8479 51.0012C41.8703 51.0289 41.898 51.0518 41.9293 51.0687C41.9606 51.0856 41.9949 51.0962 42.0304 51.0998C42.0658 51.1035 42.1015 51.1001 42.1356 51.0898C42.1697 51.0796 42.2015 51.0628 42.229 51.0403C42.2495 51.0284 42.2669 51.0121 42.2801 50.9925C42.2933 50.9729 42.3018 50.9505 42.305 50.9271C42.3082 50.9037 42.3061 50.8799 42.2987 50.8575C42.2913 50.835 42.279 50.8146 42.2625 50.7976C41.3078 49.5418 39.7712 48.7879 38.2532 48.8297C36.8198 48.8688 35.3715 49.6227 34.4791 50.7976C34.4628 50.8146 34.4505 50.835 34.4432 50.8574C34.4358 50.8797 34.4336 50.9035 34.4368 50.9268C34.4399 50.9501 34.4482 50.9725 34.4612 50.9921C34.4742 51.0118 34.4914 51.0282 34.5117 51.0403C34.5393 51.0627 34.5711 51.0795 34.6052 51.0897C34.6393 51.0998 34.6751 51.1031 34.7105 51.0994C34.7459 51.0957 34.7803 51.085 34.8115 51.068C34.8428 51.051 34.8704 51.028 34.8928 51.0003L34.9597 50.9185C35.022 50.8488 35.0889 50.7744 35.1587 50.7019C35.3665 50.4872 35.5936 50.2921 35.8372 50.119C36.5562 49.5887 37.4233 49.2971 38.3167 49.2855C39.21 49.2738 40.0845 49.5426 40.817 50.054C41.0724 50.2278 41.3103 50.4261 41.5272 50.6461C41.6118 50.7316 41.6917 50.8172 41.7633 50.9008L41.8339 50.9873L41.8451 51.0003L41.8479 51.0012Z" fill="#0B0B19"/>
<defs>
<filter id="filter0_d_690_4419" x="0.743774" y="0.783203" width="112.534" height="112.335" filterUnits="userSpaceOnUse" color-interpolation-filters="sRGB">
<feFlood flood-opacity="0" result="BackgroundImageFix"/>
<feColorMatrix in="SourceAlpha" type="matrix" values="0 0 0 0 0 0 0 0 0 0 0 0 0 0 0 0 0 0 127 0" result="hardAlpha"/>
<feOffset dy="3"/>
<feGaussianBlur stdDeviation="15"/>
<feComposite in2="hardAlpha" operator="out"/>
<feColorMatrix type="matrix" values="0 0 0 0 0.416667 0 0 0 0 0.424242 0 0 0 0 1 0 0 0 0.1 0"/>
<feBlend mode="normal" in2="BackgroundImageFix" result="effect1_dropShadow_690_4419"/>
<feBlend mode="normal" in="SourceGraphic" in2="effect1_dropShadow_690_4419" result="shape"/>
</filter>
<radialGradient id="paint0_radial_690_4419" cx="0" cy="0" r="1" gradientUnits="userSpaceOnUse" gradientTransform="translate(57 50) rotate(89.6835) scale(33.0005)">
<stop stop-color="#B5B6FF"/>
<stop offset="1" stop-color="#6A6CFF"/>
</radialGradient>
<linearGradient id="paint1_linear_690_4419" x1="57.0106" y1="27.7832" x2="57.0106" y2="80.1184" gradientUnits="userSpaceOnUse">
<stop stop-color="white"/>
<stop offset="1" stop-color="#F0F0FF"/>
</linearGradient>
</defs>
</svg>
