<svg width="30" height="30" viewBox="0 0 30 30" fill="none" xmlns="http://www.w3.org/2000/svg">
<path d="M29.85 15C29.85 23.2014 23.2014 29.85 15 29.85C6.79857 29.85 0.15 23.2014 0.15 15C0.15 6.79857 6.79857 0.15 15 0.15C23.2014 0.15 29.85 6.79857 29.85 15Z" fill="#FEFEFE" stroke="#6A6CFF" stroke-width="0.3"/>
<path d="M8.74602 14.7227C9.40567 14.9458 9.7653 15.3394 9.76322 15.4759C9.76436 15.5237 9.7484 15.5704 9.71819 15.6075C9.69934 15.6241 9.67736 15.6367 9.65356 15.6447C9.62977 15.6527 9.60463 15.6558 9.57961 15.6539C9.55028 15.653 9.52145 15.646 9.49506 15.6331L9.4729 15.622L9.43893 15.6075C9.38967 15.5885 9.33923 15.5727 9.2879 15.5604C9.26226 15.5542 9.2366 15.5493 9.21096 15.5444H9.20196H9.1888C9.17355 15.5444 9.15832 15.541 9.14238 15.5403C9.0699 15.5349 8.99707 15.5361 8.9248 15.5438H8.91302L8.88948 15.5479L8.83264 15.5597C8.79799 15.568 8.76336 15.577 8.72941 15.5881C8.69546 15.5992 8.66635 15.611 8.64002 15.6214H8.63309L8.61438 15.6304C8.60041 15.6366 8.58678 15.6435 8.57351 15.6511C8.52043 15.6791 8.46969 15.7113 8.42177 15.7475L8.39264 15.7696L8.38851 15.7731H8.38435L8.37393 15.7828C8.36076 15.7946 8.34763 15.8057 8.33515 15.8181C8.28942 15.8606 8.24745 15.907 8.20973 15.9567C8.19721 15.973 8.18131 15.9865 8.16315 15.9962C8.14498 16.0058 8.12496 16.0115 8.10441 16.0128H8.09054C8.0403 16.0124 7.99207 15.9932 7.95544 15.9588C7.92276 15.9219 7.90469 15.8743 7.90469 15.8251C7.90469 15.7758 7.92276 15.7282 7.95544 15.6913C8.00652 15.6244 8.06431 15.5629 8.12796 15.5077C8.34478 15.3163 8.61474 15.1955 8.90193 15.1613C8.89569 15.1613 8.89016 15.1537 8.88393 15.1509C8.8569 15.1364 8.82989 15.1232 8.80286 15.11L8.76406 15.0913L8.74535 15.083C8.68437 15.0574 8.62271 15.0338 8.56035 15.0137C8.49799 14.9936 8.42661 14.9722 8.3587 14.9562C8.32059 14.9472 8.28247 14.9389 8.24367 14.9313L8.1917 14.9223L8.16193 14.9174C8.00686 14.8976 7.85028 14.8922 7.69422 14.9015C7.65611 14.9015 7.61729 14.907 7.57919 14.9119L7.52999 14.9174C7.5681 14.9133 7.51199 14.9174 7.50506 14.9216C7.43992 14.9327 7.37548 14.9458 7.31173 14.9618C7.20007 14.9897 7.09054 15.0256 6.98399 15.0692L6.9417 15.0865H6.93615H6.94031C6.92022 15.0976 6.89875 15.1059 6.87796 15.1156C6.84193 15.1336 6.80868 15.1523 6.77057 15.1717C6.72138 15.1987 6.67285 15.2278 6.62573 15.259C6.60736 15.2699 6.58701 15.2769 6.56585 15.2797C6.54469 15.2825 6.52319 15.2811 6.50261 15.2754C6.48204 15.2697 6.46281 15.2599 6.44611 15.2466C6.42941 15.2333 6.41558 15.2168 6.40541 15.198C6.3842 15.1588 6.37834 15.1131 6.38897 15.0698C6.3996 15.0265 6.42597 14.9888 6.46293 14.9638C7.16484 14.5461 7.93048 14.4865 8.74602 14.7227Z" fill="#0B0B19"/>
<path d="M21.253 14.7227C20.5934 14.9458 20.2345 15.3394 20.2359 15.4758C20.2348 15.5238 20.251 15.5705 20.2816 15.6075C20.3004 15.6241 20.3224 15.6368 20.3462 15.6448C20.37 15.6528 20.3951 15.6559 20.4202 15.6539C20.4495 15.653 20.4783 15.6459 20.5047 15.6331L20.5269 15.622L20.5608 15.6075C20.6098 15.5884 20.66 15.5726 20.7112 15.5604C20.7368 15.5541 20.7632 15.5493 20.7888 15.5444H20.7978H20.8109C20.8262 15.5444 20.8414 15.5431 20.8567 15.5403C20.9292 15.5349 21.002 15.5361 21.0742 15.5437H21.086L21.1103 15.5479L21.1671 15.5597C21.2017 15.568 21.2364 15.577 21.2703 15.5881C21.3043 15.5992 21.3327 15.6109 21.3597 15.6213H21.3666L21.3853 15.6303C21.3992 15.6366 21.4123 15.6435 21.4262 15.6511C21.4791 15.6794 21.5298 15.7116 21.5779 15.7474L21.607 15.7696L21.6112 15.7731L21.6223 15.7828C21.6354 15.7946 21.6486 15.8056 21.6611 15.8181C21.7066 15.8608 21.7486 15.9071 21.7865 15.9567C21.7989 15.973 21.8146 15.9864 21.8327 15.9961C21.8507 16.0058 21.8707 16.0115 21.8911 16.0128H21.9057C21.9571 16.0133 22.0067 15.994 22.0442 15.9588C22.0769 15.9219 22.095 15.8743 22.095 15.825C22.095 15.7758 22.0769 15.7282 22.0442 15.6913C21.9936 15.6242 21.936 15.5627 21.8724 15.5077C21.6554 15.3162 21.3852 15.1953 21.0978 15.1613L21.1165 15.1509C21.1428 15.1364 21.1698 15.1232 21.1969 15.11L21.2364 15.0913L21.2551 15.083C21.3154 15.0574 21.377 15.0338 21.4394 15.0137C21.5017 14.9936 21.5738 14.9722 21.6417 14.9562C21.6798 14.9472 21.7179 14.9389 21.7567 14.9313L21.808 14.9223L21.8378 14.9174C21.9928 14.8976 22.1494 14.8922 22.3054 14.9015C22.3442 14.9015 22.3823 14.907 22.4211 14.9119L22.4696 14.9174C22.4315 14.9133 22.4877 14.9174 22.4953 14.9216C22.5597 14.9327 22.6241 14.9458 22.6879 14.9618C22.7996 14.9896 22.9091 15.0255 23.0156 15.0691L23.0579 15.0865H23.0641H23.0593C23.0801 15.0976 23.1015 15.1059 23.1223 15.1156C23.1583 15.1336 23.1916 15.1523 23.2297 15.1717C23.2789 15.1987 23.3267 15.2278 23.3738 15.259C23.3922 15.2699 23.4127 15.2769 23.4339 15.2798C23.4551 15.2826 23.4767 15.2811 23.4973 15.2754C23.5179 15.2697 23.5372 15.2599 23.5539 15.2466C23.5707 15.2333 23.5846 15.2168 23.5949 15.198C23.616 15.1587 23.6218 15.113 23.611 15.0697C23.6002 15.0264 23.5737 14.9887 23.5366 14.9638C22.8348 14.5461 22.0726 14.4865 21.253 14.7227Z" fill="#0B0B19"/>
<path d="M17.7458 19.8098C20.0075 19.146 22.3912 19.0079 24.7145 19.4062C25.3023 19.5077 25.8837 19.6425 26.4562 19.8098C26.6703 19.8721 26.7624 19.5384 26.5483 19.4761C24.1816 18.7832 21.6855 18.6532 19.2595 19.0967C18.7179 19.195 18.1819 19.3216 17.6537 19.4761C17.4396 19.5384 17.531 19.8721 17.7458 19.8098Z" fill="#6A6CFF"/>
<path d="M17.7458 20.9876C18.4009 20.8728 19.0686 20.8462 19.7308 20.9086C20.6808 21.0009 21.6011 21.2905 22.4329 21.7588C22.7975 21.9636 23.143 22.2008 23.4652 22.4675C23.4984 22.4988 23.5422 22.5162 23.5878 22.5162C23.6334 22.5162 23.6773 22.4988 23.7105 22.4675C23.7425 22.4348 23.7605 22.3908 23.7605 22.3449C23.7605 22.2991 23.7425 22.255 23.7105 22.2223C22.3034 21.0562 20.5129 20.4553 18.6874 20.5366C18.3404 20.553 17.9948 20.5921 17.6529 20.6537C17.6089 20.6661 17.5715 20.6954 17.5488 20.7352C17.5261 20.775 17.52 20.8221 17.5317 20.8664C17.5448 20.9102 17.5743 20.9473 17.614 20.9699C17.6538 20.9925 17.7008 20.9988 17.7451 20.9876H17.7458Z" fill="#6A6CFF"/>
<path d="M17.3529 22.0339C17.4083 22.0395 17.4631 22.0457 17.5185 22.0526L17.5441 22.0561L17.5815 22.0616C17.6203 22.0672 17.6591 22.0727 17.6979 22.0796C17.8517 22.1046 18.0044 22.1351 18.1559 22.1711C18.5278 22.2585 18.8909 22.3795 19.2408 22.5328C19.9992 22.8677 20.6849 23.3474 21.2598 23.9448C21.378 24.0681 21.4912 24.1958 21.5992 24.3279C21.6921 24.4408 21.7579 24.5267 21.8452 24.6501C21.8693 24.6887 21.9073 24.7166 21.9513 24.7282C21.9953 24.7398 22.0421 24.7342 22.0821 24.7124C22.1216 24.689 22.1502 24.651 22.1618 24.6067C22.1735 24.5624 22.1673 24.5152 22.1445 24.4755C21.2306 23.1896 19.8934 22.2661 18.3672 21.8669C18.0341 21.7819 17.695 21.7219 17.3529 21.6875C17.3071 21.6879 17.2632 21.7062 17.2308 21.7386C17.1984 21.771 17.18 21.8149 17.1797 21.8607C17.1807 21.9063 17.1993 21.9498 17.2316 21.982C17.2638 22.0143 17.3073 22.0329 17.3529 22.0339Z" fill="#6A6CFF"/>
<path d="M12.3455 19.4759C11.3178 19.1769 10.2629 18.9814 9.1963 18.8923C7.26175 18.733 5.31438 18.9308 3.45148 19.4759C3.23743 19.5382 3.32887 19.8719 3.54362 19.8096C5.85821 19.1297 8.29999 19.0012 10.6732 19.4344C11.206 19.5322 11.7334 19.6572 12.2533 19.8089C12.4681 19.8712 12.5595 19.5375 12.3455 19.4752V19.4759Z" fill="#6A6CFF"/>
<path d="M12.3457 20.6538C10.656 20.3524 8.89282 20.6143 7.39083 21.4595C7.00138 21.6801 6.63252 21.9352 6.28862 22.2216C6.25638 22.2543 6.23828 22.2984 6.23828 22.3443C6.23828 22.3902 6.25638 22.4342 6.28862 22.4669C6.32159 22.4983 6.36535 22.5158 6.41087 22.5158C6.4564 22.5158 6.50019 22.4983 6.53316 22.4669C7.87472 21.3637 9.57861 20.799 11.3135 20.8824C11.6296 20.8956 11.9444 20.9305 12.2557 20.987C12.3 20.9979 12.3468 20.9913 12.3864 20.9688C12.4261 20.9463 12.4557 20.9094 12.4691 20.8658C12.4808 20.8215 12.4746 20.7744 12.4519 20.7346C12.4293 20.6948 12.3919 20.6655 12.3478 20.6531L12.3457 20.6538Z" fill="#6A6CFF"/>
<path d="M12.6456 21.6875C11.6936 21.7803 10.7728 22.0775 9.94608 22.5586C9.11935 23.0398 8.40614 23.6936 7.85508 24.4755C7.83204 24.5151 7.8256 24.5623 7.83715 24.6066C7.8487 24.651 7.87731 24.689 7.91674 24.7124C7.95667 24.7345 8.00356 24.7404 8.04769 24.7287C8.09181 24.7171 8.12978 24.689 8.15367 24.6501C9.01724 23.4379 10.2818 22.5703 11.7235 22.2009C11.8939 22.1565 12.0664 22.1198 12.2403 22.0893C12.3969 22.0623 12.4925 22.0499 12.6456 22.0339C12.6911 22.0327 12.7345 22.0141 12.7667 21.9818C12.7989 21.9496 12.8176 21.9063 12.8188 21.8607C12.8186 21.8148 12.8003 21.7709 12.7679 21.7384C12.7354 21.706 12.6915 21.6877 12.6456 21.6875Z" fill="#6A6CFF"/>
<path d="M14.9999 28.2691C8.06595 28.2691 2.4248 22.5968 2.4248 15.6248C2.4248 8.65274 8.06595 2.98047 14.9999 2.98047C21.9339 2.98047 27.575 8.65274 27.575 15.6248C27.575 22.5968 21.9346 28.2691 14.9999 28.2691ZM14.9999 3.46546C8.33338 3.46546 2.90979 8.92018 2.90979 15.6248C2.90979 22.3294 8.33338 27.7841 14.9999 27.7841C21.6665 27.7841 27.09 22.3294 27.09 15.6248C27.09 8.92018 21.6665 3.46546 14.9999 3.46546Z" fill="#6A6CFF"/>
<path d="M9.20962 26.7103L9.16943 26.2253C11.1092 26.0631 12.5606 25.3703 13.4772 24.1668C14.4194 22.9294 14.8413 21.1038 14.7304 18.7426L15.2154 18.7197C15.4475 23.6701 13.4266 26.3576 9.20962 26.7103Z" fill="#6A6CFF"/>
<path d="M20.7894 26.7099C16.5727 26.3572 14.5548 23.6697 14.7847 18.7207L15.2697 18.7436C15.1588 21.1048 15.58 22.9304 16.5228 24.1678C17.4393 25.3713 18.8885 26.0641 20.8302 26.2262L20.7894 26.7099Z" fill="#6A6CFF"/>
<path d="M13.6577 15.9994C13.2469 13.8577 12.3513 12.0616 10.996 10.6683C9.70826 9.34466 7.95696 8.33313 5.79103 7.66306L5.72665 7.64409L5.6848 7.59697C5.42781 7.31322 5.23602 6.98159 5.12171 6.62331C5.0074 6.26503 4.97309 5.888 5.02098 5.51639C5.07293 5.13266 5.20856 4.76345 5.41921 4.43238C5.62986 4.10131 5.91088 3.81566 6.24431 3.5937C7.64019 2.63847 9.66125 2.85937 10.7513 4.08753L10.4069 4.36351C9.46618 3.30364 7.7181 3.11394 6.50894 3.94127C6.22545 4.12873 5.98629 4.37041 5.80678 4.65082C5.62728 4.93122 5.51138 5.24418 5.46653 5.56963C5.42771 5.87245 5.45393 6.17961 5.54356 6.47254C5.6332 6.76546 5.78442 7.03807 5.98806 7.27387C8.19906 7.96719 9.99349 9.01115 11.3218 10.3764C12.7383 11.8303 13.6693 13.6955 14.0961 15.9217L13.6577 15.9994Z" fill="#6A6CFF"/>
<path d="M16.2028 16.0001L15.7598 15.9236C16.186 13.6974 17.119 11.8322 18.5336 10.3782C19.862 9.01302 21.6565 7.96907 23.8683 7.27575C24.0715 7.03971 24.2225 6.76708 24.3121 6.47422C24.4017 6.18137 24.4281 5.87432 24.3898 5.57151C24.3448 5.24602 24.2288 4.93305 24.0492 4.65265C23.8696 4.37224 23.6303 4.13058 23.3467 3.94316C22.1381 3.11582 20.3893 3.30552 19.4486 4.36539L19.1041 4.08941C20.1929 2.86187 22.2148 2.64036 23.6113 3.59558C23.9454 3.81724 24.227 4.10276 24.4383 4.43385C24.6495 4.76493 24.7856 5.13429 24.838 5.51827C24.886 5.88989 24.8518 6.26695 24.7375 6.62525C24.6231 6.98355 24.4312 7.31518 24.1741 7.59884L24.1323 7.64596L24.0717 7.66493C21.9057 8.335 20.1543 9.34652 18.8659 10.6701C17.5092 12.0623 16.6136 13.8559 16.2028 16.0001Z" fill="#6A6CFF"/>
<path d="M15.0001 18.7775C16.3202 18.7775 17.3904 17.9399 17.3904 16.9068C17.3904 15.8737 16.3202 15.0361 15.0001 15.0361C13.68 15.0361 12.6099 15.8737 12.6099 16.9068C12.6099 17.9399 13.68 18.7775 15.0001 18.7775Z" fill="#353680"/>
</svg>
