<svg width="30" height="30" viewBox="0 0 30 30" fill="none" xmlns="http://www.w3.org/2000/svg">
<path d="M29.85 15C29.85 23.2014 23.2014 29.85 15 29.85C6.79857 29.85 0.15 23.2014 0.15 15C0.15 6.79857 6.79857 0.15 15 0.15C23.2014 0.15 29.85 6.79857 29.85 15Z" fill="#FEFEFE" stroke="#6A6CFF" stroke-width="0.3"/>
<path d="M1.56054 14.2496C1.20785 13.6489 0.749826 13.3773 0.616093 13.4064C0.569417 13.4147 0.527187 13.4392 0.496913 13.4757C0.473163 13.5178 0.466702 13.5675 0.478897 13.6143C0.48563 13.6429 0.498387 13.6699 0.516317 13.6932C0.521778 13.6994 0.526866 13.7059 0.531559 13.7126L0.55235 13.7424C0.581107 13.7868 0.606803 13.8331 0.629263 13.881C0.641042 13.9045 0.65074 13.9288 0.660441 13.9503L0.664602 13.9593V13.9648V13.9697C0.669453 13.9842 0.673607 13.9988 0.678457 14.0133C0.698115 14.0834 0.71156 14.155 0.718643 14.2274V14.2364C0.718643 14.2447 0.718643 14.2524 0.718643 14.2607C0.718643 14.2801 0.718643 14.2995 0.718643 14.3189C0.718643 14.3542 0.718644 14.3882 0.711022 14.4256C0.7034 14.463 0.702017 14.4948 0.696474 14.5198C0.696148 14.5223 0.696148 14.5249 0.696474 14.5274C0.696474 14.5343 0.696469 14.5433 0.691619 14.5475C0.686768 14.5517 0.684002 14.5766 0.679844 14.5911C0.662527 14.6487 0.641223 14.7049 0.616093 14.7595L0.600157 14.7928V14.7976V14.8018L0.59323 14.8142C0.584222 14.8295 0.575906 14.8447 0.566205 14.8593C0.533485 14.9128 0.496158 14.9633 0.454646 15.0103C0.441277 15.0259 0.431395 15.0442 0.425659 15.0639C0.419923 15.0836 0.418466 15.1043 0.421387 15.1246V15.1385C0.432077 15.1877 0.461046 15.231 0.502453 15.2597C0.5449 15.2846 0.595016 15.2931 0.643295 15.2835C0.691575 15.274 0.734661 15.247 0.764378 15.2078C0.819582 15.1436 0.868103 15.0739 0.909196 14.9999C1.05409 14.7481 1.11887 14.4581 1.0949 14.1685C1.09906 14.1741 1.10391 14.1789 1.10876 14.1845L1.16489 14.2537L1.19052 14.2884L1.2023 14.305C1.23972 14.359 1.27159 14.4152 1.30832 14.472C1.34504 14.5288 1.37761 14.5946 1.40602 14.6577C1.42196 14.693 1.4379 14.7269 1.45314 14.765C1.45938 14.7817 1.4663 14.7976 1.47254 14.8142L1.48293 14.8426C1.53361 14.9907 1.57072 15.1431 1.5938 15.2978C1.59934 15.3359 1.6035 15.374 1.60697 15.4128L1.61112 15.462C1.60766 15.4232 1.61112 15.48 1.61112 15.4877C1.61112 15.5528 1.61112 15.6186 1.61112 15.6844C1.60649 15.7995 1.59353 15.9142 1.57232 16.0274L1.56401 16.0717C1.56375 16.0738 1.56375 16.0759 1.56401 16.078C1.56401 16.078 1.56401 16.078 1.56401 16.0738C1.55708 16.0953 1.55362 16.1181 1.54807 16.1431C1.53768 16.1826 1.52658 16.2214 1.51481 16.2602C1.49818 16.3135 1.47947 16.3669 1.45868 16.4195C1.45172 16.4397 1.44891 16.4612 1.45044 16.4825C1.45196 16.5038 1.45779 16.5247 1.46756 16.5437C1.47734 16.5627 1.49086 16.5796 1.50731 16.5932C1.52377 16.6069 1.54282 16.6171 1.56331 16.6232C1.60592 16.6358 1.65168 16.6322 1.69174 16.613C1.7318 16.5938 1.76332 16.5604 1.7802 16.5193C2.05598 15.762 1.95897 15.0006 1.56054 14.2496Z" fill="#6A6CFF"/>
<path d="M1.56621 16.0996C1.56621 16.113 1.56226 16.1148 1.56621 16.0996V16.0996Z" fill="#6A6CFF"/>
<path d="M28.5117 14.2496C28.8643 13.6489 29.3223 13.3773 29.4553 13.4064C29.5023 13.4145 29.5448 13.4391 29.5752 13.4757C29.599 13.5178 29.6054 13.5675 29.5932 13.6143C29.5865 13.6431 29.5735 13.6701 29.5551 13.6932L29.5406 13.7126L29.5191 13.7424C29.4906 13.787 29.4649 13.8332 29.4422 13.881C29.4311 13.9045 29.4214 13.9288 29.411 13.9503V13.9593V13.9648V13.9697C29.4062 13.9842 29.4013 13.9988 29.3971 14.0133C29.3775 14.0834 29.364 14.155 29.357 14.2274V14.2364C29.357 14.2447 29.357 14.2524 29.357 14.2607C29.357 14.2801 29.357 14.2995 29.357 14.3189C29.357 14.3542 29.357 14.3882 29.3646 14.4256C29.3722 14.463 29.3736 14.4948 29.3784 14.5198C29.3788 14.5223 29.3788 14.5249 29.3784 14.5274C29.3784 14.5343 29.3784 14.5433 29.3833 14.5475C29.3881 14.5517 29.3909 14.5766 29.3951 14.5911C29.4124 14.6487 29.4337 14.7049 29.4588 14.7595L29.4747 14.7928V14.7976V14.8018L29.4824 14.8142C29.4907 14.8295 29.4997 14.8447 29.5087 14.8593C29.5419 14.9126 29.5794 14.9631 29.6209 15.0103C29.6343 15.0259 29.6442 15.0442 29.6499 15.0639C29.6557 15.0836 29.6571 15.1043 29.6542 15.1246V15.1385C29.6435 15.1877 29.6145 15.231 29.5731 15.2597C29.5307 15.2846 29.4806 15.2931 29.4323 15.2835C29.384 15.274 29.3409 15.247 29.3112 15.2078C29.256 15.1434 29.2073 15.0738 29.1657 14.9999C29.0214 14.7479 28.9569 14.458 28.9807 14.1685C28.9766 14.1741 28.9717 14.1789 28.9669 14.1845L28.9108 14.2537L28.8851 14.2884L28.8733 14.305C28.8359 14.359 28.8041 14.4152 28.7673 14.472C28.7306 14.5288 28.6981 14.5946 28.6696 14.6577C28.653 14.693 28.6378 14.7269 28.6225 14.765C28.6163 14.7817 28.6094 14.7976 28.6031 14.8142L28.5927 14.8426C28.5426 14.9908 28.5057 15.1431 28.4826 15.2978C28.477 15.3359 28.4729 15.374 28.4694 15.4128L28.4653 15.462C28.4653 15.4232 28.4653 15.48 28.4653 15.4877C28.4653 15.5528 28.4653 15.6186 28.4653 15.6844C28.4697 15.7995 28.4824 15.9141 28.5034 16.0274C28.5034 16.0419 28.5096 16.0572 28.5124 16.0717C28.5124 16.0717 28.5124 16.0759 28.5124 16.078V16.0738C28.5193 16.0953 28.5228 16.1181 28.5283 16.1431C28.5387 16.1826 28.5498 16.2214 28.5616 16.2602C28.5782 16.3135 28.5969 16.3669 28.6177 16.4195C28.6246 16.4397 28.6275 16.4612 28.6259 16.4825C28.6244 16.5038 28.6186 16.5247 28.6088 16.5437C28.599 16.5627 28.5855 16.5796 28.5691 16.5932C28.5526 16.6069 28.5336 16.6171 28.5131 16.6232C28.4705 16.6358 28.4247 16.6322 28.3846 16.613C28.3446 16.5938 28.3131 16.5604 28.2962 16.5193C28.0197 15.762 28.1133 15.0006 28.5117 14.2496Z" fill="#6A6CFF"/>
<path d="M28.5049 16.0996C28.5049 16.113 28.5088 16.1148 28.5049 16.0996V16.0996Z" fill="#6A6CFF"/>
<path d="M1.61447 17.8847C1.30339 17.8847 1.0498 17.5736 1.0498 17.1919C1.0498 16.8101 1.30339 16.499 1.61447 16.499C1.92556 16.499 2.17914 16.8094 2.17914 17.1919C2.17914 17.5743 1.92625 17.8847 1.61447 17.8847ZM1.61447 16.7069C1.41771 16.7069 1.25766 16.9244 1.25766 17.1919C1.25766 17.4593 1.41771 17.6769 1.61447 17.6769C1.81124 17.6769 1.97129 17.4586 1.97129 17.1919C1.97129 16.9251 1.81124 16.7069 1.61447 16.7069Z" fill="#6A6CFF"/>
<path d="M28.509 17.8847C28.1972 17.8847 27.9443 17.5736 27.9443 17.1919C27.9443 16.8101 28.1972 16.499 28.509 16.499C28.8208 16.499 29.0737 16.8094 29.0737 17.1919C29.0737 17.5743 28.8201 17.8847 28.509 17.8847ZM28.509 16.7069C28.3122 16.7069 28.1522 16.9244 28.1522 17.1919C28.1522 17.4593 28.3122 17.6769 28.509 17.6769C28.7058 17.6769 28.8658 17.4586 28.8658 17.1919C28.8658 16.9251 28.7058 16.7069 28.509 16.7069Z" fill="#6A6CFF"/>
<path d="M23.5776 23.2203C23.7574 23.2203 23.9032 23.0341 23.9032 22.8045C23.9032 22.5748 23.7574 22.3887 23.5776 22.3887C23.3977 22.3887 23.252 22.5748 23.252 22.8045C23.252 23.0341 23.3977 23.2203 23.5776 23.2203Z" fill="#6A6CFF"/>
<path d="M15.4997 5.85159C15.7016 5.91296 15.9084 5.95723 16.1177 5.98392C16.5931 6.0497 17.0744 6.06225 17.5526 6.02133C18.6521 5.93126 19.7696 5.61186 20.7077 5.01877C20.9175 4.88997 21.1143 4.74099 21.2952 4.57395C21.3915 4.48111 21.2446 4.33422 21.1483 4.42707C20.7146 4.84278 20.1306 5.13863 19.5666 5.35481C18.5185 5.76381 17.3875 5.91494 16.2688 5.79546C16.0267 5.77055 15.7877 5.72205 15.5551 5.65066C15.4277 5.60978 15.3729 5.81002 15.4997 5.85159Z" fill="#6A6CFF"/>
<path d="M15.5642 4.05448C15.7659 4.11579 15.9724 4.16006 16.1815 4.18683C16.6572 4.2525 17.1387 4.26528 17.6172 4.22493C18.7161 4.13416 19.8344 3.81474 20.7726 3.22163C20.9826 3.09344 21.1792 2.94442 21.3594 2.7768C21.4564 2.68396 21.3095 2.53776 21.2125 2.62991C20.7788 3.04564 20.1954 3.34219 19.6307 3.55768C18.5826 3.96704 17.4514 4.1182 16.3326 3.99836C16.0908 3.97334 15.8521 3.92508 15.6196 3.85424C15.4921 3.81266 15.4374 4.0136 15.5642 4.05448Z" fill="#6A6CFF"/>
<path d="M15.4997 3.15587C15.7015 3.2179 15.9083 3.26218 16.1177 3.2882C16.5931 3.35421 17.0744 3.36699 17.5526 3.3263C18.6521 3.23554 19.7696 2.91684 20.7077 2.32377C20.9177 2.19495 21.1145 2.04573 21.2952 1.87827C21.3915 1.78613 21.2446 1.63925 21.1483 1.73139C20.7146 2.14709 20.1306 2.44363 19.5666 2.6591C18.5185 3.0683 17.3875 3.21966 16.2688 3.10043C16.0267 3.07552 15.7877 3.02702 15.5551 2.95563C15.4277 2.91406 15.3729 3.11499 15.4997 3.15587Z" fill="#6A6CFF"/>
<path d="M15.5642 4.95214C15.7659 5.01344 15.9724 5.05771 16.1815 5.08448C16.6572 5.15027 17.1387 5.16282 17.6172 5.12189C18.7161 5.03182 19.8344 4.71241 20.7726 4.11934C20.9826 3.99116 21.1792 3.84214 21.3594 3.67454C21.4564 3.58169 21.3095 3.43481 21.2125 3.52765C20.7788 3.94336 20.1954 4.2399 19.6307 4.45537C18.5826 4.86471 17.4514 5.01585 16.3326 4.89602C16.0908 4.87111 15.852 4.82261 15.6196 4.75122C15.4921 4.71034 15.4374 4.91057 15.5642 4.95214Z" fill="#6A6CFF"/>
<path d="M14.4433 5.65109C13.8197 5.85338 13.1199 5.86655 12.4742 5.81597C11.4023 5.73214 10.309 5.41761 9.39576 4.83981C9.20044 4.72001 9.01774 4.58074 8.85048 4.42414C8.75417 4.3313 8.60659 4.47817 8.70359 4.57101C9.16365 5.01093 9.76506 5.31507 10.3526 5.54093C11.4127 5.95175 12.5975 6.13258 13.7303 5.99887C13.9908 5.97334 14.2481 5.92253 14.4987 5.84715C14.6255 5.80558 14.5715 5.60466 14.4433 5.64623V5.65109Z" fill="#6A6CFF"/>
<path d="M14.3802 3.85466C13.7567 4.05627 13.0569 4.07012 12.4111 4.01955C11.3385 3.93572 10.2459 3.62118 9.332 3.04267C9.13657 2.92333 8.95406 2.78402 8.7874 2.62698C8.6904 2.53484 8.54351 2.68102 8.63982 2.77386C9.09989 3.2138 9.70198 3.51864 10.2888 3.74381C11.3489 4.15395 12.5344 4.33547 13.6666 4.20107C13.9273 4.1756 14.1848 4.12479 14.4357 4.04934C14.5625 4.00847 14.505 3.80755 14.3802 3.84912V3.85466Z" fill="#6A6CFF"/>
<path d="M14.4433 2.95547C13.8197 3.15708 13.1199 3.17094 12.4742 3.12036C11.4023 3.03653 10.309 2.72198 9.39576 2.14416C9.20029 2.02457 9.01757 1.88528 8.85048 1.72846C8.75417 1.63632 8.60659 1.7832 8.70359 1.87534C9.16365 2.31529 9.76506 2.62014 10.3526 2.84531C11.4127 3.25547 12.5975 3.43699 13.7303 3.30327C13.9908 3.27751 14.2481 3.22645 14.4987 3.15084C14.6255 3.10996 14.5715 2.90905 14.4433 2.95062V2.95547Z" fill="#6A6CFF"/>
<path d="M14.3802 4.75122C13.7567 4.95353 13.0569 4.96738 12.4111 4.9168C11.3385 4.83296 10.2459 4.51842 9.332 3.93989C9.13689 3.8214 8.95441 3.68327 8.7874 3.52765C8.6904 3.43481 8.54351 3.58169 8.63982 3.67454C9.09989 4.11449 9.70198 4.41934 10.2888 4.64452C11.3489 5.05468 12.5344 5.2362 13.6666 5.10179C13.9273 5.07633 14.1848 5.02551 14.4357 4.95006C14.5625 4.90849 14.505 4.70826 14.3802 4.74914V4.75122Z" fill="#6A6CFF"/>
<path d="M14.9618 17.9156C16.3036 17.9156 17.3914 17.0643 17.3914 16.0142C17.3914 14.9641 16.3036 14.1128 14.9618 14.1128C13.62 14.1128 12.5322 14.9641 12.5322 16.0142C12.5322 17.0643 13.62 17.9156 14.9618 17.9156Z" fill="#353680"/>
<path d="M20.4245 19.12C19.5985 17.9859 18.0038 17.7899 16.8845 18.632C16.38 19.0123 15.6985 19.243 14.948 19.243C14.1976 19.243 13.5161 19.0106 13.012 18.632C11.8901 17.7899 10.2951 17.9859 9.46901 19.12C9.16732 19.5341 9 19.9892 9 20.4675C9 22.3765 11.662 23.9242 14.9468 23.9242C18.2315 23.9242 20.8935 22.3765 20.8935 20.4675C20.8935 19.9892 20.7266 19.5341 20.4245 19.12Z" fill="#B5B6FF"/>
<path fill-rule="evenodd" clip-rule="evenodd" d="M14.17 21.8417C14.4211 21.8854 14.6756 21.9074 14.9305 21.9072C15.6107 21.9039 16.2827 21.759 16.9038 21.4817C17.4074 21.2577 17.9149 20.9404 18.4545 20.5099C18.4768 20.4936 18.4954 20.4729 18.5093 20.449C18.5231 20.4251 18.5318 20.3986 18.5348 20.3712C18.5379 20.3437 18.5351 20.316 18.5268 20.2896C18.5185 20.2633 18.5048 20.239 18.4866 20.2183C18.4668 20.1923 18.4421 20.1705 18.4138 20.1541C18.3855 20.1377 18.3542 20.1272 18.3218 20.1231C18.2894 20.1189 18.2565 20.1213 18.225 20.13C18.1935 20.1388 18.1641 20.1537 18.1384 20.1739C17.0766 21.0211 16.0059 21.4508 14.9555 21.4508H14.9512C13.9021 21.4508 12.828 21.0199 11.756 20.1739C11.7301 20.1538 11.7005 20.139 11.6689 20.1305C11.6372 20.122 11.6042 20.1198 11.5717 20.1242C11.5392 20.1285 11.5079 20.1393 11.4796 20.1559C11.4513 20.1725 11.4267 20.1946 11.407 20.2208C11.389 20.2415 11.3754 20.2657 11.3673 20.2919C11.3591 20.3181 11.3566 20.3457 11.3597 20.3729C11.3628 20.4002 11.3716 20.4265 11.3855 20.4501C11.3994 20.4738 11.4181 20.4943 11.4404 20.5103C12.3767 21.2501 13.2691 21.6845 14.17 21.8417Z" fill="#0B0B19"/>
<path fill-rule="evenodd" clip-rule="evenodd" d="M25.4315 15.6045C25.4636 15.6199 25.4988 15.6277 25.5344 15.6274C25.5924 15.6278 25.6489 15.6092 25.6954 15.5746C25.718 15.5591 25.737 15.539 25.7513 15.5157C25.7656 15.4924 25.7749 15.4663 25.7786 15.4392C25.7823 15.4121 25.7803 15.3845 25.7728 15.3582C25.7652 15.3319 25.7523 15.3075 25.7347 15.2865C25.2763 14.6839 24.5364 14.3222 23.808 14.3421C23.4547 14.3556 23.1089 14.4474 22.7954 14.6107C22.4818 14.774 22.2084 15.0048 21.9949 15.2865C21.9774 15.3074 21.9645 15.3318 21.9569 15.3581C21.9493 15.3843 21.9473 15.4118 21.951 15.4389C21.9546 15.4659 21.9639 15.4919 21.9781 15.5152C21.9924 15.5385 22.0113 15.5586 22.0337 15.5742C22.0827 15.6136 22.1448 15.633 22.2075 15.6286C22.2702 15.6241 22.3289 15.5961 22.3718 15.5501C22.3755 15.5465 22.379 15.5427 22.3823 15.5387C22.385 15.5355 22.3882 15.5315 22.3916 15.5273C22.3985 15.5188 22.4063 15.5093 22.4119 15.5028C22.4373 15.4724 22.4664 15.4398 22.4964 15.409C22.5853 15.3169 22.6825 15.2332 22.7867 15.1588C23.0925 14.9324 23.4618 14.8078 23.8423 14.8028C24.2229 14.7978 24.5953 14.9126 24.907 15.131C25.0161 15.2055 25.1177 15.2904 25.2104 15.3845C25.2467 15.4208 25.2805 15.4576 25.3113 15.4935L25.3413 15.5298C25.3422 15.5308 25.343 15.5319 25.3439 15.5329C25.3456 15.535 25.3473 15.537 25.349 15.5387C25.3711 15.5666 25.3993 15.5891 25.4315 15.6045Z" fill="#0B0B19"/>
<path fill-rule="evenodd" clip-rule="evenodd" d="M8.48233 15.6047C8.51446 15.62 8.54964 15.6278 8.58522 15.6275C8.6432 15.6279 8.6997 15.6093 8.74621 15.5747C8.76873 15.5592 8.78776 15.5391 8.80208 15.5158C8.81641 15.4925 8.82572 15.4664 8.82942 15.4393C8.83311 15.4122 8.83112 15.3846 8.82356 15.3583C8.816 15.332 8.80304 15.3076 8.78551 15.2866C8.32705 14.684 7.58846 14.3211 6.85875 14.3422C6.5055 14.3557 6.15967 14.4475 5.84614 14.6108C5.53262 14.7741 5.25923 15.0049 5.04565 15.2866C5.02816 15.3075 5.01524 15.3319 5.00768 15.3582C5.00013 15.3844 4.99812 15.4119 5.00177 15.439C5.00543 15.466 5.01467 15.492 5.02892 15.5153C5.04316 15.5386 5.0621 15.5587 5.08452 15.5743C5.13344 15.6138 5.19548 15.6333 5.25818 15.6289C5.32089 15.6245 5.37961 15.5965 5.42255 15.5506C5.42628 15.5469 5.4298 15.5429 5.43311 15.5388C5.43578 15.5356 5.439 15.5316 5.44243 15.5274C5.44933 15.5189 5.45705 15.5094 5.46269 15.5029C5.48804 15.4725 5.5172 15.4395 5.5472 15.4091C5.63608 15.317 5.73325 15.2333 5.83748 15.1589C6.1433 14.9325 6.51261 14.8079 6.89312 14.8029C7.27363 14.7979 7.64609 14.9127 7.95776 15.1311C8.06685 15.2056 8.16845 15.2905 8.26114 15.3846C8.29748 15.4213 8.3317 15.4581 8.36213 15.494L8.39213 15.5299L8.39973 15.5392C8.42196 15.567 8.4502 15.5894 8.48233 15.6047Z" fill="#0B0B19"/>
</svg>
