<svg width="30" height="30" viewBox="0 0 30 30" fill="none" xmlns="http://www.w3.org/2000/svg">
<path d="M29.85 15C29.85 23.2014 23.2014 29.85 15 29.85C6.79857 29.85 0.15 23.2014 0.15 15C0.15 6.79857 6.79857 0.15 15 0.15C23.2014 0.15 29.85 6.79857 29.85 15Z" fill="#FEFEFE" stroke="#6A6CFF" stroke-width="0.3"/>
<path d="M13.6577 14.9996C13.2469 13.0226 12.3513 11.3647 10.996 10.0785C9.70826 8.85667 7.95696 7.92295 5.79103 7.30442L5.72665 7.2869L5.6848 7.2434C5.42781 6.98148 5.23602 6.67536 5.12171 6.34463C5.0074 6.01391 4.97309 5.66588 5.02098 5.32285C5.07293 4.96863 5.20856 4.62782 5.41921 4.32221C5.62986 4.0166 5.91088 3.75292 6.24431 3.54803C7.64019 2.66627 9.66125 2.87019 10.7513 4.00388L10.4069 4.25864C9.46618 3.28028 7.7181 3.10517 6.50894 3.86888C6.22545 4.04192 5.98629 4.26501 5.80678 4.52385C5.62728 4.78269 5.51138 5.07157 5.46653 5.37199C5.42771 5.65153 5.45393 5.93506 5.54356 6.20546C5.6332 6.47585 5.78442 6.72749 5.98806 6.94516C8.19906 7.58516 9.99349 8.54882 11.3218 9.80904C12.7383 11.1512 13.6693 12.8729 14.0961 14.9279L13.6577 14.9996Z" fill="#6A6CFF"/>
<path d="M16.2028 15.0001L15.7598 14.9295C16.186 12.8745 17.119 11.1528 18.5336 9.81068C19.862 8.55046 21.6565 7.5868 23.8683 6.94681C24.0715 6.72892 24.2225 6.47726 24.3121 6.20693C24.4017 5.9366 24.4281 5.65316 24.3898 5.37364C24.3448 5.07319 24.2288 4.78429 24.0492 4.52545C23.8696 4.26661 23.6303 4.04354 23.3467 3.87053C22.1381 3.10683 20.3893 3.28194 19.4486 4.26029L19.1041 4.00554C20.1929 2.87241 22.2148 2.66793 23.6113 3.54969C23.9454 3.7543 24.227 4.01786 24.4383 4.32348C24.6495 4.6291 24.7856 4.97005 24.838 5.3245C24.886 5.66754 24.8518 6.01559 24.7375 6.34634C24.6231 6.67708 24.4312 6.9832 24.1741 7.24505L24.1323 7.28855L24.0717 7.30606C21.9057 7.92459 20.1543 8.85832 18.8659 10.0801C17.5092 11.3652 16.6136 13.0208 16.2028 15.0001Z" fill="#6A6CFF"/>
<path d="M14.9618 17.9156C16.3036 17.9156 17.3914 17.0643 17.3914 16.0142C17.3914 14.9641 16.3036 14.1128 14.9618 14.1128C13.62 14.1128 12.5322 14.9641 12.5322 16.0142C12.5322 17.0643 13.62 17.9156 14.9618 17.9156Z" fill="#353680"/>
<path d="M15 29C7.83175 29 2 23.1682 2 16C2 8.83184 7.83175 3 15 3C22.1683 3 28 8.83184 28 16C28 23.1682 22.169 29 15 29ZM15 3.49863C8.10822 3.49863 2.50138 9.10679 2.50138 16C2.50138 22.8932 8.10822 28.5014 15 28.5014C21.8918 28.5014 27.4986 22.8932 27.4986 16C27.4986 9.10679 21.8918 3.49863 15 3.49863Z" fill="#6A6CFF"/>
<path d="M17.8233 18.9707C20.149 18.3067 22.5999 18.1683 24.989 18.5661C25.5933 18.6679 26.1913 18.8029 26.7799 18.9707C27.0007 19.033 27.0947 18.6991 26.8746 18.6361C23.8881 17.7893 20.7151 17.7893 17.7286 18.6361C17.5091 18.6984 17.6025 19.033 17.8233 18.9707Z" fill="#6A6CFF"/>
<path d="M17.8235 20.1488C18.4971 20.0336 19.1835 20.0071 19.8644 20.0698C20.841 20.1623 21.7871 20.4516 22.6425 20.9192C23.0171 21.1245 23.3722 21.3617 23.7039 21.6279C23.7378 21.6593 23.7828 21.6768 23.8296 21.6768C23.8764 21.6768 23.9214 21.6593 23.9553 21.6279C23.9886 21.5954 24.0073 21.5515 24.0073 21.5056C24.0073 21.4598 23.9886 21.4158 23.9553 21.3833C22.5089 20.2171 20.6679 19.6162 18.7909 19.6978C18.4342 19.7143 18.0789 19.7532 17.7273 19.8142C17.682 19.8268 17.6435 19.8562 17.6202 19.8961C17.5969 19.936 17.5906 19.9832 17.6027 20.0275C17.6164 20.0712 17.6468 20.108 17.6876 20.1306C17.7284 20.1531 17.7765 20.1596 17.8221 20.1488H17.8235Z" fill="#6A6CFF"/>
<path d="M17.4193 21.1936C17.4763 21.1992 17.5333 21.2054 17.5895 21.2124H17.6166L17.6544 21.2172L17.774 21.2352C17.9322 21.2608 18.0896 21.2913 18.2449 21.3274C18.6273 21.4143 19.0007 21.5354 19.3603 21.689C20.1401 22.0238 20.8452 22.5034 21.436 23.1011C21.5576 23.2244 21.6741 23.3519 21.7857 23.4835C21.8812 23.5972 21.9481 23.6831 22.0386 23.8064C22.0633 23.8452 22.1023 23.8732 22.1477 23.8847C22.1931 23.8962 22.2412 23.8902 22.2822 23.8681C22.3226 23.8445 22.3519 23.8065 22.3638 23.7622C22.3756 23.7179 22.3691 23.6708 22.3456 23.6311C21.4062 22.3453 20.0317 21.4219 18.4628 21.0225C18.12 20.9377 17.7712 20.878 17.4193 20.8438C17.3721 20.8439 17.3269 20.8622 17.2936 20.8947C17.2602 20.9271 17.2414 20.9711 17.2412 21.017C17.2425 21.0625 17.2616 21.1059 17.2948 21.1381C17.3279 21.1703 17.3725 21.189 17.4193 21.1902V21.1936Z" fill="#6A6CFF"/>
<path d="M12.2711 18.6366C11.2146 18.3374 10.13 18.1419 9.03338 18.0533C7.04382 17.8943 5.04115 18.092 3.12504 18.6366C2.90563 18.6989 2.99895 19.0336 3.21979 18.9712C5.60003 18.2911 8.11099 18.1627 10.5514 18.5964C11.0993 18.6942 11.6417 18.8193 12.1763 18.9712C12.3972 19.0336 12.4912 18.6989 12.2711 18.6366Z" fill="#6A6CFF"/>
<path d="M12.2716 19.8146C10.5341 19.5139 8.72116 19.7751 7.17675 20.621C6.77625 20.8414 6.39693 21.0965 6.04337 21.383C6.01026 21.4155 5.9917 21.4595 5.9917 21.5053C5.9917 21.551 6.01026 21.595 6.04337 21.6275C6.07723 21.6593 6.12243 21.677 6.16946 21.677C6.21649 21.677 6.26169 21.6593 6.29555 21.6275C7.67511 20.5247 9.4271 19.9602 11.2109 20.0439C11.5359 20.057 11.8596 20.0919 12.1797 20.1485C12.2253 20.1593 12.2734 20.1528 12.3142 20.1303C12.355 20.1077 12.3853 20.0709 12.3991 20.0273C12.4112 19.9829 12.4049 19.9357 12.3816 19.8958C12.3583 19.8559 12.3198 19.8265 12.2744 19.8139L12.2716 19.8146Z" fill="#6A6CFF"/>
<path d="M12.5829 20.8472C10.9609 21.0061 9.4489 21.7179 8.31427 22.8566C8.07611 23.0989 7.85638 23.3578 7.65684 23.6312C7.63321 23.6709 7.62669 23.7181 7.6387 23.7625C7.65071 23.8069 7.68026 23.8449 7.72093 23.8681C7.76186 23.8905 7.81008 23.8965 7.85549 23.885C7.9009 23.8735 7.93997 23.8454 7.96453 23.8065C8.8518 22.5939 10.1519 21.7262 11.6342 21.3572C11.8101 21.3128 11.9903 21.2761 12.1655 21.2456C12.3265 21.2186 12.4248 21.2054 12.5829 21.1902C12.6298 21.189 12.6743 21.1703 12.7075 21.1381C12.7406 21.1059 12.7597 21.0625 12.761 21.017C12.7608 20.9711 12.742 20.9271 12.7086 20.8947C12.6753 20.8622 12.6301 20.8439 12.5829 20.8438V20.8472Z" fill="#6A6CFF"/>
<path fill-rule="evenodd" clip-rule="evenodd" d="M14.1337 24.7206C14.4136 24.7643 14.6973 24.7863 14.9814 24.7861C15.7395 24.7828 16.4885 24.6379 17.1807 24.3606C17.7421 24.1366 18.3077 23.8193 18.9091 23.3888C18.934 23.3725 18.9548 23.3518 18.9702 23.3279C18.9856 23.304 18.9953 23.2775 18.9987 23.2501C19.002 23.2226 18.999 23.1949 18.9897 23.1686C18.9805 23.1422 18.9652 23.1179 18.9449 23.0972C18.9229 23.0712 18.8953 23.0494 18.8638 23.033C18.8322 23.0167 18.7974 23.0061 18.7612 23.002C18.7251 22.9978 18.6884 23.0002 18.6533 23.0089C18.6182 23.0177 18.5854 23.0326 18.5568 23.0528C17.3734 23.9 16.18 24.3297 15.0092 24.3297H15.0045C13.8351 24.3297 12.638 23.8988 11.4432 23.0528C11.4143 23.0327 11.3813 23.018 11.346 23.0094C11.3108 23.0009 11.2739 22.9987 11.2377 23.0031C11.2015 23.0074 11.1666 23.0182 11.1351 23.0348C11.1036 23.0514 11.0761 23.0735 11.0542 23.0997C11.0341 23.1204 11.019 23.1446 11.0099 23.1708C11.0008 23.197 10.9979 23.2246 11.0014 23.2518C11.0049 23.2791 11.0148 23.3054 11.0302 23.329C11.0457 23.3527 11.0666 23.3732 11.0914 23.3892C12.135 24.129 13.1296 24.5634 14.1337 24.7206Z" fill="#0B0B19"/>
<path fill-rule="evenodd" clip-rule="evenodd" d="M25.4319 15.6045C25.4641 15.6199 25.4993 15.6277 25.5349 15.6274C25.5929 15.6278 25.6494 15.6092 25.6959 15.5746C25.7184 15.5591 25.7375 15.539 25.7518 15.5157C25.7661 15.4924 25.7754 15.4663 25.7791 15.4392C25.7828 15.4121 25.7808 15.3845 25.7733 15.3582C25.7657 15.3319 25.7527 15.3075 25.7352 15.2865C25.2768 14.6839 24.5369 14.3222 23.8085 14.3421C23.4552 14.3556 23.1094 14.4474 22.7959 14.6107C22.4823 14.774 22.2089 15.0048 21.9954 15.2865C21.9779 15.3074 21.9649 15.3318 21.9574 15.3581C21.9498 15.3843 21.9478 15.4118 21.9515 15.4389C21.9551 15.4659 21.9644 15.4919 21.9786 15.5152C21.9929 15.5385 22.0118 15.5586 22.0342 15.5742C22.0832 15.6136 22.1453 15.633 22.208 15.6286C22.2707 15.6241 22.3294 15.5961 22.3723 15.5501C22.376 15.5465 22.3795 15.5427 22.3828 15.5387C22.3855 15.5355 22.3887 15.5315 22.3921 15.5273C22.399 15.5188 22.4068 15.5093 22.4124 15.5028C22.4377 15.4724 22.4669 15.4398 22.4969 15.409C22.5858 15.3169 22.683 15.2332 22.7872 15.1588C23.093 14.9324 23.4623 14.8078 23.8428 14.8028C24.2233 14.7978 24.5958 14.9126 24.9075 15.131C25.0166 15.2055 25.1182 15.2904 25.2109 15.3845C25.2472 15.4208 25.281 15.4576 25.3118 15.4935L25.3418 15.5298C25.3427 15.5308 25.3435 15.5319 25.3444 15.5329C25.3461 15.535 25.3478 15.537 25.3494 15.5387C25.3716 15.5666 25.3998 15.5891 25.4319 15.6045Z" fill="#0B0B19"/>
<path fill-rule="evenodd" clip-rule="evenodd" d="M8.48233 15.6047C8.51446 15.62 8.54964 15.6278 8.58522 15.6275C8.6432 15.6279 8.6997 15.6093 8.74621 15.5747C8.76873 15.5592 8.78776 15.5391 8.80208 15.5158C8.81641 15.4925 8.82572 15.4664 8.82942 15.4393C8.83311 15.4122 8.83112 15.3846 8.82356 15.3583C8.816 15.332 8.80304 15.3076 8.78551 15.2866C8.32705 14.684 7.58846 14.3211 6.85875 14.3422C6.5055 14.3557 6.15967 14.4475 5.84614 14.6108C5.53262 14.7741 5.25923 15.0049 5.04565 15.2866C5.02816 15.3075 5.01524 15.3319 5.00768 15.3582C5.00013 15.3844 4.99812 15.4119 5.00177 15.439C5.00543 15.466 5.01467 15.492 5.02892 15.5153C5.04316 15.5386 5.0621 15.5587 5.08452 15.5743C5.13344 15.6138 5.19548 15.6333 5.25818 15.6289C5.32089 15.6245 5.37961 15.5965 5.42255 15.5506C5.42628 15.5469 5.4298 15.5429 5.43311 15.5388C5.43578 15.5356 5.439 15.5316 5.44243 15.5274C5.44933 15.5189 5.45705 15.5094 5.46269 15.5029C5.48804 15.4725 5.5172 15.4395 5.5472 15.4091C5.63608 15.317 5.73325 15.2333 5.83748 15.1589C6.1433 14.9325 6.51261 14.8079 6.89312 14.8029C7.27363 14.7979 7.64609 14.9127 7.95776 15.1311C8.06685 15.2056 8.16845 15.2905 8.26114 15.3846C8.29748 15.4213 8.3317 15.4581 8.36213 15.494L8.39213 15.5299L8.39973 15.5392C8.42196 15.567 8.4502 15.5894 8.48233 15.6047Z" fill="#0B0B19"/>
</svg>
