<svg width="30" height="30" viewBox="0 0 30 30" fill="none" xmlns="http://www.w3.org/2000/svg">
<path d="M29.85 15C29.85 23.2014 23.2014 29.85 15 29.85C6.79857 29.85 0.15 23.2014 0.15 15C0.15 6.79857 6.79857 0.15 15 0.15C23.2014 0.15 29.85 6.79857 29.85 15Z" fill="#FEFEFE" stroke="#6A6CFF" stroke-width="0.3"/>
<path d="M3.71676 14.378C4.66251 14.6011 5.17799 14.9946 5.17175 15.1311C5.17111 15.1565 5.16495 15.1814 5.1537 15.2041C5.14246 15.2268 5.12639 15.2469 5.10662 15.2627C5.0476 15.2968 4.97996 15.3129 4.91193 15.3092C4.8707 15.3084 4.82982 15.3014 4.79068 15.2884L4.75881 15.2773L4.71031 15.2627C4.64103 15.244 4.57174 15.2281 4.49414 15.2156C4.45742 15.2094 4.42001 15.2045 4.38329 15.1997H4.37012H4.35142C4.32925 15.1997 4.30776 15.1962 4.28559 15.1955C4.18146 15.1902 4.0771 15.1914 3.97312 15.199H3.95649L3.92185 15.2032L3.84009 15.2149C3.7909 15.2233 3.74102 15.2323 3.69252 15.2433C3.64402 15.2544 3.60244 15.2662 3.56433 15.2766H3.55395L3.52692 15.2856L3.46872 15.3064C3.39422 15.3338 3.32156 15.366 3.25117 15.4027L3.20959 15.4249L3.20266 15.4283H3.19782L3.18188 15.438C3.16318 15.4498 3.14447 15.4609 3.12645 15.4734C3.06295 15.5146 3.00294 15.5609 2.94701 15.6119C2.90456 15.6474 2.85124 15.6672 2.79596 15.6681H2.77587C2.70762 15.6687 2.6406 15.6499 2.58257 15.614C2.47102 15.5385 2.49665 15.4221 2.58257 15.3466C2.65829 15.2771 2.74093 15.2156 2.82922 15.163C3.16688 14.9631 3.5464 14.8445 3.93778 14.8166C3.92877 14.8166 3.92046 14.8089 3.91145 14.8062C3.87334 14.7916 3.83455 14.7785 3.79575 14.7653L3.73962 14.7466L3.7133 14.7383C3.626 14.7126 3.53801 14.6891 3.44863 14.669C3.35925 14.6489 3.25601 14.6274 3.15832 14.6115C3.10428 14.6025 3.04885 14.5942 2.99412 14.5865L2.91998 14.5775L2.87703 14.5727H2.87495C2.65197 14.5528 2.42793 14.5475 2.20426 14.5568C2.14883 14.5568 2.09341 14.5623 2.03868 14.5671L1.96939 14.5727C2.02413 14.5685 1.94376 14.5727 1.93267 14.5768C1.83983 14.5879 1.74768 14.6011 1.65553 14.617C1.49694 14.6446 1.3399 14.6804 1.18508 14.7244L1.1248 14.7417H1.11649H1.12272C1.09362 14.7528 1.06245 14.7611 1.03335 14.7708C0.981385 14.7888 0.929414 14.8076 0.878836 14.827C0.809551 14.854 0.740266 14.8831 0.67098 14.9143C0.618171 14.937 0.559751 14.9433 0.50329 14.9325C0.446829 14.9216 0.394938 14.894 0.354351 14.8533C0.285066 14.7743 0.334948 14.6662 0.43749 14.6191C1.44767 14.2013 2.54654 14.1417 3.71676 14.378Z" fill="#0B0B19"/>
<path d="M26.327 14.378C25.3813 14.6011 24.8659 14.9946 24.8721 15.1311C24.8728 15.1565 24.8789 15.1814 24.8902 15.2041C24.9014 15.2268 24.9175 15.2469 24.9372 15.2627C24.9963 15.2968 25.0639 15.3129 25.1319 15.3092C25.1732 15.3084 25.214 15.3014 25.2532 15.2884L25.285 15.2773L25.3335 15.2627C25.4028 15.244 25.4756 15.2281 25.5497 15.2156C25.5864 15.2094 25.6238 15.2045 25.6605 15.1997H25.6737H25.6924C25.7146 15.1997 25.7361 15.1962 25.7582 15.1955C25.8623 15.1902 25.9667 15.1914 26.0707 15.199H26.0873L26.1219 15.2032L26.2037 15.2149C26.2529 15.2233 26.3028 15.2323 26.3513 15.2433C26.3998 15.2544 26.4413 15.2662 26.4794 15.2766H26.4898L26.5168 15.2856L26.575 15.3064C26.6495 15.3338 26.7222 15.366 26.7926 15.4027L26.8341 15.4249L26.8411 15.4283H26.8459L26.8619 15.438C26.8806 15.4498 26.8993 15.4609 26.9173 15.4734C26.9808 15.5146 27.0408 15.5609 27.0967 15.6119C27.1392 15.6474 27.1925 15.6672 27.2477 15.6681H27.2678C27.3361 15.6687 27.4031 15.6499 27.4611 15.614C27.5727 15.5385 27.547 15.4221 27.4611 15.3466C27.3854 15.2771 27.3028 15.2156 27.2145 15.163C26.8769 14.9631 26.4974 14.8445 26.106 14.8166C26.115 14.8166 26.1233 14.8089 26.1323 14.8062C26.1704 14.7916 26.2092 14.7785 26.248 14.7653L26.3041 14.7466L26.3305 14.7383C26.4178 14.7126 26.5058 14.6891 26.5951 14.669C26.6845 14.6489 26.7877 14.6274 26.8854 14.6115C26.9399 14.6022 26.9946 14.5939 27.0496 14.5865L27.1237 14.5775L27.1667 14.5727H27.1708C27.3938 14.5528 27.6178 14.5475 27.8415 14.5568C27.8969 14.5568 27.9523 14.5623 28.0071 14.5671L28.0763 14.5727C28.0216 14.5685 28.102 14.5727 28.1131 14.5768C28.2059 14.5879 28.298 14.6011 28.3902 14.617C28.5488 14.6445 28.7058 14.6803 28.8606 14.7244L28.9209 14.7417H28.9292H28.9229C28.952 14.7528 28.9832 14.7611 29.0123 14.7708C29.0643 14.7888 29.1162 14.8076 29.1668 14.827C29.2361 14.854 29.3054 14.8831 29.3746 14.9143C29.4275 14.937 29.4859 14.9433 29.5423 14.9325C29.5988 14.9216 29.6507 14.894 29.6913 14.8533C29.7605 14.7743 29.7107 14.6662 29.6081 14.6191C28.5959 14.2013 27.4972 14.1417 26.327 14.378Z" fill="#0B0B19"/>
<path d="M20.37 19.151C19.6024 17.8997 17.9174 17.6426 16.732 18.508C16.1789 18.8863 15.5245 19.0887 14.8544 19.0887C14.1843 19.0887 13.5299 18.8863 12.9768 18.508C11.7914 17.6426 10.1065 17.8997 9.3388 19.151C9.12117 19.4928 9.00379 19.8889 9 20.2942C9 22.1739 11.621 23.6974 14.8544 23.6974C18.0879 23.6974 20.7088 22.1732 20.7088 20.2942C20.705 19.8889 20.5877 19.4928 20.37 19.151Z" fill="#B5B6FF"/>
<path d="M14.82 18.1535C16.1401 18.1535 17.2103 17.3159 17.2103 16.2828C17.2103 15.2496 16.1401 14.4121 14.82 14.4121C13.4999 14.4121 12.4297 15.2496 12.4297 16.2828C12.4297 17.3159 13.4999 18.1535 14.82 18.1535Z" fill="#353680"/>
<path d="M18.5827 19.9723L18.5079 20.036L18.4656 20.0721L18.4441 20.0894L18.4656 20.0721L18.4504 20.0845C18.3776 20.1434 18.3035 20.2009 18.228 20.2563C18.0331 20.3999 17.83 20.532 17.6197 20.652C17.4941 20.7231 17.3666 20.7901 17.2372 20.8529L17.1333 20.9014C17.1229 20.9069 17.064 20.9305 17.1153 20.9104C17.0959 20.918 17.0772 20.927 17.0585 20.9353C16.9844 20.9672 16.9102 20.9977 16.8354 21.0261C16.508 21.1528 16.1696 21.2493 15.8246 21.3143C15.7782 21.3233 15.7317 21.3309 15.686 21.3385L15.6167 21.3489L15.5869 21.3538C15.6299 21.3476 15.5869 21.3538 15.5745 21.3538C15.4768 21.367 15.3798 21.3773 15.2814 21.385C15.0846 21.4009 14.8871 21.4064 14.6897 21.4016C14.503 21.3974 14.3166 21.3835 14.1313 21.36L14.062 21.351H14.0676L14.0322 21.3462L13.9013 21.3247C13.8154 21.3094 13.7302 21.2921 13.6456 21.2734C13.3306 21.2029 13.0219 21.1065 12.7228 20.9852L12.6189 20.9422L12.5704 20.9215L12.5496 20.9125C12.5246 20.9014 12.5288 20.9 12.5496 20.9125C12.4886 20.8771 12.4193 20.8529 12.3563 20.8217C12.2371 20.7635 12.1196 20.7011 12.0036 20.6346C11.8096 20.524 11.6215 20.403 11.4404 20.2723C11.3711 20.2224 11.3018 20.1704 11.2325 20.1171L11.1889 20.0825L11.1695 20.0665L11.1612 20.0596C11.1376 20.0409 11.1785 20.0734 11.1813 20.0762L11.112 20.018L11.0558 19.9702C11.0395 19.9531 11.0199 19.9395 10.9982 19.9301C10.9765 19.9208 10.9531 19.916 10.9294 19.916C10.9058 19.916 10.8824 19.9208 10.8606 19.9301C10.8389 19.9395 10.8193 19.9531 10.803 19.9702C10.7695 20.0068 10.751 20.0547 10.751 20.1043C10.751 20.1539 10.7695 20.2017 10.803 20.2383C11.5293 20.8694 12.3884 21.3287 13.3165 21.5824C14.0572 21.782 14.8301 21.8324 15.5904 21.7307C16.2981 21.6336 16.9833 21.4131 17.6148 21.0794C18.0237 20.8626 18.4079 20.6022 18.7608 20.3028L18.8356 20.2383C18.8692 20.2018 18.8878 20.1539 18.8878 20.1043C18.8878 20.0546 18.8692 20.0068 18.8356 19.9702C18.8191 19.9532 18.7994 19.9398 18.7776 19.9305C18.7559 19.9213 18.7325 19.9166 18.7088 19.9166C18.6852 19.9166 18.6618 19.9213 18.64 19.9305C18.6182 19.9398 18.5985 19.9532 18.582 19.9702L18.5827 19.9723Z" fill="#0B0B19"/>
</svg>
