<svg width="30" height="30" viewBox="0 0 30 30" fill="none" xmlns="http://www.w3.org/2000/svg">
<path d="M29.85 15C29.85 23.2014 23.2014 29.85 15 29.85C6.79857 29.85 0.15 23.2014 0.15 15C0.15 6.79857 6.79857 0.15 15 0.15C23.2014 0.15 29.85 6.79857 29.85 15Z" fill="#FEFEFE" stroke="#6A6CFF" stroke-width="0.3"/>
<path d="M15.0044 28.7526H14.9933C12.3855 28.764 9.83947 27.96 7.7111 26.4532C6.89171 25.885 6.24454 25.1021 5.84049 24.1905C5.47305 23.3486 5.33168 22.4254 5.43035 21.5121C5.53583 20.5325 5.90265 19.5993 6.49243 18.8101C7.14036 17.9532 8.01095 17.2904 9.00944 16.8938C9.38116 16.7487 9.6999 16.4939 9.92328 16.1632C10.1467 15.8325 10.2641 15.4417 10.26 15.0427C10.2461 13.9674 9.32052 13.0931 8.19815 13.0931H4.62182C4.35163 13.0976 4.08474 13.0333 3.84622 12.9063C3.60771 12.7793 3.40542 12.5937 3.25836 12.367C3.1358 12.1765 3.06009 11.9596 3.03746 11.7342C3.01482 11.5088 3.04587 11.2812 3.1281 11.0701C3.80013 9.3256 5.3278 7.74807 7.43051 6.62711C9.60734 5.46665 12.222 4.85352 14.9933 4.85352H15.0044C17.7757 4.85352 20.3897 5.46665 22.5665 6.62711C24.6692 7.74807 26.1976 9.3256 26.8696 11.0701C26.9517 11.2811 26.9827 11.5086 26.9599 11.7339C26.9371 11.9593 26.8613 12.176 26.7386 12.3663C26.5925 12.5937 26.3909 12.7801 26.1529 12.9081C25.9149 13.036 25.6482 13.1014 25.378 13.0979H21.8016C20.6793 13.0979 19.7543 13.9723 19.7398 15.0475C19.7356 15.4461 19.8526 15.8365 20.0753 16.1671C20.298 16.4977 20.6159 16.7528 20.9869 16.8987C21.986 17.2933 22.8578 17.9545 23.5073 18.8101C24.0971 19.5993 24.464 20.5325 24.5694 21.5121C24.6681 22.4254 24.5267 23.3486 24.1593 24.1905C23.7552 25.1021 23.1081 25.885 22.2887 26.4532C20.1597 27.9605 17.6129 28.7645 15.0044 28.7526ZM14.9933 5.33571C12.3017 5.33571 9.7653 5.92945 7.65914 7.0518C5.65897 8.11803 4.21028 9.60618 3.58051 11.2419C3.5258 11.3822 3.50519 11.5335 3.52036 11.6833C3.53554 11.8332 3.58607 11.9773 3.66781 12.1038C3.77044 12.2619 3.91159 12.3913 4.07798 12.4799C4.24438 12.5685 4.43056 12.6133 4.61905 12.6102H8.19538C9.58101 12.6102 10.7242 13.6993 10.7422 15.035C10.7479 15.5318 10.6023 16.0185 10.3249 16.4305C10.0475 16.8426 9.65127 17.1605 9.18889 17.3421C8.27284 17.7057 7.47378 18.313 6.87833 19.0984C6.34054 19.8173 6.00557 20.6674 5.90839 21.5599C5.81868 22.3891 5.94692 23.2273 6.28042 23.9917C6.65012 24.8232 7.24172 25.5368 7.99031 26.0542C10.0367 27.5028 12.4847 28.2755 14.9919 28.2642H15.003C17.5088 28.2747 19.9553 27.502 22.0005 26.0542C22.7492 25.5369 23.3409 24.8233 23.7103 23.9917C24.0438 23.2273 24.1721 22.3891 24.0824 21.5599C23.9852 20.6674 23.6502 19.8173 23.1124 19.0984C22.517 18.3133 21.7183 17.706 20.8026 17.3421C20.34 17.1606 19.9435 16.8426 19.6659 16.4304C19.3884 16.0182 19.2428 15.5313 19.2486 15.0343C19.2666 13.6958 20.4091 12.6095 21.7954 12.6095H25.3717C25.5602 12.6126 25.7464 12.5678 25.9128 12.4792C26.0792 12.3906 26.2203 12.2612 26.3229 12.1031C26.4047 11.9766 26.4552 11.8325 26.4704 11.6827C26.4856 11.5328 26.465 11.3815 26.4102 11.2412C25.7805 9.60549 24.3318 8.11734 22.3323 7.0511C20.2255 5.92875 17.6904 5.33502 14.9982 5.33502L14.9933 5.33571Z" fill="#6A6CFF"/>
<path d="M22.9022 15.5346C22.2426 15.3108 21.8838 14.918 21.8858 14.7808C21.8843 14.7343 21.8996 14.6889 21.9288 14.6527C21.9475 14.6358 21.9694 14.623 21.9932 14.6149C22.0171 14.6068 22.0423 14.6036 22.0674 14.6056C22.0967 14.6068 22.1255 14.6141 22.1519 14.627L22.1741 14.6374L22.208 14.652C22.257 14.671 22.3072 14.6867 22.3583 14.6991C22.384 14.7053 22.4103 14.7102 22.4359 14.715H22.4449H22.4581L22.5038 14.7199C22.5763 14.7249 22.6491 14.7237 22.7213 14.7164H22.731L22.7553 14.7122C22.774 14.7088 22.7934 14.7053 22.8121 14.7005C22.8467 14.6928 22.8814 14.6831 22.9153 14.6721C22.9493 14.661 22.9777 14.6499 23.0047 14.6388H23.0116L23.0303 14.6305L23.0712 14.6097C23.1238 14.5809 23.1745 14.5487 23.2229 14.5134L23.252 14.4905L23.2562 14.4871L23.2673 14.4781L23.306 14.4427C23.3513 14.3998 23.3932 14.3534 23.4314 14.3042C23.4436 14.2877 23.4593 14.2741 23.4774 14.2643C23.4955 14.2546 23.5155 14.2491 23.536 14.2481H23.5506C23.6022 14.2474 23.6519 14.2671 23.6892 14.3028C23.7218 14.3397 23.7399 14.3872 23.7399 14.4365C23.7399 14.4858 23.7218 14.5333 23.6892 14.5702C23.6382 14.637 23.5806 14.6985 23.5173 14.7538C23.3 14.9448 23.03 15.0656 22.7428 15.1002L22.7615 15.1106C22.7879 15.1245 22.8149 15.1383 22.8419 15.1508L22.8814 15.1695L22.9001 15.1778C22.9604 15.2034 23.022 15.227 23.0844 15.2471C23.1467 15.2672 23.2188 15.2887 23.2867 15.3053C23.3248 15.3143 23.3629 15.3226 23.4017 15.3295L23.4529 15.3385L23.4827 15.3434C23.6378 15.3631 23.7943 15.3687 23.9503 15.36C23.9891 15.36 24.0279 15.3538 24.066 15.3496L24.1145 15.3434C24.0764 15.3482 24.1325 15.3434 24.1402 15.3392C24.2046 15.3288 24.269 15.315 24.3327 15.2991C24.4444 15.2712 24.5539 15.2353 24.6604 15.1917L24.7027 15.1744H24.7089H24.7041C24.7249 15.164 24.7463 15.1556 24.7671 15.1452C24.8031 15.1279 24.8364 15.1092 24.8745 15.0891C24.9237 15.0621 24.9715 15.033 25.0186 15.0018C25.0371 14.991 25.0575 14.984 25.0788 14.9812C25.1 14.9784 25.1216 14.98 25.1422 14.9857C25.1628 14.9915 25.1821 15.0013 25.1988 15.0147C25.2156 15.0281 25.2294 15.0447 25.2396 15.0635C25.2607 15.1027 25.2664 15.1483 25.2557 15.1915C25.2449 15.2347 25.2184 15.2723 25.1814 15.297C24.4838 15.7134 23.7183 15.7729 22.9022 15.5346Z" fill="#0B0B19"/>
<path d="M24.7158 15.165C24.7289 15.1595 24.7301 15.1576 24.7158 15.165V15.165Z" fill="#6A6CFF"/>
<path d="M7.13983 15.5354C7.79942 15.3116 8.159 14.9188 8.15692 14.7816C8.15815 14.734 8.14217 14.6875 8.1119 14.6507C8.0932 14.6339 8.07127 14.621 8.04745 14.6129C8.02363 14.6048 7.99841 14.6016 7.97333 14.6036C7.94397 14.6048 7.91518 14.6121 7.8888 14.6251L7.86663 14.6355L7.83268 14.65C7.78342 14.669 7.73297 14.6848 7.68164 14.6971C7.656 14.7034 7.63036 14.7082 7.60473 14.713H7.59573H7.5881L7.54168 14.7179C7.4692 14.7229 7.39641 14.7217 7.32412 14.7144H7.31512L7.29156 14.7103C7.27216 14.7068 7.25345 14.7034 7.23474 14.6985C7.19986 14.6908 7.1654 14.6813 7.13151 14.6701C7.09963 14.6597 7.06847 14.6479 7.04214 14.6368H7.03521L7.0165 14.6285L6.97562 14.6077C6.92284 14.5793 6.87214 14.5471 6.82389 14.5114L6.79479 14.4886L6.79063 14.4851H6.78647L6.77608 14.4761L6.73728 14.4408C6.69187 14.398 6.64994 14.3516 6.61187 14.3022C6.59961 14.2856 6.58379 14.2719 6.56557 14.2622C6.54735 14.2525 6.52718 14.247 6.50656 14.2461H6.4927C6.44232 14.2464 6.39397 14.266 6.3576 14.3008C6.32492 14.3377 6.30687 14.3853 6.30687 14.4345C6.30687 14.4838 6.32492 14.5314 6.3576 14.5683C6.40903 14.6349 6.46681 14.6964 6.53012 14.7518C6.74725 14.9427 7.01702 15.0635 7.30402 15.0983C7.29779 15.0983 7.29225 15.1052 7.28601 15.1086C7.25899 15.1225 7.23197 15.1364 7.20495 15.1488L7.16615 15.1675L7.14744 15.1758C7.08647 15.2015 7.02481 15.225 6.96246 15.2451C6.9001 15.2652 6.82874 15.2867 6.76084 15.3033C6.72274 15.3123 6.68462 15.3206 6.64582 15.3276L6.59455 15.3366L6.56407 15.3414C6.40901 15.3612 6.25247 15.3667 6.09639 15.3581C6.05829 15.3581 6.01949 15.3518 5.98139 15.3477L5.9322 15.3414C5.97031 15.3463 5.91418 15.3414 5.90725 15.3373C5.84212 15.3269 5.77768 15.313 5.71394 15.2971C5.60228 15.2692 5.49277 15.2333 5.38623 15.1897L5.34466 15.1724H5.33842H5.34258C5.32249 15.162 5.301 15.1537 5.28022 15.1433C5.24419 15.126 5.21093 15.1073 5.17282 15.0872C5.12363 15.0602 5.07514 15.0311 5.02803 14.9999C5.00964 14.9889 4.98922 14.9818 4.96801 14.979C4.9468 14.9762 4.92525 14.9777 4.90465 14.9835C4.88405 14.9893 4.86483 14.9992 4.84817 15.0126C4.8315 15.026 4.81774 15.0426 4.80771 15.0615C4.78654 15.1006 4.78068 15.1462 4.79132 15.1894C4.80195 15.2326 4.82829 15.2702 4.8652 15.295C5.55874 15.7142 6.32435 15.7737 7.13983 15.5354Z" fill="#0B0B19"/>
<path d="M5.32474 15.165C5.31166 15.1595 5.31041 15.1576 5.32474 15.165V15.165Z" fill="#6A6CFF"/>
<path d="M14.9992 18.1523C16.319 18.1523 17.389 17.3148 17.389 16.2817C17.389 15.2486 16.319 14.4111 14.9992 14.4111C13.6793 14.4111 12.6094 15.2486 12.6094 16.2817C12.6094 17.3148 13.6793 18.1523 14.9992 18.1523Z" fill="#353680"/>
<path d="M20.3696 19.1509C19.6019 17.8997 17.9171 17.6426 16.731 18.508C16.178 18.8861 15.5237 19.0884 14.8538 19.0884C14.1839 19.0884 13.5297 18.8861 12.9767 18.508C11.7913 17.6426 10.1064 17.8997 9.3381 19.1509C9.12099 19.493 9.00388 19.8889 9 20.294C9 22.1737 11.6209 23.6972 14.8542 23.6972C18.0875 23.6972 20.7083 22.173 20.7083 20.294C20.7042 19.8889 20.5869 19.4929 20.3696 19.1509Z" fill="#B5B6FF"/>
<path d="M18.8304 20.056L18.7556 20.1197L18.7126 20.1558L18.6911 20.1731L18.7126 20.1558L18.6974 20.1682C18.6246 20.2271 18.5505 20.2846 18.4757 20.34C18.2807 20.4835 18.0776 20.6156 17.8673 20.7356C17.7417 20.8068 17.6142 20.8737 17.4849 20.9365L17.381 20.985C17.3699 20.9906 17.3117 21.0141 17.3623 20.994L17.3062 21.019C17.232 21.0508 17.1579 21.0813 17.0824 21.1097C16.7552 21.2365 16.417 21.333 16.0722 21.3979C16.0258 21.4069 15.9794 21.4145 15.9336 21.4222L15.8644 21.4326L15.8346 21.4374C15.8768 21.4312 15.8346 21.4374 15.8221 21.4374C15.7242 21.4508 15.6265 21.4612 15.529 21.4686C15.332 21.4845 15.1343 21.4901 14.9367 21.4852C14.7513 21.4809 14.5663 21.4671 14.3824 21.4436L14.3131 21.4346H14.3186L14.2833 21.4298L14.1517 21.4083C14.0664 21.3931 13.9812 21.3758 13.8967 21.357C13.5814 21.2866 13.2725 21.1902 12.9731 21.0689L12.8699 21.0259L12.8214 21.0051L12.7999 20.9961C12.7757 20.985 12.7798 20.9836 12.7999 20.9961C12.7397 20.9608 12.6704 20.9365 12.6073 20.9054C12.4875 20.8472 12.3704 20.7848 12.254 20.7183C12.06 20.6075 11.872 20.4865 11.6907 20.356C11.6214 20.3061 11.5521 20.2541 11.4828 20.2008L11.4392 20.1662L11.4198 20.1502L11.4115 20.1433C11.3879 20.1246 11.4281 20.1572 11.4309 20.1599L11.3616 20.1017L11.3055 20.0539C11.2891 20.0369 11.2694 20.0233 11.2476 20.014C11.2258 20.0048 11.2024 20 11.1787 20C11.155 20 11.1316 20.0048 11.1098 20.014C11.088 20.0233 11.0683 20.0369 11.0519 20.0539C10.9916 20.1232 10.9743 20.2548 11.0519 20.322C11.7786 20.9526 12.6376 21.4119 13.5655 21.666C14.3062 21.8655 15.0791 21.9159 15.8394 21.8143C16.5473 21.7172 17.2328 21.4968 17.8646 21.1631C18.2734 20.9462 18.6576 20.6858 19.0105 20.3865L19.0847 20.322C19.1184 20.2856 19.1372 20.2377 19.1372 20.188C19.1372 20.1383 19.1184 20.0904 19.0847 20.0539C19.0683 20.0369 19.0487 20.0233 19.027 20.0141C19.0052 20.0048 18.9818 20.0001 18.9582 20.0001C18.9346 20.0001 18.9112 20.0048 18.8895 20.0141C18.8678 20.0233 18.8481 20.0369 18.8318 20.0539L18.8304 20.056Z" fill="#0B0B19"/>
</svg>
