<svg width="30" height="30" viewBox="0 0 30 30" fill="none" xmlns="http://www.w3.org/2000/svg">
<path d="M29.85 15C29.85 23.2014 23.2014 29.85 15 29.85C6.79857 29.85 0.15 23.2014 0.15 15C0.15 6.79857 6.79857 0.15 15 0.15C23.2014 0.15 29.85 6.79857 29.85 15Z" fill="#FEFEFE" stroke="#6A6CFF" stroke-width="0.3"/>
<path fill-rule="evenodd" clip-rule="evenodd" d="M25.0486 15.6045C25.0808 15.6199 25.116 15.6277 25.1516 15.6274C25.2096 15.6278 25.2661 15.6092 25.3126 15.5746C25.3351 15.5591 25.3542 15.539 25.3685 15.5157C25.3828 15.4924 25.3921 15.4663 25.3958 15.4392C25.3995 15.4121 25.3975 15.3845 25.39 15.3582C25.3824 15.3319 25.3694 15.3075 25.3519 15.2865C24.8935 14.6839 24.1536 14.3222 23.4252 14.3421C23.0719 14.3556 22.7261 14.4474 22.4126 14.6107C22.099 14.774 21.8256 15.0048 21.6121 15.2865C21.5946 15.3074 21.5816 15.3318 21.5741 15.3581C21.5665 15.3843 21.5645 15.4118 21.5682 15.4389C21.5718 15.4659 21.5811 15.4919 21.5953 15.5152C21.6096 15.5385 21.6285 15.5586 21.6509 15.5742C21.6999 15.6136 21.762 15.633 21.8247 15.6286C21.8874 15.6241 21.9461 15.5961 21.989 15.5501C21.9927 15.5465 21.9962 15.5427 21.9995 15.5387C22.0022 15.5355 22.0054 15.5315 22.0088 15.5273C22.0157 15.5188 22.0235 15.5093 22.0291 15.5028C22.0544 15.4724 22.0836 15.4398 22.1136 15.409C22.2025 15.3169 22.2997 15.2332 22.4039 15.1588C22.7097 14.9324 23.079 14.8078 23.4595 14.8028C23.84 14.7978 24.2125 14.9126 24.5242 15.131C24.6333 15.2055 24.7349 15.2904 24.8276 15.3845C24.8639 15.4208 24.8977 15.4576 24.9285 15.4935L24.9585 15.5298C24.9594 15.5308 24.9602 15.5319 24.9611 15.5329C24.9628 15.535 24.9645 15.537 24.9661 15.5387C24.9883 15.5666 25.0165 15.5891 25.0486 15.6045Z" fill="#0B0B19"/>
<path fill-rule="evenodd" clip-rule="evenodd" d="M8.09952 15.6047C8.13165 15.62 8.16683 15.6278 8.20241 15.6275C8.26038 15.6279 8.31689 15.6093 8.3634 15.5747C8.38592 15.5592 8.40494 15.5391 8.41927 15.5158C8.4336 15.4925 8.44291 15.4664 8.4466 15.4393C8.4503 15.4122 8.44831 15.3846 8.44075 15.3583C8.43318 15.332 8.42023 15.3076 8.40269 15.2866C7.94424 14.684 7.20565 14.3211 6.47593 14.3422C6.12269 14.3557 5.77685 14.4475 5.46333 14.6108C5.14981 14.7741 4.87641 15.0049 4.66284 15.2866C4.64535 15.3075 4.63242 15.3319 4.62487 15.3582C4.61732 15.3844 4.6153 15.4119 4.61896 15.439C4.62262 15.466 4.63186 15.492 4.64611 15.5153C4.66035 15.5386 4.67929 15.5587 4.70171 15.5743C4.75063 15.6138 4.81267 15.6333 4.87537 15.6289C4.93807 15.6245 4.99679 15.5965 5.03974 15.5506C5.04346 15.5469 5.04699 15.5429 5.0503 15.5388C5.05297 15.5356 5.05619 15.5316 5.05962 15.5274C5.06652 15.5189 5.07423 15.5094 5.07988 15.5029C5.10523 15.4725 5.13438 15.4395 5.16438 15.4091C5.25327 15.317 5.35044 15.2333 5.45467 15.1589C5.76049 14.9325 6.12979 14.8079 6.51031 14.8029C6.89082 14.7979 7.26327 14.9127 7.57495 15.1311C7.68404 15.2056 7.78564 15.2905 7.87833 15.3846C7.91466 15.4213 7.94889 15.4581 7.97931 15.494L8.00931 15.5299L8.01692 15.5392C8.03915 15.567 8.06739 15.5894 8.09952 15.6047Z" fill="#0B0B19"/>
<path d="M9.48361 22.6616C10.252 23.9128 11.9369 24.1699 13.1224 23.3038C13.6754 22.9257 14.3297 22.7233 14.9996 22.7233C15.6696 22.7233 16.3239 22.9257 16.8769 23.3038C18.0623 24.1699 19.748 23.9128 20.5156 22.6616C20.733 22.3196 20.8503 21.9236 20.8544 21.5184C20.8544 19.6388 18.2328 18.1152 15 18.1152C11.7672 18.1152 9.14551 19.6395 9.14551 21.5184C9.14938 21.9235 9.2665 22.3195 9.48361 22.6616Z" fill="#B5B6FF"/>
<path d="M11.2366 21.8422L11.3108 21.7784L11.3537 21.7424L11.3752 21.7244L11.3537 21.7424L11.369 21.7299C11.4417 21.6711 11.5159 21.6135 11.5914 21.5581C11.7861 21.4147 11.989 21.2826 12.199 21.1625C12.3244 21.0932 12.4526 21.0239 12.5821 20.9616L12.6854 20.9124C12.6965 20.9075 12.7547 20.884 12.7041 20.9041L12.7609 20.8791C12.8343 20.8473 12.9092 20.8168 12.984 20.7877C13.3116 20.6626 13.65 20.5675 13.9948 20.5036C14.0413 20.4946 14.0877 20.487 14.1334 20.4794C14.1556 20.4752 14.1787 20.4717 14.2027 20.469L14.2325 20.4641C14.1902 20.4704 14.236 20.4641 14.2457 20.4641C14.3426 20.451 14.4403 20.4406 14.538 20.4329C14.7351 20.4171 14.9328 20.4113 15.1304 20.4156C15.3152 20.4207 15.5013 20.4346 15.6888 20.4572L15.7581 20.4669H15.7526L15.7872 20.4717L15.9189 20.4932C16.0041 20.5085 16.0893 20.5251 16.1745 20.5445C16.4895 20.6151 16.7982 20.7115 17.0974 20.8327L17.2013 20.8757L17.2491 20.8965L17.2706 20.9055C17.2948 20.9165 17.2914 20.9179 17.2706 20.9055C17.3309 20.9408 17.4008 20.965 17.4639 20.9962C17.5831 21.0544 17.7006 21.1168 17.8166 21.1833C18.0106 21.2937 18.1987 21.4145 18.3798 21.545C18.4491 21.5955 18.5184 21.6475 18.5877 21.7008L18.6313 21.7355L18.6507 21.7514L18.6597 21.7583L18.6396 21.7417L18.7089 21.7999L18.7651 21.8477C18.7815 21.8647 18.8012 21.8782 18.823 21.8874C18.8448 21.8966 18.8682 21.9014 18.8918 21.9014C18.9155 21.9014 18.9389 21.8966 18.9607 21.8874C18.9825 21.8782 19.0022 21.8647 19.0186 21.8477C19.0789 21.7784 19.0962 21.6468 19.0186 21.5796C18.7485 21.3449 18.4593 21.1331 18.154 20.9463C17.6407 20.6326 17.0855 20.3933 16.505 20.2355C15.7643 20.036 14.9914 19.9856 14.2311 20.0872C13.5232 20.1843 12.8378 20.4048 12.2059 20.7385C11.7972 20.9555 11.413 21.2159 11.06 21.5152L10.9858 21.5796C10.9522 21.6162 10.9336 21.664 10.9336 21.7137C10.9336 21.7633 10.9522 21.8112 10.9858 21.8477C11.0023 21.8647 11.022 21.8782 11.0438 21.8874C11.0656 21.8966 11.089 21.9014 11.1126 21.9014C11.1363 21.9014 11.1597 21.8966 11.1815 21.8874C11.2032 21.8782 11.2229 21.8647 11.2394 21.8477L11.2366 21.8422Z" fill="#0B0B19"/>
<path d="M14.9997 18.1535C16.3198 18.1535 17.39 17.3159 17.39 16.2828C17.39 15.2496 16.3198 14.4121 14.9997 14.4121C13.6795 14.4121 12.6094 15.2496 12.6094 16.2828C12.6094 17.3159 13.6795 18.1535 14.9997 18.1535Z" fill="#353680"/>
</svg>
