<svg width="30" height="30" viewBox="0 0 30 30" fill="none" xmlns="http://www.w3.org/2000/svg">
<path d="M29.85 15C29.85 23.2014 23.2014 29.85 15 29.85C6.79857 29.85 0.15 23.2014 0.15 15C0.15 6.79857 6.79857 0.15 15 0.15C23.2014 0.15 29.85 6.79857 29.85 15Z" fill="#FEFEFE" stroke="#6A6CFF" stroke-width="0.3"/>
<path fill-rule="evenodd" clip-rule="evenodd" d="M25.4324 11.2632C25.4646 11.2786 25.4998 11.2864 25.5354 11.2861C25.5934 11.2865 25.6499 11.2679 25.6964 11.2333C25.7189 11.2178 25.738 11.1977 25.7523 11.1744C25.7666 11.1511 25.7759 11.125 25.7796 11.0979C25.7833 11.0708 25.7813 11.0432 25.7738 11.0169C25.7662 10.9906 25.7532 10.9662 25.7357 10.9451C25.2773 10.3426 24.5374 9.98092 23.8089 10.0008C23.4557 10.0143 23.1099 10.1061 22.7963 10.2694C22.4828 10.4327 22.2094 10.6635 21.9958 10.9451C21.9784 10.9661 21.9654 10.9905 21.9579 11.0167C21.9503 11.043 21.9483 11.0705 21.952 11.0976C21.9556 11.1246 21.9649 11.1506 21.9791 11.1739C21.9934 11.1972 22.0123 11.2173 22.0347 11.2329C22.0837 11.2723 22.1458 11.2917 22.2085 11.2873C22.2712 11.2828 22.3299 11.2548 22.3727 11.2088C22.3765 11.2052 22.38 11.2014 22.3833 11.1974C22.386 11.1942 22.3892 11.1902 22.3926 11.186C22.3995 11.1775 22.4072 11.168 22.4129 11.1615C22.4382 11.1311 22.4674 11.0985 22.4974 11.0677C22.5863 10.9756 22.6835 10.8918 22.7877 10.8175C23.0935 10.5911 23.4628 10.4665 23.8433 10.4615C24.2238 10.4565 24.5963 10.5713 24.908 10.7897C25.017 10.8641 25.1187 10.9491 25.2113 11.0432C25.2477 11.0795 25.2815 11.1163 25.3123 11.1522L25.3423 11.1885C25.3432 11.1895 25.344 11.1905 25.3449 11.1916C25.3466 11.1936 25.3482 11.1957 25.3499 11.1974C25.3721 11.2253 25.4003 11.2478 25.4324 11.2632Z" fill="#0B0B19"/>
<path fill-rule="evenodd" clip-rule="evenodd" d="M7.48233 11.2634C7.51446 11.2787 7.54964 11.2865 7.58522 11.2862C7.6432 11.2866 7.6997 11.268 7.74621 11.2334C7.76873 11.2179 7.78776 11.1978 7.80208 11.1745C7.81641 11.1512 7.82572 11.1251 7.82942 11.098C7.83311 11.0709 7.83112 11.0433 7.82356 11.017C7.816 10.9907 7.80304 10.9663 7.78551 10.9452C7.32705 10.3427 6.58846 9.97975 5.85875 10.0009C5.5055 10.0144 5.15967 10.1061 4.84614 10.2694C4.53262 10.4327 4.25923 10.6636 4.04565 10.9452C4.02816 10.9662 4.01524 10.9906 4.00768 11.0168C4.00013 11.0431 3.99812 11.0706 4.00177 11.0977C4.00543 11.1247 4.01467 11.1507 4.02892 11.174C4.04316 11.1973 4.0621 11.2174 4.08452 11.233C4.13344 11.2725 4.19548 11.292 4.25818 11.2876C4.32089 11.2832 4.37961 11.2552 4.42255 11.2093C4.42628 11.2056 4.4298 11.2016 4.43311 11.1975C4.43578 11.1943 4.439 11.1903 4.44243 11.1861C4.44933 11.1776 4.45705 11.1681 4.46269 11.1616C4.48804 11.1312 4.5172 11.0982 4.5472 11.0678C4.63608 10.9757 4.73325 10.8919 4.83748 10.8176C5.1433 10.5912 5.51261 10.4666 5.89312 10.4616C6.27363 10.4566 6.64608 10.5714 6.95776 10.7897C7.06685 10.8642 7.16845 10.9492 7.26114 11.0433C7.29748 11.08 7.3317 11.1168 7.36213 11.1527L7.39213 11.1886L7.39973 11.1979C7.42196 11.2257 7.4502 11.2481 7.48233 11.2634Z" fill="#0B0B19"/>
<path d="M14.82 15.7413C16.1401 15.7413 17.2103 14.9038 17.2103 13.8707C17.2103 12.8375 16.1401 12 14.82 12C13.4999 12 12.4297 12.8375 12.4297 13.8707C12.4297 14.9038 13.4999 15.7413 14.82 15.7413Z" fill="#353680"/>
<path d="M20.37 16.151C19.6024 14.8997 17.9174 14.6426 16.732 15.508C16.1789 15.8863 15.5245 16.0887 14.8544 16.0887C14.1843 16.0887 13.5299 15.8863 12.9768 15.508C11.7914 14.6426 10.1065 14.8997 9.3388 16.151C9.12117 16.4928 9.00379 16.8889 9 17.2942C9 19.1739 11.621 20.6974 14.8544 20.6974C18.0879 20.6974 20.7088 19.1732 20.7088 17.2942C20.705 16.8889 20.5877 16.4928 20.37 16.151Z" fill="#B5B6FF"/>
<path d="M18.5827 16.9723L18.5079 17.036L18.4656 17.0721L18.4441 17.0894L18.4656 17.0721L18.4504 17.0845C18.3776 17.1434 18.3035 17.2009 18.228 17.2563C18.0331 17.3999 17.83 17.532 17.6197 17.652C17.4941 17.7231 17.3666 17.7901 17.2372 17.8529L17.1333 17.9014C17.1229 17.9069 17.064 17.9305 17.1153 17.9104C17.0959 17.918 17.0772 17.927 17.0585 17.9353C16.9844 17.9672 16.9102 17.9977 16.8354 18.0261C16.508 18.1528 16.1696 18.2493 15.8246 18.3143C15.7782 18.3233 15.7317 18.3309 15.686 18.3385L15.6167 18.3489L15.5869 18.3538C15.6299 18.3476 15.5869 18.3538 15.5745 18.3538C15.4768 18.367 15.3798 18.3773 15.2814 18.385C15.0846 18.4009 14.8871 18.4064 14.6897 18.4016C14.503 18.3974 14.3166 18.3835 14.1313 18.36L14.062 18.351H14.0676L14.0322 18.3462L13.9013 18.3247C13.8154 18.3094 13.7302 18.2921 13.6456 18.2734C13.3306 18.2029 13.0219 18.1065 12.7228 17.9852L12.6189 17.9422L12.5704 17.9215L12.5496 17.9125C12.5246 17.9014 12.5288 17.9 12.5496 17.9125C12.4886 17.8771 12.4193 17.8529 12.3563 17.8217C12.2371 17.7635 12.1196 17.7011 12.0036 17.6346C11.8096 17.524 11.6215 17.403 11.4404 17.2723C11.3711 17.2224 11.3018 17.1704 11.2325 17.1171L11.1889 17.0825L11.1695 17.0665L11.1612 17.0596C11.1376 17.0409 11.1785 17.0734 11.1813 17.0762L11.112 17.018L11.0558 16.9702C11.0395 16.9531 11.0199 16.9395 10.9982 16.9301C10.9765 16.9208 10.9531 16.916 10.9294 16.916C10.9058 16.916 10.8824 16.9208 10.8606 16.9301C10.8389 16.9395 10.8193 16.9531 10.803 16.9702C10.7695 17.0068 10.751 17.0547 10.751 17.1043C10.751 17.1539 10.7695 17.2017 10.803 17.2383C11.5293 17.8694 12.3884 18.3287 13.3165 18.5824C14.0572 18.782 14.8301 18.8324 15.5904 18.7307C16.2981 18.6336 16.9833 18.4131 17.6148 18.0794C18.0237 17.8626 18.4079 17.6022 18.7608 17.3028L18.8356 17.2383C18.8692 17.2018 18.8878 17.1539 18.8878 17.1043C18.8878 17.0546 18.8692 17.0068 18.8356 16.9702C18.8191 16.9532 18.7994 16.9398 18.7776 16.9305C18.7559 16.9213 18.7325 16.9166 18.7088 16.9166C18.6852 16.9166 18.6618 16.9213 18.64 16.9305C18.6182 16.9398 18.5985 16.9532 18.582 16.9702L18.5827 16.9723Z" fill="#0B0B19"/>
</svg>
