<svg width="30" height="30" viewBox="0 0 30 30" fill="none" xmlns="http://www.w3.org/2000/svg">
<path d="M29.85 15C29.85 23.2014 23.2014 29.85 15 29.85C6.79857 29.85 0.15 23.2014 0.15 15C0.15 6.79857 6.79857 0.15 15 0.15C23.2014 0.15 29.85 6.79857 29.85 15Z" fill="#FEFEFE" stroke="#6A6CFF" stroke-width="0.3"/>
<path d="M21.2536 16.2037C20.594 15.9807 20.2343 15.5879 20.2364 15.4507C20.2352 15.4029 20.2514 15.3564 20.2821 15.3198C20.3008 15.3029 20.3228 15.2901 20.3466 15.282C20.3704 15.2739 20.3956 15.2707 20.4207 15.2727C20.4499 15.2739 20.4784 15.2812 20.5046 15.2941L20.5267 15.3045L20.5607 15.3191C20.6099 15.3381 20.6604 15.3538 20.7117 15.3662C20.7374 15.3724 20.763 15.3773 20.7893 15.3821H20.7984H20.8115L20.8572 15.387C20.9296 15.3931 21.0024 15.3931 21.0748 15.387H21.0845L21.1088 15.3828L21.1656 15.371C21.2003 15.3634 21.2349 15.3537 21.2689 15.3426C21.3028 15.3315 21.3312 15.3205 21.3582 15.3094L21.3652 15.3059L21.3839 15.2976L21.4241 15.2768C21.477 15.2483 21.5277 15.2159 21.5758 15.1798C21.5862 15.1729 21.5952 15.1653 21.6049 15.1577H21.6098L21.6209 15.148C21.634 15.1369 21.6465 15.1251 21.6597 15.1126C21.7048 15.0698 21.7466 15.0235 21.7844 14.9741C21.7969 14.9577 21.8127 14.9442 21.8309 14.9345C21.8491 14.9248 21.8691 14.9192 21.8897 14.918H21.9036C21.954 14.9181 22.0024 14.9377 22.0387 14.9727C22.0714 15.0096 22.0894 15.0571 22.0894 15.1064C22.0894 15.1557 22.0714 15.2032 22.0387 15.2401C21.9877 15.3069 21.9301 15.3684 21.8668 15.4237C21.6494 15.6145 21.3794 15.7353 21.0922 15.7701C21.0984 15.7701 21.1046 15.777 21.1109 15.7805L21.1912 15.8206L21.2307 15.8393L21.2488 15.8476C21.3097 15.8733 21.3714 15.8968 21.4338 15.9169C21.4961 15.937 21.5675 15.9585 21.6361 15.9751C21.6742 15.9841 21.7123 15.9917 21.7504 15.9994L21.8024 16.0084L21.8322 16.0132C21.9873 16.0331 22.1439 16.0384 22.2999 16.0291C22.3387 16.0291 22.3768 16.0236 22.4156 16.0194L22.4642 16.0132C22.426 16.0181 22.4822 16.0132 22.4898 16.0091C22.5542 15.9987 22.6187 15.9848 22.6824 15.9689C22.7941 15.941 22.9037 15.9052 23.0102 15.8615L23.0524 15.8442H23.058H23.0538C23.0739 15.8338 23.0961 15.8248 23.1162 15.8151C23.1527 15.7971 23.1887 15.7784 23.2243 15.759C23.2735 15.732 23.3213 15.7029 23.3684 15.6717C23.3869 15.6608 23.4073 15.6538 23.4286 15.651C23.4498 15.6483 23.4714 15.6498 23.492 15.6556C23.5127 15.6613 23.5319 15.6712 23.5487 15.6845C23.5654 15.6979 23.5793 15.7145 23.5895 15.7333C23.6106 15.7725 23.6163 15.8182 23.6055 15.8613C23.5948 15.9045 23.5683 15.9421 23.5312 15.9668C22.8356 16.3832 22.0692 16.442 21.2536 16.2037Z" fill="#0B0B19"/>
<path d="M8.74572 16.204C9.40529 15.9809 9.76486 15.588 9.76279 15.4508C9.76401 15.4032 9.74801 15.3567 9.71774 15.3199C9.69902 15.3031 9.67709 15.2902 9.65328 15.2821C9.62947 15.274 9.60426 15.2708 9.57918 15.2727C9.5498 15.2738 9.52099 15.2812 9.49465 15.2942L9.4725 15.3046L9.43855 15.3192C9.3893 15.3382 9.33883 15.3539 9.2875 15.3663C9.26187 15.3725 9.23624 15.3774 9.20991 15.3822H9.20159H9.18843L9.14202 15.3871C9.06963 15.3932 8.99685 15.3932 8.92446 15.3871H8.91546L8.8919 15.3829L8.83439 15.3711C8.79975 15.3635 8.76511 15.3538 8.73116 15.3427C8.69721 15.3316 8.66882 15.3205 8.64249 15.3095L8.63556 15.306L8.61616 15.2977L8.57597 15.2769C8.52303 15.2484 8.47232 15.216 8.42424 15.1799L8.39515 15.1577H8.3903H8.38683L8.37575 15.148L8.33695 15.1127C8.29177 15.0699 8.25006 15.0235 8.21224 14.9741C8.19977 14.9577 8.18391 14.9442 8.16574 14.9345C8.14756 14.9248 8.12749 14.9192 8.10692 14.918H8.09307C8.04149 14.9174 7.99174 14.937 7.95451 14.9727C7.92183 15.0096 7.9038 15.0572 7.9038 15.1064C7.9038 15.1557 7.92183 15.2033 7.95451 15.2402C8.00574 15.307 8.06354 15.3685 8.12702 15.4238C8.34415 15.6147 8.61392 15.7354 8.90092 15.7702C8.89468 15.7702 8.88914 15.7772 8.8829 15.7806L8.80183 15.8208L8.76235 15.8395L8.74434 15.8478C8.68337 15.8735 8.6217 15.897 8.55934 15.9171C8.49699 15.9372 8.42563 15.9587 8.35773 15.9753C8.31963 15.9843 8.28084 15.992 8.24273 15.9996L8.19077 16.0086L8.16097 16.0134C8.00592 16.0333 7.84935 16.0386 7.69331 16.0294C7.65451 16.0294 7.61641 16.0238 7.57831 16.0197L7.52912 16.0134C7.56722 16.0183 7.5111 16.0134 7.50348 16.0093C7.43904 15.9989 7.37461 15.985 7.31087 15.9691C7.19918 15.9412 7.08966 15.9054 6.98317 15.8617L6.94091 15.8444H6.93536H6.93953C6.91943 15.834 6.89795 15.825 6.87716 15.8153C6.84044 15.7972 6.80789 15.7785 6.76909 15.7591C6.7199 15.7321 6.67209 15.703 6.62498 15.6718C6.60652 15.661 6.58605 15.6539 6.56481 15.6512C6.54358 15.6484 6.522 15.6499 6.50137 15.6557C6.48074 15.6615 6.46149 15.6713 6.44475 15.6847C6.42802 15.698 6.41415 15.7147 6.40397 15.7335C6.38303 15.7727 6.37739 15.8183 6.38814 15.8615C6.39889 15.9046 6.42526 15.9422 6.46216 15.967C7.16399 16.3834 7.93027 16.4423 8.74572 16.204Z" fill="#0B0B19"/>
<path d="M14.9998 28.8243C8.0659 28.8243 2.4248 22.9656 2.4248 15.7642C2.4248 8.56278 8.0659 2.7041 14.9998 2.7041C21.9338 2.7041 27.5749 8.56348 27.5749 15.7642C27.5749 22.9649 21.9338 28.8243 14.9998 28.8243ZM14.9998 3.18909C8.33334 3.18909 2.90979 8.83091 2.90979 15.7642C2.90979 22.6975 8.33334 28.3393 14.9998 28.3393C21.6663 28.3393 27.0899 22.6982 27.0899 15.7642C27.0899 8.83022 21.6663 3.18909 14.9998 3.18909Z" fill="#6A6CFF"/>
<path d="M13.6306 17.3667C13.1886 14.9417 12.2249 12.9082 10.7665 11.3306C9.38081 9.83199 7.49632 8.68672 5.16565 7.92806L5.09637 7.90657L5.05134 7.85322C4.77481 7.53196 4.56842 7.15648 4.44542 6.75083C4.32242 6.34518 4.2855 5.9183 4.33703 5.49755C4.39293 5.06308 4.53888 4.64506 4.76555 4.27021C4.99222 3.89536 5.29461 3.57194 5.6534 3.32063C7.15545 2.2391 9.33023 2.48922 10.5032 3.87976L10.1325 4.19223C9.12032 2.99222 7.23929 2.77744 5.93816 3.71417C5.63311 3.92641 5.37576 4.20004 5.1826 4.51753C4.98944 4.83501 4.86473 5.18934 4.81646 5.55783C4.7747 5.90069 4.8029 6.24847 4.89936 6.58012C4.99582 6.91177 5.15853 7.22042 5.37766 7.48741C7.75683 8.2724 9.68774 9.45439 11.117 11.0001C12.6413 12.6463 13.6431 14.7581 14.1024 17.2787L13.6306 17.3667Z" fill="#6A6CFF"/>
<path d="M16.3693 17.367L15.8926 17.2804C16.3513 14.7598 17.3552 12.648 18.8774 11.0018C20.3068 9.45611 22.2378 8.27412 24.6178 7.48913C24.8365 7.22188 24.9989 6.91321 25.0954 6.58163C25.1918 6.25005 25.2203 5.9024 25.179 5.55956C25.1306 5.19103 25.0058 4.83668 24.8125 4.5192C24.6192 4.20172 24.3617 3.92811 24.0566 3.7159C22.7561 2.77918 20.8743 2.99396 19.862 4.19397L19.4913 3.88149C20.6629 2.49165 22.8385 2.24085 24.3413 3.32237C24.7008 3.57334 25.0039 3.89661 25.2311 4.27147C25.4584 4.64634 25.6049 5.06453 25.6612 5.49928C25.713 5.92003 25.6761 6.34695 25.5531 6.75262C25.4301 7.1583 25.2236 7.53378 24.9469 7.85495L24.9019 7.9083L24.8367 7.92978C22.506 8.68844 20.6214 9.83371 19.2349 11.3323C17.7751 12.9086 16.8113 14.9393 16.3693 17.367Z" fill="#6A6CFF"/>
<path d="M14.9618 17.9156C16.3036 17.9156 17.3914 17.0643 17.3914 16.0142C17.3914 14.9641 16.3036 14.1128 14.9618 14.1128C13.62 14.1128 12.5322 14.9641 12.5322 16.0142C12.5322 17.0643 13.62 17.9156 14.9618 17.9156Z" fill="#353680"/>
<path fill-rule="evenodd" clip-rule="evenodd" d="M14.17 22.8417C14.4211 22.8854 14.6756 22.9074 14.9305 22.9072C15.6107 22.9039 16.2827 22.759 16.9038 22.4817C17.4074 22.2577 17.9149 21.9404 18.4545 21.5099C18.4768 21.4936 18.4954 21.4729 18.5093 21.449C18.5231 21.4251 18.5318 21.3986 18.5348 21.3712C18.5379 21.3437 18.5351 21.316 18.5268 21.2896C18.5185 21.2633 18.5048 21.239 18.4866 21.2183C18.4668 21.1923 18.4421 21.1705 18.4138 21.1541C18.3855 21.1377 18.3542 21.1272 18.3218 21.1231C18.2894 21.1189 18.2565 21.1213 18.225 21.13C18.1935 21.1388 18.1641 21.1537 18.1384 21.1739C17.0766 22.0211 16.0059 22.4508 14.9555 22.4508H14.9512C13.9021 22.4508 12.828 22.0199 11.756 21.1739C11.7301 21.1538 11.7005 21.139 11.6689 21.1305C11.6372 21.122 11.6042 21.1198 11.5717 21.1242C11.5392 21.1285 11.5079 21.1393 11.4796 21.1559C11.4513 21.1725 11.4267 21.1946 11.407 21.2208C11.389 21.2415 11.3754 21.2657 11.3673 21.2919C11.3591 21.3181 11.3566 21.3457 11.3597 21.3729C11.3628 21.4002 11.3716 21.4265 11.3855 21.4501C11.3994 21.4738 11.4181 21.4943 11.4404 21.5103C12.3767 22.2501 13.2691 22.6845 14.17 22.8417Z" fill="#0B0B19"/>
</svg>
