<svg width="30" height="30" viewBox="0 0 30 30" fill="none" xmlns="http://www.w3.org/2000/svg">
<path d="M29.85 15C29.85 23.2014 23.2014 29.85 15 29.85C6.79857 29.85 0.15 23.2014 0.15 15C0.15 6.79857 6.79857 0.15 15 0.15C23.2014 0.15 29.85 6.79857 29.85 15Z" fill="#FEFEFE" stroke="#6A6CFF" stroke-width="0.3"/>
<path d="M20.5517 19.151C19.784 17.8997 18.0991 17.6426 16.9136 18.508C16.3606 18.8863 15.7061 19.0887 15.0361 19.0887C14.366 19.0887 13.7115 18.8863 13.1585 18.508C11.9731 17.6426 10.2881 17.8997 9.52044 19.151C9.30281 19.4928 9.18543 19.8889 9.18164 20.2942C9.18164 22.1739 11.8026 23.6974 15.0361 23.6974C18.2695 23.6974 20.8905 22.1732 20.8905 20.2942C20.8867 19.8889 20.7693 19.4928 20.5517 19.151Z" fill="#B5B6FF"/>
<path d="M22.9058 15.5355C22.2462 15.3117 21.8867 14.9189 21.8887 14.7817C21.8875 14.734 21.9035 14.6876 21.9338 14.6507C21.9525 14.6339 21.9744 14.621 21.9982 14.613C22.022 14.6049 22.0473 14.6017 22.0723 14.6036C22.1017 14.6049 22.1305 14.6122 22.1569 14.6251L22.179 14.6355L22.213 14.65C22.2622 14.6691 22.3127 14.6848 22.364 14.6972C22.3897 14.7034 22.4153 14.7082 22.4409 14.7131H22.4499H22.4631L22.5095 14.7179C22.582 14.7229 22.6548 14.7218 22.7271 14.7145H22.7361L22.7596 14.7103C22.779 14.7069 22.7977 14.7034 22.8165 14.6985C22.8513 14.6909 22.8858 14.6814 22.9197 14.6701C22.9516 14.6597 22.9827 14.648 23.0091 14.6369H23.016L23.0347 14.6286L23.0756 14.6078C23.1284 14.5793 23.1791 14.5471 23.2273 14.5115L23.2564 14.4886L23.2606 14.4851H23.2647L23.2751 14.4761L23.3139 14.4408C23.3593 14.398 23.4013 14.3517 23.4393 14.3022C23.4516 14.2856 23.4674 14.272 23.4856 14.2622C23.5039 14.2525 23.524 14.247 23.5446 14.2461H23.5585C23.6101 14.2455 23.6598 14.2651 23.6971 14.3008C23.7298 14.3377 23.7478 14.3853 23.7478 14.4346C23.7478 14.4838 23.7298 14.5314 23.6971 14.5683C23.6456 14.6349 23.5879 14.6964 23.5246 14.7519C23.3074 14.9428 23.0376 15.0635 22.7506 15.0983C22.7569 15.0983 22.7624 15.1053 22.7687 15.1087C22.7957 15.1226 22.8227 15.1364 22.8497 15.1489L22.8885 15.1676L22.9072 15.1759C22.9682 15.2016 23.0299 15.2251 23.0922 15.2452C23.1546 15.2653 23.2259 15.2868 23.2938 15.3034C23.3319 15.3124 23.37 15.3207 23.4088 15.3277L23.4608 15.3367L23.4906 15.3415C23.6457 15.3613 23.8022 15.3668 23.9583 15.3581C23.9964 15.3581 24.0352 15.3519 24.0733 15.3478L24.1225 15.3415C24.0844 15.3464 24.1405 15.3415 24.1474 15.3374C24.2126 15.327 24.277 15.3131 24.3407 15.2972C24.4524 15.2692 24.5619 15.2333 24.6685 15.1898L24.71 15.1725H24.7163H24.7121C24.7322 15.1621 24.7537 15.1538 24.7745 15.1434C24.8105 15.126 24.8437 15.1073 24.8818 15.0872C24.931 15.0602 24.9795 15.0311 25.0266 14.9999C25.045 14.989 25.0654 14.9819 25.0867 14.9791C25.1079 14.9763 25.1294 14.9778 25.15 14.9836C25.1706 14.9893 25.1898 14.9992 25.2065 15.0126C25.2232 15.026 25.2369 15.0427 25.247 15.0616C25.2681 15.1007 25.274 15.1463 25.2634 15.1895C25.2527 15.2326 25.2264 15.2703 25.1895 15.2951C24.4869 15.7143 23.7213 15.7739 22.9058 15.5355Z" fill="#0B0B19"/>
<path d="M24.7188 15.166C24.7318 15.1605 24.7331 15.1586 24.7188 15.166V15.166Z" fill="#6A6CFF"/>
<path d="M7.14214 15.5355C7.8017 15.3117 8.16058 14.9189 8.1592 14.7817C8.16042 14.7339 8.14416 14.6874 8.11347 14.6507C8.09477 14.6339 8.07285 14.621 8.04903 14.613C8.02521 14.6049 7.99999 14.6017 7.97491 14.6036C7.94555 14.6049 7.91677 14.6122 7.89039 14.6251L7.86821 14.6355L7.83426 14.65C7.78528 14.6692 7.73506 14.6849 7.68393 14.6972C7.65829 14.7034 7.63197 14.7082 7.60633 14.7131H7.59733H7.58624L7.54051 14.7179C7.46803 14.723 7.39525 14.7218 7.32296 14.7145H7.31327L7.28902 14.7103C7.27031 14.7069 7.25092 14.7034 7.23221 14.6985C7.19757 14.6909 7.16293 14.6812 7.12898 14.6701C7.09503 14.6591 7.06663 14.648 7.03961 14.6369H7.03268L7.01397 14.6286L6.9731 14.6078C6.92051 14.579 6.86982 14.5468 6.82137 14.5115L6.79227 14.4886L6.78811 14.4851L6.77703 14.4761L6.73823 14.4408C6.69301 14.3978 6.65109 14.3515 6.61283 14.3022C6.60064 14.2857 6.58493 14.2721 6.56684 14.2624C6.54875 14.2527 6.52872 14.2471 6.50821 14.2461H6.49367C6.44209 14.2455 6.39233 14.2651 6.3551 14.3008C6.32242 14.3377 6.30438 14.3853 6.30438 14.4346C6.30438 14.4838 6.32242 14.5314 6.3551 14.5683C6.40609 14.6351 6.46365 14.6966 6.52692 14.7519C6.74423 14.9429 7.01426 15.0637 7.30149 15.0983L7.28278 15.1087C7.25646 15.1226 7.22944 15.1364 7.20242 15.1489L7.16293 15.1676L7.14422 15.1759C7.08395 15.2016 7.02228 15.2251 6.95993 15.2452C6.89758 15.2653 6.82553 15.2868 6.75763 15.3034C6.71953 15.3124 6.68142 15.3207 6.64262 15.3277L6.59136 15.3367L6.56156 15.3415C6.4065 15.3612 6.24997 15.3668 6.09391 15.3581C6.05511 15.3581 6.01701 15.3519 5.97821 15.3478L5.92971 15.3415C5.96782 15.3464 5.9117 15.3415 5.90408 15.3374C5.83965 15.327 5.77521 15.3131 5.71147 15.2972C5.59979 15.2693 5.49027 15.2334 5.38377 15.1898L5.34151 15.1725H5.33528H5.34013C5.31934 15.1621 5.29787 15.1538 5.27708 15.1434C5.24105 15.126 5.2078 15.1073 5.1697 15.0872C5.12051 15.0602 5.0727 15.0311 5.02559 14.9999C5.00713 14.9891 4.98667 14.9821 4.96543 14.9793C4.94419 14.9765 4.92261 14.978 4.90198 14.9838C4.88135 14.9896 4.8621 14.9994 4.84536 15.0128C4.82863 15.0262 4.81475 15.0428 4.80458 15.0616C4.78348 15.1008 4.77775 15.1464 4.78851 15.1896C4.79927 15.2328 4.82575 15.2704 4.86278 15.2951C5.56044 15.7143 6.326 15.7739 7.14214 15.5355Z" fill="#0B0B19"/>
<path d="M5.3275 15.166C5.31463 15.1605 5.3134 15.1586 5.3275 15.166V15.166Z" fill="#6A6CFF"/>
<path d="M15.0016 18.1535C16.3218 18.1535 17.3919 17.3159 17.3919 16.2828C17.3919 15.2496 16.3218 14.4121 15.0016 14.4121C13.6815 14.4121 12.6113 15.2496 12.6113 16.2828C12.6113 17.3159 13.6815 18.1535 15.0016 18.1535Z" fill="#353680"/>
<path d="M18.7634 19.9723L18.6886 20.036L18.6463 20.0721L18.6248 20.0894L18.6463 20.0721L18.6311 20.0845C18.5583 20.1434 18.4842 20.2009 18.4086 20.2563C18.2138 20.3999 18.0107 20.532 17.8004 20.652C17.6747 20.7231 17.5472 20.7901 17.4179 20.8529L17.314 20.9014C17.3036 20.9069 17.2447 20.9305 17.296 20.9104C17.2766 20.918 17.2579 20.927 17.2392 20.9353C17.165 20.9672 17.0909 20.9977 17.0161 21.0261C16.6886 21.1528 16.3503 21.2493 16.0052 21.3143C15.9588 21.3233 15.9124 21.3309 15.8667 21.3385L15.7974 21.3489L15.7676 21.3538C15.8106 21.3476 15.7676 21.3538 15.7551 21.3538C15.6574 21.367 15.5604 21.3773 15.4621 21.385C15.2653 21.4009 15.0678 21.4064 14.8704 21.4016C14.6837 21.3974 14.4973 21.3835 14.312 21.36L14.2427 21.351H14.2482L14.2129 21.3462L14.082 21.3247C13.996 21.3094 13.9108 21.2921 13.8263 21.2734C13.5113 21.2029 13.2026 21.1065 12.9035 20.9852L12.7995 20.9422L12.751 20.9215L12.7302 20.9125C12.7053 20.9014 12.7095 20.9 12.7302 20.9125C12.6693 20.8771 12.6 20.8529 12.5369 20.8217C12.4178 20.7635 12.3002 20.7011 12.1843 20.6346C11.9902 20.524 11.8022 20.403 11.621 20.2723C11.5518 20.2224 11.4825 20.1704 11.4132 20.1171L11.3695 20.0825L11.3501 20.0665L11.3418 20.0596C11.3183 20.0409 11.3591 20.0734 11.3619 20.0762L11.2926 20.018L11.2365 19.9702C11.2202 19.9531 11.2006 19.9395 11.1789 19.9301C11.1571 19.9208 11.1337 19.916 11.1101 19.916C11.0864 19.916 11.063 19.9208 11.0413 19.9301C11.0196 19.9395 10.9999 19.9531 10.9836 19.9702C10.9502 20.0068 10.9316 20.0547 10.9316 20.1043C10.9316 20.1539 10.9502 20.2017 10.9836 20.2383C11.71 20.8694 12.5691 21.3287 13.4972 21.5824C14.2378 21.782 15.0108 21.8324 15.7711 21.7307C16.4787 21.6336 17.1639 21.4131 17.7955 21.0794C18.2043 20.8626 18.5885 20.6022 18.9414 20.3028L19.0163 20.2383C19.0499 20.2018 19.0685 20.1539 19.0685 20.1043C19.0685 20.0546 19.0499 20.0068 19.0163 19.9702C18.9998 19.9532 18.9801 19.9398 18.9583 19.9305C18.9365 19.9213 18.9131 19.9166 18.8895 19.9166C18.8658 19.9166 18.8424 19.9213 18.8206 19.9305C18.7989 19.9398 18.7792 19.9532 18.7627 19.9702L18.7634 19.9723Z" fill="#0B0B19"/>
<path d="M14.2587 3.06511C13.9198 2.91359 13.5639 2.80356 13.1986 2.73739C12.3864 2.58048 11.5537 2.56034 10.7349 2.67781C9.66015 2.83043 8.62045 3.16996 7.6628 3.68105C6.94892 4.05728 6.28759 4.52573 5.69582 5.07435C5.37951 5.36473 5.09011 5.68312 4.83116 6.02562L4.7986 6.07066C4.7203 6.17944 4.90044 6.28336 4.97804 6.17528C5.00367 6.13925 5.0307 6.10599 5.05772 6.06927C5.04594 6.08382 5.06534 6.05888 5.07504 6.04641L5.11107 6.00137C5.1374 5.96881 5.16303 5.93694 5.19005 5.90507C5.34178 5.72424 5.50321 5.55103 5.67158 5.38544C6.20462 4.86225 6.80147 4.40833 7.44802 4.0344C8.35431 3.50872 9.34314 3.14045 10.3725 2.94525C11.2109 2.78209 12.0712 2.76544 12.9152 2.89606C13.1836 2.93908 13.4487 3.00066 13.7085 3.08035C13.7965 3.10737 13.8831 3.13647 13.9691 3.16904L14.0647 3.20645L14.0827 3.21407C14.1055 3.22377 14.0661 3.20714 14.0827 3.21407L14.1145 3.22793L14.154 3.24663C14.2746 3.30275 14.3799 3.124 14.2594 3.06719L14.2587 3.06511Z" fill="#6A6CFF"/>
<path d="M14.1536 7.32629C13.8142 7.17439 13.4578 7.06367 13.0921 6.9965C12.2801 6.84017 11.4477 6.82027 10.6291 6.93761C9.55445 7.09011 8.51476 7.4294 7.55704 7.94015C6.84303 8.31645 6.1817 8.78514 5.59007 9.33413C5.27308 9.62508 4.98362 9.94468 4.72541 10.2889L4.69215 10.3332C4.61386 10.442 4.794 10.5459 4.8716 10.4385C4.89793 10.4025 4.92425 10.3692 4.95128 10.3318L4.9686 10.3096L5.00531 10.2639C5.03095 10.2321 5.05728 10.1995 5.08361 10.1683C5.23603 9.98679 5.39746 9.81427 5.56859 9.64799C6.10193 9.12535 6.69929 8.67233 7.34642 8.29973C8.25244 7.77306 9.24132 7.40408 10.2709 7.20851C11.109 7.04536 11.9691 7.02872 12.8129 7.15932C13.0815 7.20234 13.3468 7.26392 13.6069 7.34361C13.6942 7.37063 13.7815 7.40043 13.8674 7.4323L13.9623 7.4704L13.9803 7.47733C14.0039 7.48703 13.9644 7.47041 13.9803 7.47733L14.0122 7.49119L14.0524 7.5092C14.1723 7.56602 14.2783 7.38657 14.157 7.32976L14.1536 7.32629Z" fill="#6A6CFF"/>
<path d="M14.2581 9.45742C13.9188 9.30538 13.5624 9.19465 13.1967 9.12763C12.3844 8.97094 11.5517 8.95103 10.7329 9.06874C8.84936 9.33999 7.09235 10.1761 5.69387 11.4667C5.37739 11.7569 5.08798 12.0753 4.82921 12.4179L4.79664 12.4623C4.71835 12.571 4.89849 12.675 4.97609 12.5669C5.00173 12.5316 5.02874 12.4976 5.05576 12.4609C5.04399 12.4754 5.06339 12.4505 5.07309 12.438L5.10911 12.393C5.13544 12.3604 5.16108 12.3286 5.1881 12.2967C5.33983 12.1159 5.50126 11.9426 5.66962 11.7771C6.20317 11.2543 6.8005 10.8008 7.44746 10.4274C8.35365 9.90124 9.34249 9.53251 10.3719 9.33687C11.2103 9.17371 12.0706 9.15706 12.9147 9.28768C13.183 9.3307 13.4481 9.39228 13.708 9.47197C13.796 9.49899 13.8826 9.52809 13.9685 9.56066L14.0641 9.59807L14.0821 9.60569C14.105 9.61539 14.0655 9.59876 14.0821 9.60569L14.114 9.61955L14.1535 9.63756C14.274 9.69437 14.3793 9.51493 14.2588 9.45812L14.2581 9.45742Z" fill="#6A6CFF"/>
<path d="M14.1536 5.1954C13.8143 5.0434 13.4579 4.9329 13.0921 4.8663C12.2802 4.70939 11.4477 4.68925 10.6291 4.80672C9.55433 4.95912 8.51459 5.29867 7.55704 5.80995C6.84305 6.186 6.18171 6.65446 5.59007 7.20324C5.27324 7.49309 4.98379 7.81153 4.72541 8.15451L4.69215 8.19955C4.61386 8.30763 4.794 8.41155 4.8716 8.30416C4.89793 8.26814 4.92425 8.23488 4.95128 8.19747C4.94019 8.21271 4.9589 8.18777 4.9686 8.1753L5.00531 8.12957L5.08361 8.03396C5.23603 7.85313 5.39746 7.67992 5.56859 7.51433C6.10191 6.99147 6.69927 6.53822 7.34642 6.16537C8.25234 5.63863 9.24127 5.26986 10.2709 5.07484C11.109 4.91146 11.9691 4.89459 12.8129 5.02496C13.0815 5.06798 13.3468 5.12956 13.6069 5.20925C13.6942 5.23627 13.7815 5.26607 13.8674 5.29863C13.8993 5.31041 13.9312 5.32288 13.9623 5.33604L13.9803 5.34297C14.0039 5.35267 13.9644 5.33604 13.9803 5.34297L14.0122 5.35683L14.0524 5.37484C14.1723 5.43166 14.2783 5.2529 14.157 5.1954H14.1536Z" fill="#6A6CFF"/>
<path d="M15.9877 3.24376L16.0293 3.22436L16.057 3.21258C16.0771 3.20357 16.0383 3.2202 16.057 3.21258L16.0778 3.20427C16.1471 3.17586 16.2163 3.14953 16.2856 3.12528C16.5157 3.04713 16.7506 2.98395 16.9889 2.93614C17.7813 2.7829 18.5938 2.7644 19.3924 2.8814C20.4434 3.03395 21.4598 3.36852 22.3959 3.87008C23.0883 4.23641 23.7298 4.69178 24.304 5.22459C24.4961 5.403 24.679 5.591 24.8521 5.78787C24.913 5.85715 24.9719 5.92644 25.0294 5.99572L25.0627 6.03798L25.0793 6.05877C25.0925 6.0754 25.0793 6.06362 25.0793 6.06362C25.0959 6.0844 25.1119 6.10588 25.1278 6.12736L25.159 6.16962C25.2366 6.27701 25.4167 6.17378 25.3384 6.065C25.1204 5.76673 24.8773 5.48765 24.6116 5.23082C24.0642 4.69382 23.451 4.22823 22.7867 3.84514C21.8596 3.30799 20.8475 2.93308 19.7942 2.7366C18.9319 2.57217 18.0477 2.5567 17.1801 2.69087C16.7483 2.75473 16.3264 2.87347 15.9246 3.04422L15.8824 3.06362C15.7618 3.12043 15.8671 3.29918 15.9877 3.24306V3.24376Z" fill="#6A6CFF"/>
<path d="M16.0928 7.50633L16.135 7.48693L16.1621 7.47515C16.1822 7.46684 16.144 7.48277 16.1621 7.47515L16.1822 7.46684C16.2514 7.43843 16.3207 7.4121 16.3942 7.38716C16.6241 7.30874 16.859 7.24579 17.0974 7.19871C17.8895 7.04476 18.7019 7.02625 19.5002 7.14398C20.5514 7.29597 21.5681 7.63032 22.5043 8.13196C23.1964 8.4987 23.8376 8.95429 24.4117 9.48715C24.604 9.66556 24.7871 9.85355 24.9604 10.0504C25.0205 10.1192 25.0794 10.1885 25.1371 10.2583C25.1489 10.2721 25.16 10.2867 25.171 10.3005L25.1877 10.322C25.2001 10.338 25.1877 10.3262 25.1877 10.3262L25.2355 10.3899C25.2466 10.4045 25.257 10.4183 25.2667 10.4329C25.3443 10.5403 25.5251 10.4363 25.4461 10.3276C25.2261 10.0283 24.9814 9.74812 24.7145 9.48992C24.1666 8.95435 23.5535 8.48996 22.8895 8.10771C21.9622 7.57097 20.9503 7.19609 19.8972 6.99917C19.0346 6.83462 18.1501 6.81939 17.2824 6.95414C16.8506 7.01777 16.4287 7.13629 16.027 7.30679L15.9854 7.32619C15.8641 7.383 15.9694 7.56245 16.09 7.50564L16.0928 7.50633Z" fill="#6A6CFF"/>
<path d="M15.9884 9.63703L16.0299 9.61763L16.0576 9.60585C16.0777 9.59685 16.0389 9.61347 16.0576 9.60585L16.0784 9.59685C16.1477 9.56913 16.217 9.54211 16.2863 9.51786C16.5163 9.43961 16.7512 9.37666 16.9895 9.32941C17.7818 9.1756 18.5945 9.15686 19.393 9.27398C20.444 9.42653 21.4604 9.7611 22.3966 10.2627C23.089 10.629 23.7305 11.0844 24.3047 11.6172C24.4967 11.7956 24.6796 11.9836 24.8527 12.1805C24.9137 12.2497 24.9726 12.319 25.0301 12.3883L25.0633 12.4306L25.08 12.4514C25.0931 12.468 25.08 12.4562 25.08 12.4562C25.0966 12.477 25.1125 12.4985 25.1285 12.5199L25.1597 12.5622C25.2373 12.6703 25.4174 12.5664 25.3391 12.4576C25.1191 12.1582 24.8741 11.878 24.6068 11.6199C24.0591 11.0842 23.4459 10.6197 22.7818 10.2377C21.8547 9.70057 20.8427 9.32566 19.7893 9.12918C18.927 8.96475 18.0428 8.94928 17.1752 9.08345C16.7434 9.14731 16.3215 9.26605 15.9198 9.4368L15.8775 9.4562C15.7569 9.51301 15.8623 9.69246 15.9828 9.63564L15.9884 9.63703Z" fill="#6A6CFF"/>
<path d="M16.0928 5.37479L16.135 5.35608L16.1621 5.3443C16.1822 5.3353 16.144 5.35123 16.1621 5.3443L16.1822 5.33599C16.2514 5.30758 16.3207 5.28125 16.3942 5.25631C16.6242 5.17822 16.8591 5.11527 17.0974 5.06786C17.8895 4.91391 18.7019 4.8954 19.5002 5.01313C20.5513 5.16576 21.5678 5.50007 22.5043 6.00111C23.1963 6.3681 23.8374 6.82367 24.4117 7.35631C24.6036 7.53506 24.7872 7.72282 24.9604 7.91958C25.0205 7.98841 25.0794 8.05769 25.1371 8.12744L25.171 8.1697L25.1877 8.19118C25.2001 8.20711 25.1877 8.19533 25.1877 8.19533L25.2355 8.25908C25.2466 8.27363 25.257 8.28748 25.2667 8.30203C25.3443 8.40942 25.5251 8.30619 25.4461 8.19741C25.2263 7.89782 24.9816 7.61737 24.7145 7.35908C24.1668 6.82352 23.5536 6.35933 22.8895 5.97756C21.9622 5.44083 20.9503 5.06596 19.8972 4.86902C19.0345 4.70483 18.1501 4.6896 17.2824 4.82398C16.8505 4.88755 16.4286 5.0063 16.027 5.17733L15.9854 5.19604C15.8641 5.25285 15.9694 5.43229 16.09 5.37548L16.0928 5.37479Z" fill="#6A6CFF"/>
</svg>
