<svg width="30" height="30" viewBox="0 0 30 30" fill="none" xmlns="http://www.w3.org/2000/svg">
<path d="M29.85 15C29.85 23.2014 23.2014 29.85 15 29.85C6.79857 29.85 0.15 23.2014 0.15 15C0.15 6.79857 6.79857 0.15 15 0.15C23.2014 0.15 29.85 6.79857 29.85 15Z" fill="#FEFEFE" stroke="#6A6CFF" stroke-width="0.3"/>
<path d="M14.9618 17.9156C16.3036 17.9156 17.3914 17.0643 17.3914 16.0142C17.3914 14.9641 16.3036 14.1128 14.9618 14.1128C13.62 14.1128 12.5322 14.9641 12.5322 16.0142C12.5322 17.0643 13.62 17.9156 14.9618 17.9156Z" fill="#353680"/>
<path d="M20.4245 19.12C19.5985 17.9859 18.0038 17.7899 16.8845 18.632C16.38 19.0123 15.6985 19.243 14.948 19.243C14.1976 19.243 13.5161 19.0106 13.012 18.632C11.8901 17.7899 10.2951 17.9859 9.46901 19.12C9.16732 19.5341 9 19.9892 9 20.4675C9 22.3765 11.662 23.9242 14.9468 23.9242C18.2315 23.9242 20.8935 22.3765 20.8935 20.4675C20.8935 19.9892 20.7266 19.5341 20.4245 19.12Z" fill="#B5B6FF"/>
<path d="M15.0055 28.7281H14.9944C12.3869 28.7393 9.84096 27.9353 7.71276 26.4285C6.89317 25.8601 6.24596 25.077 5.8421 24.165C5.47456 23.3231 5.33318 22.3998 5.43195 21.4865C5.53731 20.5069 5.90416 19.5736 6.49407 18.7844C7.14202 17.9274 8.01262 17.2646 9.01113 16.868C9.38275 16.7227 9.70139 16.4678 9.92475 16.1372C10.1481 15.8065 10.2656 15.4157 10.2617 15.0167C10.2471 13.9414 9.32221 13.0671 8.19982 13.0671H4.62342C4.35318 13.0705 4.08649 13.0052 3.84845 12.8772C3.61041 12.7492 3.40884 12.5628 3.26269 12.3354C3.14001 12.1451 3.0642 11.9283 3.04144 11.703C3.01868 11.4777 3.04962 11.2502 3.13175 11.0391C3.8038 9.29456 5.33218 7.71696 7.43493 6.59595C9.61181 5.43544 12.2266 4.82227 14.9972 4.82227H15.0083C17.7796 4.82227 20.3944 5.43544 22.5713 6.59525C24.674 7.71627 26.2017 9.29734 26.8738 11.0391C26.956 11.2501 26.9871 11.4776 26.9644 11.7029C26.9418 11.9283 26.8661 12.145 26.7435 12.3354C26.5974 12.5628 26.3958 12.7492 26.1578 12.8772C25.9197 13.0052 25.653 13.0705 25.3828 13.0671H21.8064C20.684 13.0671 19.7584 13.9414 19.7438 15.0167C19.7401 15.4158 19.8577 15.8066 20.0812 16.1372C20.3047 16.4679 20.6234 16.7227 20.9951 16.868C21.9935 17.2648 22.864 17.9276 23.5121 18.7844C24.1021 19.5736 24.4689 20.5069 24.5743 21.4865C24.673 22.3998 24.5316 23.3231 24.1641 24.165C23.7602 25.077 23.113 25.8601 22.2934 26.4285C20.1635 27.9365 17.6152 28.7406 15.0055 28.7281ZM14.9944 5.31003C12.3028 5.31003 9.76701 5.9031 7.6601 7.0262C5.66058 8.09248 4.21188 9.5807 3.58209 11.2158C3.52737 11.3562 3.50675 11.5077 3.52192 11.6576C3.5371 11.8076 3.58764 11.9518 3.66939 12.0784C3.77216 12.2364 3.91332 12.3657 4.07969 12.4543C4.24606 12.5429 4.43219 12.5878 4.62065 12.5849H8.19705C9.58272 12.5849 10.7259 13.674 10.7439 15.0098C10.7497 15.5067 10.6041 15.9937 10.3265 16.4059C10.049 16.8181 9.65252 17.1362 9.18988 17.3177C8.27398 17.6812 7.47512 18.2886 6.87997 19.074C6.34219 19.7927 6.00721 20.6426 5.91 21.535C5.82024 22.3644 5.94849 23.2029 6.28206 23.9676C6.65174 24.7991 7.24335 25.5128 7.99197 26.0301C10.0372 27.478 12.4837 28.2508 14.9896 28.2403H15.0007C17.5079 28.2516 19.956 27.4788 22.0025 26.0301C22.7509 25.5126 23.3425 24.799 23.7124 23.9676C24.0459 23.2029 24.1742 22.3644 24.0844 21.535C23.9872 20.6426 23.6522 19.7927 23.1145 19.074C22.5192 18.2884 21.7201 17.681 20.8039 17.3177C20.3414 17.136 19.9452 16.8179 19.6677 16.4057C19.3903 15.9935 19.2448 15.5066 19.2505 15.0098C19.2685 13.6712 20.411 12.5849 21.7974 12.5849H25.3738C25.5623 12.5878 25.7484 12.5429 25.9147 12.4543C26.0811 12.3657 26.2223 12.2364 26.3251 12.0784C26.4068 11.9518 26.4573 11.8076 26.4725 11.6576C26.4877 11.5077 26.4671 11.3562 26.4124 11.2158C25.7826 9.5807 24.3338 8.09248 22.3336 7.0262C20.2274 5.9031 17.6916 5.31003 14.9993 5.31003H14.9944Z" fill="#6A6CFF"/>
<path d="M22.4657 15.938C23.1257 15.938 23.6608 15.5193 23.6608 15.0027C23.6608 14.4861 23.1257 14.0674 22.4657 14.0674C21.8056 14.0674 21.2705 14.4861 21.2705 15.0027C21.2705 15.5193 21.8056 15.938 22.4657 15.938Z" fill="#0B0B19"/>
<path d="M7.535 15.938C8.19507 15.938 8.73016 15.5193 8.73016 15.0027C8.73016 14.4861 8.19507 14.0674 7.535 14.0674C6.87493 14.0674 6.33984 14.4861 6.33984 15.0027C6.33984 15.5193 6.87493 15.938 7.535 15.938Z" fill="#0B0B19"/>
<path d="M11.2365 21.8433L11.3113 21.7789L11.3543 21.7435L11.3758 21.7255C11.3952 21.7096 11.3515 21.7449 11.3543 21.7435L11.3695 21.731C11.4423 21.6722 11.5164 21.6147 11.5912 21.5592C11.7861 21.4155 11.9892 21.2834 12.1995 21.1636C12.3247 21.0916 12.4522 21.0243 12.582 20.962L12.6859 20.9135C12.697 20.9086 12.7552 20.8851 12.7046 20.9052L12.7607 20.8802C12.8348 20.8484 12.909 20.8179 12.9838 20.7888C13.3114 20.6626 13.6497 20.5664 13.9946 20.5012L14.1332 20.4763L14.2024 20.4659L14.2322 20.4618C14.19 20.468 14.2322 20.4618 14.2447 20.4618C14.3424 20.4486 14.4401 20.4382 14.5378 20.4299C14.7348 20.414 14.9325 20.4084 15.1301 20.4133C15.3165 20.4181 15.5029 20.432 15.6844 20.4548L15.7537 20.4645C15.7627 20.4645 15.789 20.4645 15.7481 20.4645L15.7834 20.4701C15.8271 20.4763 15.8707 20.4839 15.9144 20.4916C16.0003 20.5068 16.0855 20.5234 16.17 20.5428C16.4853 20.6133 16.7942 20.7097 17.0936 20.831L17.1968 20.874L17.2453 20.8948L17.2668 20.9038C17.291 20.9149 17.2869 20.9156 17.2668 20.9038C17.327 20.9398 17.3963 20.9641 17.4594 20.9946C17.5792 21.0534 17.6963 21.1158 17.8127 21.1816C18.0065 21.2927 18.1945 21.4136 18.3759 21.544C18.4452 21.5946 18.5145 21.6465 18.5838 21.6999L18.6274 21.7345L18.6468 21.7498L18.6551 21.7567L18.6357 21.7407C18.6586 21.7601 18.6822 21.7789 18.705 21.799C18.7279 21.819 18.7424 21.8308 18.7612 21.8468C18.7776 21.8637 18.7973 21.8772 18.8191 21.8864C18.8409 21.8956 18.8643 21.9004 18.8879 21.9004C18.9116 21.9004 18.935 21.8956 18.9568 21.8864C18.9785 21.8772 18.9983 21.8637 19.0147 21.8468C19.075 21.7775 19.0923 21.6451 19.0147 21.5779C18.7443 21.3434 18.4549 21.1318 18.1494 20.9454C17.6367 20.6311 17.0817 20.3917 16.5012 20.2345C15.7606 20.035 14.9877 19.9846 14.2274 20.0862C13.5194 20.183 12.8339 20.4034 12.2023 20.7375C11.7933 20.9541 11.4091 21.2146 11.0564 21.5142L10.9822 21.5779C10.9484 21.6145 10.9297 21.6625 10.9297 21.7123C10.9297 21.7622 10.9484 21.8102 10.9822 21.8468C10.9987 21.8636 11.0184 21.877 11.0401 21.8862C11.0618 21.8953 11.0851 21.9 11.1087 21.9C11.1323 21.9 11.1556 21.8953 11.1773 21.8862C11.199 21.877 11.2187 21.8636 11.2351 21.8468L11.2365 21.8433Z" fill="#0B0B19"/>
<path d="M11.8442 6.40483C11.0675 5.85055 10.2542 5.33507 9.37845 4.94984C8.73969 4.6727 8.0545 4.44822 7.35061 4.4406C6.79381 4.42385 6.24699 4.59088 5.79457 4.91589C5.29783 5.28865 4.96944 5.82076 4.73943 6.38889C4.43321 7.1441 4.2988 7.96374 4.2219 8.77022C4.21012 8.89078 4.20041 9.01133 4.19141 9.13188C4.19141 9.17782 4.20967 9.22188 4.24215 9.25436C4.27463 9.28684 4.31867 9.3051 4.36461 9.3051C4.41054 9.3051 4.4546 9.28684 4.48708 9.25436C4.51957 9.22188 4.53781 9.17782 4.53781 9.13188C4.596 8.32402 4.70963 7.50923 4.97567 6.74017C5.00338 6.66118 5.03248 6.58289 5.06366 6.50529C5.07058 6.48658 5.0789 6.46788 5.08652 6.44917C5.09414 6.43046 5.08652 6.44917 5.08652 6.44917L5.09968 6.4173C5.11631 6.3785 5.13363 6.34039 5.15164 6.30159C5.21483 6.1655 5.28585 6.03316 5.36434 5.90528C5.40175 5.845 5.44054 5.78542 5.48142 5.72791C5.50151 5.69951 5.52159 5.67179 5.54238 5.64477C5.55485 5.62883 5.54239 5.64893 5.53823 5.65101L5.55625 5.62814C5.56803 5.6129 5.5798 5.59766 5.59228 5.58311C5.67559 5.48393 5.76638 5.39128 5.86385 5.30597C5.8881 5.28449 5.91235 5.2644 5.9366 5.2443L5.96846 5.21867C5.9359 5.24431 5.97816 5.21174 5.98648 5.2055C6.03636 5.16878 6.08832 5.13622 6.14097 5.10088C6.19363 5.06554 6.25112 5.03645 6.30863 5.00804C6.33426 4.99488 6.3599 4.9831 6.38623 4.97132L6.41393 4.95885L6.44857 4.94499C6.56781 4.8988 6.69061 4.86242 6.81576 4.83622L6.90375 4.81959L6.95225 4.81197H6.97303C6.99451 4.8085 6.94116 4.81197 6.97303 4.81197C7.04231 4.80435 7.10604 4.79811 7.17255 4.79465C7.31255 4.78863 7.45279 4.79164 7.5924 4.80365C7.62912 4.80365 7.66584 4.81058 7.70187 4.81473L7.75729 4.82097H7.74967L7.78985 4.82721C7.86676 4.83829 7.94295 4.85215 8.01916 4.86808C8.3597 4.94124 8.69309 5.04442 9.01542 5.17641C9.82739 5.50205 10.6123 5.97942 11.3426 6.47965C11.4511 6.55448 11.5589 6.63 11.6661 6.70622C11.7058 6.7292 11.753 6.73553 11.7974 6.72385C11.8418 6.71217 11.8798 6.68342 11.903 6.64386C11.9254 6.60405 11.9314 6.55714 11.9199 6.51297C11.9084 6.4688 11.8803 6.43078 11.8414 6.4069L11.8442 6.40483Z" fill="#6A6CFF"/>
<path d="M18.3299 6.70521C19.092 6.1641 19.8846 5.65901 20.7382 5.27864C21.0624 5.13275 21.3979 5.01341 21.7414 4.92183C21.8974 4.88159 22.0553 4.84922 22.2146 4.82483H22.2326L22.288 4.8179C22.3268 4.81305 22.3663 4.80958 22.4051 4.80612C22.4744 4.79988 22.5479 4.79642 22.6192 4.79434C22.7546 4.79202 22.89 4.79872 23.0245 4.81443C23.0564 4.81443 22.9989 4.80958 23.0411 4.81443L23.0889 4.82205L23.1908 4.84076C23.2525 4.85392 23.3141 4.86917 23.3751 4.88718C23.4361 4.9052 23.4936 4.92529 23.5518 4.94815L23.5947 4.96548C23.5628 4.95231 23.5947 4.96547 23.6079 4.97171C23.6384 4.98487 23.6681 4.99942 23.6979 5.01397C23.8085 5.0699 23.9142 5.13503 24.0139 5.20866L24.0388 5.22737C24.0215 5.21421 24.0596 5.244 24.0637 5.24746C24.088 5.26755 24.1122 5.28765 24.133 5.30912C24.1815 5.35139 24.2279 5.39573 24.2716 5.44215C24.3152 5.48857 24.3644 5.54261 24.4102 5.59527L24.442 5.63477C24.4497 5.64377 24.4691 5.66871 24.451 5.64515C24.4732 5.67494 24.4954 5.70405 24.5169 5.73453C24.6014 5.85486 24.6784 5.98027 24.7476 6.11006C24.7836 6.17934 24.8169 6.24862 24.8501 6.31791C24.8875 6.39966 24.9069 6.44539 24.9339 6.51259C25.2229 7.23592 25.3579 8.01745 25.4307 8.78997C25.4418 8.90637 25.4508 9.02277 25.4591 9.1364C25.4602 9.182 25.4787 9.22545 25.511 9.2577C25.5433 9.28996 25.5867 9.30855 25.6323 9.30961C25.6782 9.30942 25.7221 9.29112 25.7546 9.25868C25.787 9.22623 25.8053 9.18228 25.8055 9.1364C25.7452 8.2932 25.6302 7.43685 25.3496 6.63592C25.1459 6.05324 24.8473 5.4768 24.3797 5.06317C23.9564 4.69398 23.4213 4.47799 22.8603 4.44999C22.1959 4.40981 21.528 4.58856 20.9156 4.83037C20.0544 5.17194 19.2528 5.64932 18.4907 6.17172C18.3775 6.24886 18.2657 6.32692 18.1553 6.4059C18.1167 6.43003 18.0888 6.46798 18.0772 6.51201C18.0656 6.55605 18.0712 6.60284 18.093 6.64285C18.1164 6.68227 18.1544 6.7109 18.1987 6.72257C18.243 6.73424 18.2902 6.728 18.3299 6.70521Z" fill="#6A6CFF"/>
<path d="M15.3891 18.9213C15.4804 18.8922 15.5745 18.87 15.6722 18.852C15.7698 18.834 15.8498 18.8173 15.9397 18.8035C16.0104 18.7924 16.0281 18.7903 16.0812 18.7834C16.1343 18.7765 16.2114 18.7688 16.2766 18.7633C16.9843 18.7067 17.6967 18.7562 18.3891 18.9102C18.746 18.984 19.0928 19.0984 19.4224 19.2511C19.676 19.3761 19.9211 19.5168 20.1563 19.6723C20.4946 19.8906 20.8358 20.1192 21.237 20.2058C21.7233 20.3111 22.2279 20.2314 22.6886 20.0589C23.4579 19.7707 24.1338 19.2774 24.7509 18.7529C25.7863 17.8737 26.6929 16.8497 27.5465 15.8035C27.6823 15.6363 27.8171 15.4684 27.9506 15.2998C27.9823 15.2666 28 15.2229 28 15.1775C28 15.1321 27.9823 15.0883 27.9506 15.0552C27.9172 15.023 27.8722 15.0049 27.8253 15.0049C27.7784 15.0049 27.7334 15.023 27.7 15.0552C26.8125 16.1776 25.8741 17.2771 24.8061 18.2423C24.184 18.8028 23.5322 19.3238 22.7445 19.6654L22.6943 19.6876C22.6575 19.7028 22.7219 19.6758 22.6978 19.6876L22.6702 19.6986C22.6348 19.7134 22.5987 19.7273 22.5619 19.7402C22.4968 19.7638 22.431 19.7859 22.3637 19.806C22.24 19.8431 22.1137 19.8716 21.9858 19.8913L21.9497 19.8968C22.0134 19.8864 21.9561 19.8968 21.9419 19.8968C21.9129 19.8968 21.8832 19.903 21.8535 19.9051C21.7997 19.9093 21.7459 19.9113 21.6921 19.9113C21.6383 19.9113 21.586 19.9093 21.535 19.9051L21.4642 19.8982C21.4324 19.8982 21.448 19.8982 21.4734 19.8982L21.4281 19.8913C21.3142 19.8726 21.2023 19.8434 21.0941 19.804L21.0537 19.7887C21.0233 19.7762 21.0913 19.8046 21.041 19.7832L20.9702 19.7513C20.9179 19.7264 20.8669 19.6993 20.8159 19.6716C20.7133 19.6148 20.6135 19.5524 20.5145 19.4887C20.2965 19.3501 20.0813 19.206 19.8534 19.0813C19.5556 18.918 19.2411 18.7859 18.915 18.6871C18.176 18.4697 17.4058 18.3721 16.6347 18.3982C16.2137 18.4054 15.7951 18.4615 15.3877 18.5651L15.2985 18.5908C15.0826 18.6601 15.1753 18.994 15.3926 18.9247L15.3891 18.9213Z" fill="#6A6CFF"/>
<path d="M14.708 18.5861C14.4082 18.4988 14.0998 18.4428 13.7879 18.4191C13.0805 18.3577 12.3677 18.3988 11.6725 18.5411C11.004 18.672 10.3668 18.9259 9.79493 19.2893C9.59181 19.4175 9.39435 19.5554 9.18344 19.6711C9.13744 19.696 9.09144 19.7203 9.0419 19.7404L8.96335 19.7764H8.95839L8.91027 19.7951C8.84461 19.8193 8.77748 19.8394 8.70927 19.8554C8.66256 19.8665 8.61585 19.8762 8.56772 19.8838C8.55626 19.8843 8.54489 19.886 8.53375 19.8886C8.54507 19.8886 8.57551 19.8838 8.53942 19.8886C8.50332 19.8935 8.48775 19.8942 8.46156 19.8956C8.35392 19.9039 8.24577 19.9039 8.13812 19.8956L8.05816 19.8879H8.03692L8.00508 19.8831C7.94492 19.8741 7.88476 19.8623 7.82531 19.8485C7.69019 19.8174 7.5573 19.7776 7.42756 19.7293C7.395 19.7177 7.36245 19.7053 7.3299 19.6919L7.30795 19.6836C7.27115 19.6683 7.33627 19.6953 7.3115 19.6836L7.25062 19.6572C7.17631 19.6247 7.10343 19.5879 7.03124 19.5547C6.86634 19.4722 6.70638 19.3808 6.54998 19.2831C6.17453 19.0459 5.81821 18.781 5.48413 18.4905C4.45579 17.6134 3.55414 16.5956 2.70416 15.5542C2.56827 15.3875 2.43357 15.2196 2.30004 15.0505C2.26688 15.0182 2.22197 15 2.17514 15C2.12831 15 2.08338 15.0182 2.05021 15.0505C2.01799 15.0834 2 15.1272 2 15.1728C2 15.2184 2.01799 15.2622 2.05021 15.2951C2.93983 16.421 3.88111 17.5226 4.95191 18.4877C5.58462 19.0579 6.27963 19.6108 7.07087 19.9565C7.55921 20.1699 8.08717 20.303 8.62363 20.2261C8.95536 20.1679 9.27082 20.0418 9.54935 19.8561C10.0341 19.5554 10.497 19.2422 11.0448 19.0586C11.7748 18.8231 12.5412 18.7143 13.3095 18.7371C13.7191 18.7373 14.1268 18.7897 14.5226 18.893L14.6117 18.9187C14.8283 18.9879 14.9217 18.6533 14.7059 18.5847L14.708 18.5861Z" fill="#6A6CFF"/>
</svg>
