<svg width="30" height="30" viewBox="0 0 30 30" fill="none" xmlns="http://www.w3.org/2000/svg">
<path d="M29.85 15C29.85 23.2014 23.2014 29.85 15 29.85C6.79857 29.85 0.15 23.2014 0.15 15C0.15 6.79857 6.79857 0.15 15 0.15C23.2014 0.15 29.85 6.79857 29.85 15Z" fill="#FEFEFE" stroke="#6A6CFF" stroke-width="0.3"/>
<path d="M7.14042 14.3796C7.79999 14.6034 8.15957 14.9963 8.15749 15.1335C8.15872 15.1811 8.14273 15.2276 8.11246 15.2644C8.09376 15.2813 8.07184 15.2941 8.04802 15.3022C8.0242 15.3103 7.99898 15.3135 7.9739 15.3115C7.94454 15.3103 7.91575 15.303 7.88937 15.2901L7.8672 15.2797L7.83325 15.2651C7.784 15.2461 7.73354 15.2304 7.68221 15.218C7.65658 15.2118 7.63094 15.2069 7.60531 15.2021H7.5963H7.58314L7.53672 15.1972C7.46433 15.1911 7.39156 15.1911 7.31917 15.1972H7.31016L7.28661 15.2014C7.26721 15.2014 7.2485 15.2083 7.2298 15.2132C7.19492 15.2208 7.16046 15.2303 7.12656 15.2416C7.09469 15.252 7.06352 15.2637 7.03719 15.2748H7.03026L7.01155 15.2831L6.97067 15.3039C6.9179 15.3324 6.86719 15.3646 6.81894 15.4002L6.78985 15.4231H6.78569H6.78153L6.77114 15.4328C6.75798 15.4439 6.74481 15.4557 6.73234 15.4681C6.68676 15.5108 6.64481 15.5571 6.60694 15.6067C6.59468 15.6233 6.57886 15.637 6.56063 15.6467C6.54241 15.6564 6.52226 15.6619 6.50163 15.6629H6.48777C6.43739 15.6626 6.38904 15.643 6.35267 15.6081C6.31999 15.5712 6.30195 15.5237 6.30195 15.4744C6.30195 15.4251 6.31999 15.3775 6.35267 15.3407C6.4041 15.274 6.46188 15.2125 6.52519 15.157C6.74232 14.9661 7.01209 14.8454 7.29908 14.8106C7.29284 14.8106 7.2873 14.8036 7.28107 14.8002L7.2 14.76L7.1612 14.7413L7.1425 14.733C7.08153 14.7073 7.01987 14.6838 6.95751 14.6637C6.89516 14.6436 6.8238 14.6221 6.7559 14.6055C6.71779 14.5965 6.67969 14.5888 6.64089 14.5812L6.58962 14.5722L6.55913 14.5674C6.40408 14.5475 6.24752 14.5422 6.09147 14.5514C6.05337 14.5514 6.01457 14.557 5.97647 14.5611L5.92727 14.5674C5.96538 14.5625 5.90926 14.5674 5.90233 14.5715C5.83721 14.5819 5.77277 14.5958 5.70903 14.6117C5.59738 14.6397 5.48786 14.6755 5.38132 14.7191L5.33975 14.7364H5.33352H5.33768C5.31759 14.7468 5.29611 14.7558 5.27532 14.7655C5.23929 14.7835 5.20604 14.8016 5.16793 14.8217C5.11874 14.8487 5.07024 14.8778 5.02313 14.909C5.00475 14.9199 4.98433 14.927 4.96313 14.9298C4.94192 14.9326 4.92036 14.9311 4.89976 14.9254C4.87916 14.9196 4.85994 14.9097 4.84328 14.8963C4.82661 14.8829 4.81284 14.8662 4.80281 14.8473C4.78164 14.8082 4.7758 14.7626 4.78644 14.7194C4.79707 14.6762 4.82341 14.6386 4.86032 14.6138C5.55938 14.2008 6.32496 14.1419 7.14042 14.3796Z" fill="#6A6CFF"/>
<path d="M5.32554 14.749C5.31268 14.7545 5.31145 14.7563 5.32554 14.749V14.749Z" fill="#6A6CFF"/>
<path d="M22.9038 14.3796C22.2443 14.6034 21.8854 14.9963 21.8868 15.1335C21.8856 15.1812 21.9018 15.2278 21.9325 15.2644C21.9512 15.2813 21.9731 15.2941 21.997 15.3022C22.0208 15.3103 22.046 15.3135 22.0711 15.3115C22.1004 15.3103 22.1292 15.303 22.1556 15.2901L22.1778 15.2797L22.2117 15.2651C22.2607 15.246 22.3109 15.2303 22.3621 15.218C22.3877 15.2118 22.414 15.2069 22.4396 15.2021H22.4487H22.4618L22.5075 15.1972C22.5799 15.1911 22.6527 15.1911 22.7251 15.1972H22.7348L22.759 15.2014C22.7777 15.2014 22.7971 15.2083 22.8158 15.2132C22.8505 15.2208 22.8851 15.2305 22.9191 15.2416C22.953 15.2526 22.9814 15.2637 23.0084 15.2748H23.0154L23.0341 15.2831L23.075 15.3039C23.1275 15.3327 23.1782 15.3649 23.2267 15.4002L23.2558 15.4231H23.2599H23.2634L23.2745 15.4328C23.2877 15.4439 23.3008 15.4557 23.3133 15.4681C23.3587 15.5109 23.4006 15.5573 23.4387 15.6067C23.4509 15.6233 23.4666 15.6369 23.4847 15.6466C23.5028 15.6563 23.5228 15.6618 23.5433 15.6629H23.5578C23.6082 15.6626 23.6566 15.643 23.6929 15.6081C23.7256 15.5712 23.7437 15.5237 23.7437 15.4744C23.7437 15.4251 23.7256 15.3775 23.6929 15.3407C23.642 15.2739 23.5844 15.2123 23.5211 15.157C23.3038 14.966 23.0338 14.8452 22.7466 14.8106L22.7653 14.8002L22.8456 14.76L22.8851 14.7413L22.9038 14.733C22.9641 14.7073 23.0258 14.6838 23.0881 14.6637C23.1505 14.6436 23.2225 14.6221 23.2904 14.6055C23.3285 14.5965 23.3666 14.5888 23.4054 14.5812L23.4567 14.5722L23.4865 14.5674C23.6415 14.5475 23.7981 14.5422 23.9541 14.5514C23.9929 14.5514 24.031 14.557 24.0698 14.5611L24.1183 14.5674C24.0802 14.5625 24.1364 14.5674 24.144 14.5715C24.2084 14.5819 24.2728 14.5958 24.3366 14.6117C24.4483 14.6395 24.5578 14.6754 24.6643 14.7191L24.7065 14.7364H24.7128H24.7079C24.7287 14.7468 24.7502 14.7558 24.771 14.7655C24.807 14.7835 24.8402 14.8016 24.8784 14.8217C24.9275 14.8487 24.9753 14.8778 25.0225 14.909C25.0409 14.9198 25.0614 14.9269 25.0826 14.9296C25.1039 14.9324 25.1254 14.9309 25.1461 14.9251C25.1667 14.9193 25.186 14.9095 25.2027 14.8961C25.2194 14.8828 25.2333 14.8662 25.2435 14.8473C25.2646 14.8081 25.2703 14.7625 25.2595 14.7193C25.2488 14.6761 25.2223 14.6385 25.1853 14.6138C24.4855 14.2008 23.72 14.1419 22.9038 14.3796Z" fill="#6A6CFF"/>
<path d="M24.7178 14.749C24.7306 14.7545 24.7319 14.7563 24.7178 14.749V14.749Z" fill="#6A6CFF"/>
<path d="M23.2448 17.2267C24.5649 17.2267 25.6351 16.3892 25.6351 15.356C25.6351 14.3229 24.5649 13.4854 23.2448 13.4854C21.9247 13.4854 20.8545 14.3229 20.8545 15.356C20.8545 16.3892 21.9247 17.2267 23.2448 17.2267Z" fill="#6A6CFF"/>
<path d="M6.82389 17.2267C8.14402 17.2267 9.21419 16.3892 9.21419 15.356C9.21419 14.3229 8.14402 13.4854 6.82389 13.4854C5.50377 13.4854 4.43359 14.3229 4.43359 15.356C4.43359 16.3892 5.50377 17.2267 6.82389 17.2267Z" fill="#6A6CFF"/>
<path d="M15.4987 27.7753C15.7005 27.8366 15.907 27.8808 16.1161 27.9076C16.5917 27.9733 17.0732 27.9859 17.5516 27.945C18.6505 27.8549 19.7687 27.5356 20.7069 26.9425C20.9166 26.8139 21.1132 26.6649 21.2937 26.4978C21.3907 26.4049 21.2438 26.2581 21.1468 26.3509C20.7131 26.7666 20.1297 27.0624 19.565 27.2785C18.5171 27.6874 17.3863 27.8385 16.2678 27.7191C16.0258 27.6942 15.7868 27.6457 15.5542 27.5743C15.4267 27.5335 15.372 27.7337 15.4987 27.7753Z" fill="#6A6CFF"/>
<path d="M15.5683 25.9782C15.7699 26.0396 15.9765 26.0839 16.1856 26.1105C16.661 26.1762 17.1422 26.1889 17.6204 26.1486C18.72 26.0578 19.8375 25.7384 20.7756 25.1454C20.9859 25.0172 21.1827 24.8682 21.3631 24.7006C21.4601 24.6078 21.3126 24.4616 21.2163 24.5537C20.7825 24.9694 20.1985 25.2659 19.6345 25.4814C18.5865 25.8907 17.4554 26.0419 16.3366 25.922C16.0949 25.897 15.8562 25.8488 15.6237 25.7779C15.4955 25.7364 15.4415 25.9373 15.5683 25.9782Z" fill="#6A6CFF"/>
<path d="M15.4987 25.0797C15.7003 25.1417 15.9068 25.1859 16.1161 25.212C16.5917 25.278 17.0732 25.2908 17.5516 25.2501C18.6505 25.1594 19.7687 24.8407 20.7069 24.2476C20.9168 24.119 21.1134 23.9697 21.2937 23.8021C21.3907 23.71 21.2438 23.5631 21.1468 23.6552C20.7131 24.0709 20.1297 24.3675 19.565 24.5829C18.5172 24.9921 17.3864 25.1435 16.2678 25.0243C16.0258 24.9994 15.7868 24.9509 15.5542 24.8795C15.4267 24.8379 15.372 25.0388 15.4987 25.0797Z" fill="#6A6CFF"/>
<path d="M15.5683 26.8768C15.7699 26.9382 15.9765 26.9825 16.1856 27.0091C16.661 27.0749 17.1423 27.0875 17.6204 27.0465C18.72 26.9565 19.8375 26.6371 20.7756 26.0441C20.9859 25.9159 21.1827 25.7669 21.3631 25.5993C21.4601 25.5065 21.3126 25.3596 21.2163 25.4525C20.7825 25.8681 20.1985 26.1646 19.6345 26.3801C18.5865 26.7894 17.4554 26.9405 16.3366 26.8207C16.0948 26.7958 15.8561 26.7473 15.6237 26.6759C15.4955 26.635 15.4415 26.8352 15.5683 26.8768Z" fill="#6A6CFF"/>
<path d="M14.4431 27.5742C13.8196 27.7765 13.1198 27.7897 12.4741 27.7391C11.4016 27.6553 10.309 27.3407 9.39582 26.7628C9.2005 26.6429 9.01782 26.5036 8.85056 26.347C8.75356 26.2541 8.60668 26.401 8.70367 26.4939C9.16372 26.9339 9.7651 27.2381 10.3526 27.464C11.4127 27.8749 12.5974 28.0558 13.7302 27.9221C13.9906 27.8965 14.248 27.8457 14.4986 27.7703C14.6254 27.7287 14.5678 27.5278 14.4431 27.5693V27.5742Z" fill="#6A6CFF"/>
<path d="M14.3794 25.7774C13.7559 25.979 13.0561 25.9928 12.4103 25.9422C11.3378 25.8584 10.2452 25.5439 9.3313 24.9655C9.13565 24.8462 8.95292 24.7069 8.78602 24.5498C8.68972 24.4577 8.54214 24.6039 8.63914 24.6967C9.09919 25.1366 9.70059 25.4414 10.2881 25.6665C11.3482 26.0766 12.5337 26.2581 13.6658 26.1237C13.9263 26.0983 14.1836 26.0475 14.4342 25.972C14.561 25.9312 14.5069 25.7303 14.3794 25.7718V25.7774Z" fill="#6A6CFF"/>
<path d="M14.4431 24.8804C13.8196 25.082 13.1198 25.0959 12.4741 25.0453C11.4016 24.9615 10.309 24.6469 9.39582 24.069C9.20035 23.9494 9.01764 23.8101 8.85056 23.6533C8.75356 23.5611 8.60668 23.708 8.70367 23.8002C9.16372 24.2402 9.7651 24.545 10.3526 24.7702C11.4127 25.1804 12.5974 25.362 13.7302 25.2282C13.9907 25.2025 14.248 25.1514 14.4986 25.0758C14.6254 25.0349 14.5678 24.834 14.4431 24.8756V24.8804Z" fill="#6A6CFF"/>
<path d="M14.3794 26.6759C13.7559 26.8782 13.0561 26.892 12.4103 26.8415C11.3378 26.7576 10.2452 26.4431 9.3313 25.8647C9.13597 25.7462 8.95326 25.6081 8.78602 25.4525C8.68972 25.3596 8.54214 25.5065 8.63914 25.5993C9.09919 26.0392 9.70059 26.3441 10.2881 26.5692C11.3482 26.9793 12.5337 27.1608 13.6658 27.0264C13.9263 27.001 14.1836 26.9502 14.4342 26.8747C14.561 26.8332 14.5069 26.6329 14.3794 26.6738V26.6759Z" fill="#6A6CFF"/>
<path d="M14.9305 1.71723C14.8308 1.60393 14.6941 1.5297 14.5447 1.50775C14.3954 1.4858 14.2431 1.51756 14.115 1.59737C13.7381 1.81561 13.5101 2.24657 13.3528 2.63664C13.3016 2.76008 13.2576 2.88639 13.2212 3.01494C13.2155 3.04096 13.22 3.06817 13.2338 3.09096C13.2476 3.11375 13.2696 3.13038 13.2953 3.1374C13.321 3.14443 13.3484 3.14131 13.3719 3.12871C13.3953 3.1161 13.4131 3.09497 13.4214 3.06967C13.4918 2.81887 13.5916 2.57724 13.7186 2.3498C13.8094 2.18095 13.9263 2.02755 14.0651 1.89529C14.196 1.77543 14.3748 1.66942 14.5584 1.71792C14.6483 1.74089 14.7283 1.79244 14.7864 1.86481C14.8723 1.96804 15.0185 1.81977 14.9333 1.71792L14.9305 1.71723Z" fill="#6A6CFF"/>
<path d="M14.9133 3.5102C14.8136 3.39691 14.6769 3.32267 14.5276 3.30072C14.3783 3.27877 14.226 3.31053 14.0979 3.39034C13.721 3.6079 13.4931 4.03955 13.3358 4.42963C13.2847 4.55288 13.2408 4.67895 13.2042 4.80724C13.1977 4.83349 13.2018 4.86123 13.2154 4.88455C13.2291 4.90787 13.2513 4.92494 13.2774 4.93215C13.3034 4.93937 13.3313 4.93614 13.355 4.92317C13.3787 4.9102 13.3964 4.8885 13.4044 4.86267C13.4731 4.61148 13.5715 4.36936 13.6974 4.1414C13.7882 3.97233 13.9051 3.8187 14.0438 3.68619C14.1748 3.56633 14.3535 3.46101 14.5371 3.50882C14.6271 3.53207 14.707 3.58385 14.7651 3.6564C14.851 3.75894 14.9971 3.61136 14.9119 3.50951L14.9133 3.5102Z" fill="#6A6CFF"/>
<path d="M14.9311 4.40959C14.8313 4.29631 14.6946 4.22208 14.5453 4.20014C14.396 4.17819 14.2437 4.20994 14.1156 4.28974C13.7386 4.50728 13.5107 4.93889 13.3534 5.32894C13.3023 5.45217 13.2583 5.57824 13.2217 5.70652C13.2153 5.73277 13.2193 5.7605 13.233 5.78381C13.2467 5.80713 13.2689 5.82421 13.295 5.83142C13.321 5.83863 13.3488 5.83541 13.3726 5.82244C13.3963 5.80947 13.414 5.78777 13.422 5.76194C13.4922 5.51107 13.5919 5.26943 13.7192 5.04212C13.81 4.87307 13.9269 4.71945 14.0657 4.58695C14.1966 4.4671 14.3754 4.3611 14.559 4.40959C14.6491 4.43256 14.7291 4.48439 14.787 4.55716C14.8729 4.65969 15.0191 4.51213 14.9338 4.41029L14.9311 4.40959Z" fill="#6A6CFF"/>
<path d="M14.9133 2.61173C14.8136 2.49845 14.6769 2.42423 14.5276 2.40228C14.3783 2.38034 14.226 2.41209 14.0979 2.49188C13.721 2.71009 13.4931 3.14096 13.3358 3.53097C13.2847 3.65419 13.2408 3.78025 13.2042 3.90851C13.1977 3.93476 13.2018 3.96249 13.2154 3.9858C13.2291 4.00912 13.2513 4.02618 13.2774 4.03339C13.3034 4.0406 13.3313 4.03738 13.355 4.02441C13.3787 4.01144 13.3964 3.98975 13.4044 3.96393C13.4732 3.71215 13.5716 3.4694 13.6974 3.24072C13.7882 3.0719 13.9051 2.91852 14.0438 2.78629C14.1748 2.66575 14.3535 2.56046 14.5371 2.60826C14.6269 2.63178 14.7068 2.6835 14.7651 2.75581C14.851 2.85833 14.9971 2.71078 14.9119 2.60895L14.9133 2.61173Z" fill="#6A6CFF"/>
<path d="M15.2163 1.86109C15.2629 1.80182 15.3247 1.75632 15.3951 1.72946C15.5607 1.66018 15.7318 1.72946 15.8669 1.832C16.1586 2.05369 16.3429 2.41603 16.4732 2.75134C16.5133 2.85457 16.5494 2.95918 16.5799 3.06587C16.5882 3.09117 16.6059 3.11231 16.6294 3.12491C16.6529 3.13751 16.6803 3.14062 16.706 3.13359C16.7317 3.12657 16.7537 3.10995 16.7675 3.08717C16.7813 3.06438 16.7858 3.03717 16.7801 3.01114C16.6985 2.71561 16.5773 2.43246 16.4198 2.16939C16.212 1.82299 15.8399 1.39484 15.3888 1.51331C15.2646 1.54705 15.1532 1.61699 15.0687 1.71422C14.9835 1.81606 15.1297 1.96432 15.2163 1.86109Z" fill="#6A6CFF"/>
<path d="M15.2329 3.65706C15.2795 3.59778 15.3413 3.55227 15.4117 3.52541C15.5773 3.45612 15.7484 3.52541 15.8835 3.62795C16.1752 3.84967 16.3595 4.21204 16.4897 4.5467C16.5299 4.64994 16.566 4.75456 16.5964 4.86196C16.6044 4.88778 16.6221 4.90949 16.6459 4.92246C16.6696 4.93543 16.6974 4.93865 16.7235 4.93144C16.7495 4.92423 16.7717 4.90715 16.7854 4.88383C16.7991 4.86051 16.8031 4.83278 16.7967 4.80653C16.7148 4.51105 16.5936 4.22791 16.4364 3.96469C16.2285 3.61825 15.8565 3.19075 15.4054 3.30923C15.2811 3.34271 15.1696 3.4127 15.0853 3.51017C15.0001 3.61202 15.1463 3.7596 15.2329 3.65706Z" fill="#6A6CFF"/>
<path d="M15.2163 4.5574C15.2626 4.49783 15.3245 4.45226 15.3951 4.42577C15.5607 4.35649 15.7318 4.42577 15.8669 4.52761C16.1586 4.75 16.3429 5.11233 16.4731 5.44695C16.5133 5.55017 16.5494 5.65479 16.5798 5.76217C16.5878 5.78799 16.6055 5.80969 16.6293 5.82266C16.653 5.83563 16.6808 5.83886 16.7069 5.83165C16.7329 5.82443 16.7551 5.80736 16.7688 5.78404C16.7825 5.76072 16.7865 5.73299 16.7801 5.70674C16.6982 5.4113 16.577 5.12819 16.4198 4.865C16.2119 4.5186 15.8399 4.09115 15.3888 4.20962C15.2643 4.24282 15.1528 4.31285 15.0687 4.41053C14.9835 4.51237 15.1297 4.65994 15.2163 4.5574Z" fill="#6A6CFF"/>
<path d="M15.2329 2.75569C15.2795 2.69641 15.3413 2.6509 15.4117 2.62404C15.5773 2.55475 15.7484 2.62404 15.8835 2.72658C16.1752 2.9483 16.3595 3.31067 16.4897 3.64602C16.5299 3.74925 16.566 3.85388 16.5964 3.96058C16.6044 3.98641 16.6221 4.00811 16.6459 4.02108C16.6696 4.03405 16.6974 4.03727 16.7235 4.03006C16.7495 4.02285 16.7717 4.00577 16.7854 3.98245C16.7991 3.95913 16.8031 3.9314 16.7967 3.90515C16.7148 3.60967 16.5936 3.32653 16.4364 3.06331C16.2285 2.71688 15.8565 2.28939 15.4054 2.40787C15.2811 2.44134 15.1696 2.51133 15.0853 2.6088C15.0001 2.71065 15.1463 2.85823 15.2329 2.75569Z" fill="#6A6CFF"/>
<path d="M25.4785 15.1463L26.851 14.1764L29.0355 12.6327L29.5316 12.2815C29.6404 12.2045 29.5364 12.0244 29.427 12.102L28.0545 13.072L25.87 14.6156L25.3739 14.9669C25.2658 15.0438 25.369 15.2239 25.4785 15.1463Z" fill="#6A6CFF"/>
<path d="M4.52023 14.9661L3.14771 13.9961L0.963858 12.4552L0.467089 12.104C0.357619 12.0264 0.253692 12.2065 0.362469 12.2834L1.73499 13.2534L3.91884 14.797L4.41561 15.1483C4.52508 15.2259 4.62901 15.0457 4.52023 14.9688V14.9661Z" fill="#6A6CFF"/>
<path d="M21.2699 16.0146H21.062C21.062 13.9513 18.3419 12.2733 14.9997 12.2733C11.6574 12.2733 8.93734 13.9513 8.93734 16.0146H8.72949C8.72949 13.837 11.5417 12.0654 14.9997 12.0654C18.4577 12.0654 21.2699 13.837 21.2699 16.0146Z" fill="#6A6CFF"/>
<path d="M14.9618 17.9156C16.3036 17.9156 17.3914 17.0643 17.3914 16.0142C17.3914 14.9641 16.3036 14.1128 14.9618 14.1128C13.62 14.1128 12.5322 14.9641 12.5322 16.0142C12.5322 17.0643 13.62 17.9156 14.9618 17.9156Z" fill="#353680"/>
<path d="M20.4245 19.0072C19.5985 17.8731 18.0038 17.6771 16.8845 18.5192C16.38 18.8995 15.6985 19.1302 14.948 19.1302C14.1976 19.1302 13.5161 18.8978 13.012 18.5192C11.8901 17.6771 10.2951 17.8731 9.46901 19.0072C9.16732 19.4213 9 19.8764 9 20.3547C9 22.2637 11.662 23.8115 14.9468 23.8115C18.2315 23.8115 20.8935 22.2637 20.8935 20.3547C20.8935 19.8764 20.7266 19.4213 20.4245 19.0072Z" fill="#B5B6FF"/>
<path fill-rule="evenodd" clip-rule="evenodd" d="M14.17 21.7289C14.4211 21.7726 14.6756 21.7946 14.9305 21.7944C15.6107 21.7911 16.2827 21.6462 16.9038 21.3689C17.4074 21.1449 17.9149 20.8276 18.4545 20.3971C18.4768 20.3808 18.4954 20.3601 18.5093 20.3362C18.5231 20.3123 18.5318 20.2858 18.5348 20.2584C18.5379 20.2309 18.5351 20.2032 18.5268 20.1769C18.5185 20.1505 18.5048 20.1262 18.4866 20.1055C18.4668 20.0795 18.4421 20.0577 18.4138 20.0413C18.3855 20.025 18.3542 20.0144 18.3218 20.0103C18.2894 20.0061 18.2565 20.0085 18.225 20.0172C18.1935 20.026 18.1641 20.0409 18.1384 20.0611C17.0766 20.9083 16.0059 21.338 14.9555 21.338H14.9512C13.9021 21.338 12.828 20.9071 11.756 20.0611C11.7301 20.041 11.7005 20.0263 11.6689 20.0177C11.6372 20.0092 11.6042 20.007 11.5717 20.0114C11.5392 20.0157 11.5079 20.0265 11.4796 20.0431C11.4513 20.0597 11.4267 20.0818 11.407 20.108C11.389 20.1287 11.3754 20.1529 11.3673 20.1791C11.3591 20.2053 11.3566 20.2329 11.3597 20.2601C11.3628 20.2874 11.3716 20.3137 11.3855 20.3373C11.3994 20.361 11.4181 20.3815 11.4404 20.3975C12.3767 21.1373 13.2691 21.5717 14.17 21.7289Z" fill="#0B0B19"/>
</svg>
